M48
METRIC,LZ,000.000
;FILE_FORMAT=3:3
;TYPE=PLATED
;Layer: PTH_Through
;EasyEDA v6.5.29, 2023-07-14 00:53:27
;c58a546ca1a14cb0a5025686437682f6,398929e9e95146ce9e037ed163e1f376,10
;Gerber Generator version 0.2
;Holesize 1 = 0.305 mm
T01C0.305
;Holesize 2 = 0.306 mm
T02C0.306
;Holesize 3 = 1.101 mm
T03C1.101
;Holesize 4 = 1.850 mm
T04C1.850
%
G05
G90
T01
X020806Y-019965
X019605Y-021165
X019606Y-019965
X020806Y-021165
X053445Y-020346
X052244Y-021546
X052245Y-020346
X053445Y-021546
T02
X031812Y-051007
X031812Y-044683
X051556Y-023648
X022540Y-041937
X009717Y-040904
X051882Y-024834
X052954Y-023670
X020203Y-016402
X018779Y-047235
X022629Y-020714
X025618Y-044862
X019615Y-048322
X020085Y-017454
X052785Y-018073
X050016Y-044826
X025273Y-041911
X019778Y-038396
X022037Y-038663
X051417Y-018209
X048815Y-039117
X020262Y-015384
X055646Y-017878
X057278Y-018487
X055303Y-019250
X046916Y-041918
X048419Y-049097
X040444Y-042741
X047752Y-035433
T03
X005093Y-038345
X064656Y-043552
X005093Y-043171
X064910Y-048632
X005220Y-047362
X065037Y-053077
X005220Y-051934
X010173Y-051934
X060719Y-037710
X064402Y-037710
X027318Y-053204
X010173Y-038345
X060846Y-043933
X010173Y-043171
X059436Y-048514
X010173Y-047489
X061100Y-052442
T04
X019571Y-028185
X013602Y-013707
X019571Y-011176
X025540Y-013707
X052210Y-028312
X046241Y-013834
X052210Y-011303
X058179Y-013834
M30
