G04 Layer: TopPasteMaskLayer*
G04 EasyEDA v6.5.29, 2023-07-14 00:53:27*
G04 c58a546ca1a14cb0a5025686437682f6,398929e9e95146ce9e037ed163e1f376,10*
G04 Gerber Generator version 0.2*
G04 Scale: 100 percent, Rotated: No, Reflected: No *
G04 Dimensions in millimeters *
G04 leading zeros omitted , absolute positions ,4 integer and 5 decimal *
%FSLAX45Y45*%
%MOMM*%

%AMMACRO1*21,1,$1,$2,0,0,$3*%
%ADD10R,0.8000X0.9000*%
%ADD11MACRO1,0.532X1.0375X90.0000*%
%ADD12R,0.5320X1.0375*%
%ADD13MACRO1,0.665X0.28X90.0000*%
%ADD14R,0.2800X0.6650*%
%ADD15MACRO1,2.6X3X90.0000*%
%ADD16R,1.0000X0.6000*%
%ADD17R,0.4900X1.1570*%
%ADD18R,0.4900X1.1750*%
%ADD19R,0.0186X1.1750*%

%LPD*%
G36*
X2277770Y-5292902D02*
G01*
X2272792Y-5297932D01*
X2272792Y-5342890D01*
X2277770Y-5347919D01*
X2325776Y-5347919D01*
X2332786Y-5342890D01*
X2332786Y-5297932D01*
X2325776Y-5292902D01*
G37*
G36*
X2375763Y-5292902D02*
G01*
X2368753Y-5297932D01*
X2368753Y-5342890D01*
X2375763Y-5347919D01*
X2423769Y-5347919D01*
X2428798Y-5342890D01*
X2428798Y-5297932D01*
X2423769Y-5292902D01*
G37*
G36*
X4932070Y-4759502D02*
G01*
X4927092Y-4764532D01*
X4927092Y-4809490D01*
X4932070Y-4814519D01*
X4980076Y-4814519D01*
X4987086Y-4809490D01*
X4987086Y-4764532D01*
X4980076Y-4759502D01*
G37*
G36*
X5030063Y-4759502D02*
G01*
X5023053Y-4764532D01*
X5023053Y-4809490D01*
X5030063Y-4814519D01*
X5078069Y-4814519D01*
X5083098Y-4809490D01*
X5083098Y-4764532D01*
X5078069Y-4759502D01*
G37*
G36*
X2237892Y-4310227D02*
G01*
X2232863Y-4315206D01*
X2232863Y-4338015D01*
X2269896Y-4338015D01*
X2269896Y-4371035D01*
X2232863Y-4371035D01*
X2232863Y-4395216D01*
X2237892Y-4400194D01*
X2317902Y-4400194D01*
X2322880Y-4395216D01*
X2322880Y-4315206D01*
X2317902Y-4310227D01*
G37*
G36*
X2078888Y-4310227D02*
G01*
X2073859Y-4315206D01*
X2073859Y-4395216D01*
X2078888Y-4400194D01*
X2157882Y-4400194D01*
X2162860Y-4395216D01*
X2162860Y-4371035D01*
X2124862Y-4371035D01*
X2124862Y-4338015D01*
X2162860Y-4338015D01*
X2162860Y-4315206D01*
X2157882Y-4310227D01*
G37*
G36*
X2669692Y-3738727D02*
G01*
X2664663Y-3743706D01*
X2664663Y-3766515D01*
X2701696Y-3766515D01*
X2701696Y-3799535D01*
X2664663Y-3799535D01*
X2664663Y-3823715D01*
X2669692Y-3828694D01*
X2749702Y-3828694D01*
X2754680Y-3823715D01*
X2754680Y-3743706D01*
X2749702Y-3738727D01*
G37*
G36*
X2510688Y-3738727D02*
G01*
X2505659Y-3743706D01*
X2505659Y-3823715D01*
X2510688Y-3828694D01*
X2589682Y-3828694D01*
X2594660Y-3823715D01*
X2594660Y-3799535D01*
X2556662Y-3799535D01*
X2556662Y-3766515D01*
X2594660Y-3766515D01*
X2594660Y-3743706D01*
X2589682Y-3738727D01*
G37*
G36*
X1793392Y-4310227D02*
G01*
X1788363Y-4315206D01*
X1788363Y-4338015D01*
X1825396Y-4338015D01*
X1825396Y-4371035D01*
X1788363Y-4371035D01*
X1788363Y-4395216D01*
X1793392Y-4400194D01*
X1873402Y-4400194D01*
X1878380Y-4395216D01*
X1878380Y-4315206D01*
X1873402Y-4310227D01*
G37*
G36*
X1634388Y-4310227D02*
G01*
X1629359Y-4315206D01*
X1629359Y-4395216D01*
X1634388Y-4400194D01*
X1713382Y-4400194D01*
X1718360Y-4395216D01*
X1718360Y-4371035D01*
X1680362Y-4371035D01*
X1680362Y-4338015D01*
X1718360Y-4338015D01*
X1718360Y-4315206D01*
X1713382Y-4310227D01*
G37*
G36*
X2682392Y-4030827D02*
G01*
X2677363Y-4035806D01*
X2677363Y-4058615D01*
X2714396Y-4058615D01*
X2714396Y-4091635D01*
X2677363Y-4091635D01*
X2677363Y-4115815D01*
X2682392Y-4120794D01*
X2762402Y-4120794D01*
X2767380Y-4115815D01*
X2767380Y-4035806D01*
X2762402Y-4030827D01*
G37*
G36*
X2523388Y-4030827D02*
G01*
X2518359Y-4035806D01*
X2518359Y-4115815D01*
X2523388Y-4120794D01*
X2602382Y-4120794D01*
X2607360Y-4115815D01*
X2607360Y-4091635D01*
X2569362Y-4091635D01*
X2569362Y-4058615D01*
X2607360Y-4058615D01*
X2607360Y-4035806D01*
X2602382Y-4030827D01*
G37*
G36*
X2669692Y-4297527D02*
G01*
X2664663Y-4302506D01*
X2664663Y-4325315D01*
X2701696Y-4325315D01*
X2701696Y-4358335D01*
X2664663Y-4358335D01*
X2664663Y-4382516D01*
X2669692Y-4387494D01*
X2749702Y-4387494D01*
X2754680Y-4382516D01*
X2754680Y-4302506D01*
X2749702Y-4297527D01*
G37*
G36*
X2510688Y-4297527D02*
G01*
X2505659Y-4302506D01*
X2505659Y-4382516D01*
X2510688Y-4387494D01*
X2589682Y-4387494D01*
X2594660Y-4382516D01*
X2594660Y-4358335D01*
X2556662Y-4358335D01*
X2556662Y-4325315D01*
X2594660Y-4325315D01*
X2594660Y-4302506D01*
X2589682Y-4297527D01*
G37*
G36*
X5501792Y-4716627D02*
G01*
X5496763Y-4721606D01*
X5496763Y-4744415D01*
X5533796Y-4744415D01*
X5533796Y-4777435D01*
X5496763Y-4777435D01*
X5496763Y-4801616D01*
X5501792Y-4806594D01*
X5581802Y-4806594D01*
X5586780Y-4801616D01*
X5586780Y-4721606D01*
X5581802Y-4716627D01*
G37*
G36*
X5342788Y-4716627D02*
G01*
X5337759Y-4721606D01*
X5337759Y-4801616D01*
X5342788Y-4806594D01*
X5421782Y-4806594D01*
X5426760Y-4801616D01*
X5426760Y-4777435D01*
X5388762Y-4777435D01*
X5388762Y-4744415D01*
X5426760Y-4744415D01*
X5426760Y-4721606D01*
X5421782Y-4716627D01*
G37*
G36*
X5717692Y-5123027D02*
G01*
X5712663Y-5128006D01*
X5712663Y-5150815D01*
X5749696Y-5150815D01*
X5749696Y-5183835D01*
X5712663Y-5183835D01*
X5712663Y-5208016D01*
X5717692Y-5212994D01*
X5797702Y-5212994D01*
X5802680Y-5208016D01*
X5802680Y-5128006D01*
X5797702Y-5123027D01*
G37*
G36*
X5558688Y-5123027D02*
G01*
X5553659Y-5128006D01*
X5553659Y-5208016D01*
X5558688Y-5212994D01*
X5637682Y-5212994D01*
X5642660Y-5208016D01*
X5642660Y-5183835D01*
X5604662Y-5183835D01*
X5604662Y-5150815D01*
X5642660Y-5150815D01*
X5642660Y-5128006D01*
X5637682Y-5123027D01*
G37*
G36*
X5400192Y-5008727D02*
G01*
X5395163Y-5013706D01*
X5395163Y-5036515D01*
X5432196Y-5036515D01*
X5432196Y-5069535D01*
X5395163Y-5069535D01*
X5395163Y-5093716D01*
X5400192Y-5098694D01*
X5480202Y-5098694D01*
X5485180Y-5093716D01*
X5485180Y-5013706D01*
X5480202Y-5008727D01*
G37*
G36*
X5241188Y-5008727D02*
G01*
X5236159Y-5013706D01*
X5236159Y-5093716D01*
X5241188Y-5098694D01*
X5320182Y-5098694D01*
X5325160Y-5093716D01*
X5325160Y-5069535D01*
X5287162Y-5069535D01*
X5287162Y-5036515D01*
X5325160Y-5036515D01*
X5325160Y-5013706D01*
X5320182Y-5008727D01*
G37*
G36*
X4180992Y-4005427D02*
G01*
X4175963Y-4010406D01*
X4175963Y-4033215D01*
X4212996Y-4033215D01*
X4212996Y-4066235D01*
X4175963Y-4066235D01*
X4175963Y-4090415D01*
X4180992Y-4095394D01*
X4261002Y-4095394D01*
X4265980Y-4090415D01*
X4265980Y-4010406D01*
X4261002Y-4005427D01*
G37*
G36*
X4021988Y-4005427D02*
G01*
X4016959Y-4010406D01*
X4016959Y-4090415D01*
X4021988Y-4095394D01*
X4100982Y-4095394D01*
X4105960Y-4090415D01*
X4105960Y-4066235D01*
X4067962Y-4066235D01*
X4067962Y-4033215D01*
X4105960Y-4033215D01*
X4105960Y-4010406D01*
X4100982Y-4005427D01*
G37*
G36*
X4180992Y-3687927D02*
G01*
X4175963Y-3692906D01*
X4175963Y-3715715D01*
X4212996Y-3715715D01*
X4212996Y-3748735D01*
X4175963Y-3748735D01*
X4175963Y-3772915D01*
X4180992Y-3777894D01*
X4261002Y-3777894D01*
X4265980Y-3772915D01*
X4265980Y-3692906D01*
X4261002Y-3687927D01*
G37*
G36*
X4021988Y-3687927D02*
G01*
X4016959Y-3692906D01*
X4016959Y-3772915D01*
X4021988Y-3777894D01*
X4100982Y-3777894D01*
X4105960Y-3772915D01*
X4105960Y-3748735D01*
X4067962Y-3748735D01*
X4067962Y-3715715D01*
X4105960Y-3715715D01*
X4105960Y-3692906D01*
X4100982Y-3687927D01*
G37*
G36*
X2753055Y-4587646D02*
G01*
X2743098Y-4597654D01*
X2743098Y-4633772D01*
X2753055Y-4643780D01*
X2774137Y-4643780D01*
X2784144Y-4653788D01*
X2784144Y-4691634D01*
X2774137Y-4701641D01*
X2753055Y-4701641D01*
X2743098Y-4711649D01*
X2743098Y-4747768D01*
X2753055Y-4757775D01*
X2853842Y-4757775D01*
X2863850Y-4747768D01*
X2863850Y-4597654D01*
X2853842Y-4587646D01*
G37*
G36*
X2457297Y-4587646D02*
G01*
X2447340Y-4597654D01*
X2447340Y-4747768D01*
X2457297Y-4757775D01*
X2558084Y-4757775D01*
X2568092Y-4747768D01*
X2568092Y-4711649D01*
X2558084Y-4701641D01*
X2537002Y-4701641D01*
X2526995Y-4691634D01*
X2526995Y-4653788D01*
X2537002Y-4643780D01*
X2558084Y-4643780D01*
X2568092Y-4633772D01*
X2568092Y-4597654D01*
X2558084Y-4587646D01*
G37*
G36*
X4289755Y-4320946D02*
G01*
X4279798Y-4330954D01*
X4279798Y-4367072D01*
X4289755Y-4377080D01*
X4310837Y-4377080D01*
X4320844Y-4387088D01*
X4320844Y-4424934D01*
X4310837Y-4434941D01*
X4289755Y-4434941D01*
X4279798Y-4444949D01*
X4279798Y-4481068D01*
X4289755Y-4491075D01*
X4390542Y-4491075D01*
X4400550Y-4481068D01*
X4400550Y-4330954D01*
X4390542Y-4320946D01*
G37*
G36*
X3993997Y-4320946D02*
G01*
X3984040Y-4330954D01*
X3984040Y-4481068D01*
X3993997Y-4491075D01*
X4094784Y-4491075D01*
X4104792Y-4481068D01*
X4104792Y-4444949D01*
X4094784Y-4434941D01*
X4073702Y-4434941D01*
X4063695Y-4424934D01*
X4063695Y-4387088D01*
X4073702Y-4377080D01*
X4094784Y-4377080D01*
X4104792Y-4367072D01*
X4104792Y-4330954D01*
X4094784Y-4320946D01*
G37*
D10*
G01*
X2446172Y-5041011D03*
G01*
X2306167Y-5041011D03*
G01*
X2839872Y-5015611D03*
G01*
X2699867Y-5015611D03*
G01*
X5075072Y-5015611D03*
G01*
X4935067Y-5015611D03*
G01*
X4313072Y-4774311D03*
G01*
X4173067Y-4774311D03*
D11*
G01*
X1876700Y-4043813D03*
G01*
X1876700Y-3853813D03*
G01*
X1656449Y-3948813D03*
G01*
X2308500Y-4043813D03*
G01*
X2308500Y-3853813D03*
G01*
X2088249Y-3948813D03*
D12*
G01*
X5227065Y-3889476D03*
G01*
X5037074Y-3889476D03*
G01*
X5132070Y-4109745D03*
D11*
G01*
X4734200Y-3878713D03*
G01*
X4734200Y-3688713D03*
G01*
X4513949Y-3783713D03*
D13*
G01*
X1870562Y-2247263D03*
G01*
X1920562Y-2247263D03*
G01*
X1970562Y-2247263D03*
G01*
X2020562Y-2247263D03*
G01*
X2070562Y-2247263D03*
G01*
X2120562Y-2247263D03*
G01*
X2170562Y-2247263D03*
D14*
G01*
X1870557Y-1865756D03*
G01*
X1920570Y-1865756D03*
G01*
X1970557Y-1865756D03*
G01*
X2020570Y-1865756D03*
G01*
X2070557Y-1865756D03*
G01*
X2120569Y-1865756D03*
G01*
X2170556Y-1865756D03*
D15*
G01*
X2020562Y-2056513D03*
D13*
G01*
X5134462Y-2285363D03*
G01*
X5184462Y-2285363D03*
G01*
X5234462Y-2285363D03*
G01*
X5284462Y-2285363D03*
G01*
X5334462Y-2285363D03*
G01*
X5384462Y-2285363D03*
G01*
X5434462Y-2285363D03*
D14*
G01*
X5134457Y-1903856D03*
G01*
X5184470Y-1903856D03*
G01*
X5234457Y-1903856D03*
G01*
X5284470Y-1903856D03*
G01*
X5334457Y-1903856D03*
G01*
X5384469Y-1903856D03*
G01*
X5434456Y-1903856D03*
D15*
G01*
X5284462Y-2094613D03*
D16*
G01*
X1827072Y-4818506D03*
G01*
X1827072Y-4628514D03*
G01*
X2087092Y-4628514D03*
G01*
X2087092Y-4723511D03*
G01*
X2087092Y-4818506D03*
G01*
X5281472Y-4501006D03*
G01*
X5281472Y-4311014D03*
G01*
X5541492Y-4311014D03*
G01*
X5541492Y-4406011D03*
G01*
X5541492Y-4501006D03*
D17*
G01*
X1862073Y-5321477D03*
G01*
X1957070Y-5321477D03*
G01*
X2052065Y-5321477D03*
D18*
G01*
X2052065Y-5090744D03*
G01*
X1862073Y-5090744D03*
D17*
G01*
X4871974Y-4597577D03*
G01*
X4966970Y-4597577D03*
G01*
X5061965Y-4597577D03*
D18*
G01*
X5061965Y-4366844D03*
G01*
X4871974Y-4366844D03*
M02*
