G04 Layer: TopLayer*
G04 EasyEDA v6.5.29, 2023-07-14 00:53:27*
G04 c58a546ca1a14cb0a5025686437682f6,398929e9e95146ce9e037ed163e1f376,10*
G04 Gerber Generator version 0.2*
G04 Scale: 100 percent, Rotated: No, Reflected: No *
G04 Dimensions in millimeters *
G04 leading zeros omitted , absolute positions ,4 integer and 5 decimal *
%FSLAX45Y45*%
%MOMM*%

%AMMACRO1*21,1,$1,$2,0,0,$3*%
%ADD10C,0.3000*%
%ADD11MACRO1,0.54X0.7901X90.0000*%
%ADD12R,0.8000X0.9000*%
%ADD13MACRO1,0.532X1.0375X90.0000*%
%ADD14R,0.5320X1.0375*%
%ADD15MACRO1,0.864X0.8065X90.0000*%
%ADD16MACRO1,1.701X1.2075X90.0000*%
%ADD17MACRO1,0.665X0.28X90.0000*%
%ADD18R,0.2800X0.6650*%
%ADD19MACRO1,2.6X3X90.0000*%
%ADD20R,1.0000X0.6000*%
%ADD21R,0.4900X1.1570*%
%ADD22R,0.4900X1.1750*%
%ADD23R,1.7000X1.7000*%
%ADD24C,3.0000*%
%ADD25C,0.6096*%
%ADD26C,0.6100*%
%ADD27C,0.0151*%

%LPD*%
G36*
X36169Y-5816092D02*
G01*
X32258Y-5815330D01*
X28956Y-5813094D01*
X26771Y-5809792D01*
X26009Y-5805932D01*
X38506Y-36068D01*
X39319Y-32156D01*
X41503Y-28854D01*
X44805Y-26670D01*
X48666Y-25908D01*
X7075931Y-25908D01*
X7079843Y-26670D01*
X7083094Y-28905D01*
X7085330Y-32156D01*
X7086092Y-36068D01*
X7086092Y-5805932D01*
X7085330Y-5809843D01*
X7083094Y-5813094D01*
X7079843Y-5815330D01*
X7075931Y-5816092D01*
G37*

%LPC*%
G36*
X1919274Y-5564530D02*
G01*
X2870962Y-5564530D01*
X2879445Y-5563666D01*
X2887116Y-5561380D01*
X2894177Y-5557570D01*
X2900730Y-5552186D01*
X2976270Y-5476697D01*
X2981655Y-5470093D01*
X2985414Y-5463032D01*
X2987751Y-5455361D01*
X2988564Y-5446928D01*
X2988564Y-5168442D01*
X2988005Y-5161432D01*
X2985922Y-5153609D01*
X2982366Y-5146395D01*
X2977489Y-5140045D01*
X2971088Y-5134457D01*
X2904845Y-5087061D01*
X2902204Y-5084267D01*
X2900781Y-5080762D01*
X2900781Y-5076952D01*
X2902153Y-5073396D01*
X2903169Y-5071821D01*
X2905048Y-5066385D01*
X2905760Y-5060035D01*
X2905760Y-4971186D01*
X2905048Y-4964887D01*
X2903169Y-4959400D01*
X2900070Y-4954524D01*
X2895955Y-4950409D01*
X2891078Y-4947310D01*
X2885592Y-4945430D01*
X2879293Y-4944719D01*
X2800451Y-4944719D01*
X2794101Y-4945430D01*
X2788666Y-4947310D01*
X2783738Y-4950409D01*
X2779674Y-4954524D01*
X2778455Y-4956403D01*
X2775661Y-4959350D01*
X2771902Y-4960924D01*
X2767838Y-4960924D01*
X2764078Y-4959350D01*
X2761284Y-4956403D01*
X2760065Y-4954524D01*
X2756001Y-4950409D01*
X2751074Y-4947310D01*
X2745638Y-4945430D01*
X2739339Y-4944719D01*
X2726232Y-4944719D01*
X2726232Y-4986782D01*
X2763774Y-4986782D01*
X2767685Y-4987544D01*
X2770987Y-4989728D01*
X2773172Y-4993030D01*
X2773934Y-4996942D01*
X2773934Y-5034280D01*
X2773172Y-5038191D01*
X2770987Y-5041493D01*
X2767685Y-5043678D01*
X2763774Y-5044440D01*
X2726232Y-5044440D01*
X2726232Y-5086502D01*
X2739339Y-5086502D01*
X2745638Y-5085791D01*
X2751074Y-5083911D01*
X2756001Y-5080812D01*
X2760065Y-5076748D01*
X2761284Y-5074869D01*
X2764078Y-5071922D01*
X2767838Y-5070297D01*
X2771902Y-5070297D01*
X2775661Y-5071922D01*
X2778455Y-5074869D01*
X2779674Y-5076748D01*
X2783738Y-5080812D01*
X2788666Y-5083911D01*
X2792577Y-5085283D01*
X2795930Y-5087264D01*
X2798318Y-5090363D01*
X2799334Y-5094173D01*
X2799588Y-5097526D01*
X2801620Y-5105247D01*
X2805176Y-5112461D01*
X2810052Y-5118811D01*
X2816453Y-5124399D01*
X2902508Y-5186019D01*
X2904794Y-5188254D01*
X2906268Y-5191099D01*
X2906776Y-5194249D01*
X2906776Y-5426252D01*
X2906014Y-5430164D01*
X2903778Y-5433466D01*
X2857500Y-5479745D01*
X2854198Y-5481929D01*
X2850337Y-5482691D01*
X1950567Y-5482691D01*
X1946910Y-5482031D01*
X1943709Y-5480050D01*
X1941474Y-5477103D01*
X1911908Y-5417769D01*
X1910842Y-5413959D01*
X1911350Y-5409996D01*
X1913382Y-5406542D01*
X1916531Y-5404104D01*
X1920392Y-5403088D01*
X1924354Y-5403646D01*
X1926843Y-5404510D01*
X1933143Y-5405221D01*
X1938477Y-5405221D01*
X1938477Y-5356758D01*
X1922627Y-5356758D01*
X1918766Y-5355996D01*
X1915464Y-5353812D01*
X1913280Y-5350510D01*
X1912467Y-5346598D01*
X1912467Y-5296357D01*
X1913280Y-5292496D01*
X1915464Y-5289194D01*
X1918766Y-5287010D01*
X1922627Y-5286197D01*
X1938477Y-5286197D01*
X1938477Y-5237734D01*
X1933143Y-5237734D01*
X1926843Y-5238445D01*
X1921357Y-5240375D01*
X1915515Y-5244033D01*
X1912924Y-5245201D01*
X1909064Y-5245608D01*
X1906270Y-5245201D01*
X1903679Y-5244033D01*
X1897786Y-5240375D01*
X1892300Y-5238445D01*
X1886000Y-5237734D01*
X1838147Y-5237734D01*
X1831848Y-5238445D01*
X1826361Y-5240375D01*
X1821484Y-5243423D01*
X1817370Y-5247538D01*
X1814271Y-5252415D01*
X1812391Y-5257901D01*
X1811680Y-5264200D01*
X1811680Y-5378754D01*
X1812391Y-5385104D01*
X1814271Y-5390540D01*
X1817370Y-5395468D01*
X1820367Y-5399532D01*
X1821180Y-5403342D01*
X1821281Y-5412384D01*
X1821992Y-5417667D01*
X1822602Y-5420207D01*
X1824329Y-5425338D01*
X1882241Y-5541568D01*
X1885035Y-5546445D01*
X1886559Y-5548528D01*
X1890166Y-5552643D01*
X1892046Y-5554370D01*
X1896364Y-5557672D01*
X1898548Y-5559044D01*
X1903475Y-5561431D01*
X1905863Y-5562346D01*
X1911146Y-5563768D01*
X1913686Y-5564174D01*
G37*
G36*
X5956808Y-5527294D02*
G01*
X6235395Y-5527294D01*
X6240830Y-5526989D01*
X6243574Y-5526532D01*
X6248654Y-5525211D01*
X6251244Y-5524246D01*
X6255969Y-5521909D01*
X6258306Y-5520486D01*
X6262522Y-5517286D01*
X6264554Y-5515406D01*
X6268008Y-5511444D01*
X6269634Y-5509209D01*
X6272377Y-5504535D01*
X6348018Y-5354320D01*
X6350254Y-5351373D01*
X6353403Y-5349443D01*
X6357061Y-5348732D01*
X6382613Y-5348732D01*
X6386474Y-5349544D01*
X6389776Y-5351729D01*
X6392011Y-5355031D01*
X6392773Y-5358892D01*
X6392773Y-5392166D01*
X6393484Y-5398465D01*
X6395415Y-5403951D01*
X6398463Y-5408828D01*
X6402578Y-5412943D01*
X6407454Y-5415991D01*
X6412941Y-5417921D01*
X6419240Y-5418632D01*
X6588099Y-5418632D01*
X6594449Y-5417921D01*
X6599885Y-5415991D01*
X6604812Y-5412943D01*
X6608876Y-5408828D01*
X6611975Y-5403951D01*
X6613855Y-5398465D01*
X6614566Y-5392166D01*
X6614566Y-5223306D01*
X6613855Y-5216956D01*
X6611975Y-5211521D01*
X6608876Y-5206593D01*
X6604812Y-5202529D01*
X6599885Y-5199430D01*
X6594449Y-5197500D01*
X6588099Y-5196789D01*
X6419240Y-5196789D01*
X6412941Y-5197500D01*
X6407454Y-5199430D01*
X6402578Y-5202529D01*
X6398463Y-5206593D01*
X6395415Y-5211521D01*
X6393484Y-5216956D01*
X6392773Y-5223306D01*
X6392773Y-5256784D01*
X6392011Y-5260644D01*
X6389776Y-5263946D01*
X6386474Y-5266182D01*
X6382613Y-5266944D01*
X6325920Y-5266944D01*
X6320485Y-5267248D01*
X6317742Y-5267706D01*
X6312662Y-5269026D01*
X6310071Y-5269992D01*
X6305346Y-5272328D01*
X6303010Y-5273751D01*
X6298793Y-5276951D01*
X6296761Y-5278831D01*
X6293307Y-5282793D01*
X6291681Y-5285028D01*
X6288938Y-5289702D01*
X6213297Y-5439918D01*
X6211062Y-5442864D01*
X6207912Y-5444794D01*
X6204254Y-5445506D01*
X5990386Y-5445506D01*
X5986475Y-5444744D01*
X5983173Y-5442508D01*
X5980988Y-5439257D01*
X5861812Y-5152390D01*
X5858002Y-5145328D01*
X5852922Y-5139131D01*
X5846775Y-5134051D01*
X5839663Y-5130241D01*
X5832043Y-5127955D01*
X5828080Y-5127548D01*
X5824321Y-5126431D01*
X5821324Y-5123992D01*
X5819394Y-5120640D01*
X5817057Y-5113528D01*
X5814974Y-5110175D01*
X5813501Y-5106162D01*
X5813856Y-5101844D01*
X5815888Y-5098084D01*
X5819343Y-5095544D01*
X5823559Y-5094630D01*
X6184747Y-5094630D01*
X6193231Y-5093766D01*
X6200902Y-5091480D01*
X6207963Y-5087670D01*
X6214516Y-5082286D01*
X6362700Y-4934102D01*
X6366002Y-4931918D01*
X6369913Y-4931105D01*
X6373774Y-4931918D01*
X6377076Y-4934102D01*
X6379311Y-4937404D01*
X6380073Y-4941265D01*
X6380073Y-4947666D01*
X6380784Y-4953965D01*
X6382715Y-4959451D01*
X6385763Y-4964328D01*
X6389878Y-4968443D01*
X6394754Y-4971491D01*
X6400241Y-4973421D01*
X6406540Y-4974132D01*
X6575399Y-4974132D01*
X6581749Y-4973421D01*
X6587185Y-4971491D01*
X6592112Y-4968443D01*
X6596176Y-4964328D01*
X6599275Y-4959451D01*
X6601155Y-4953965D01*
X6601866Y-4947666D01*
X6601866Y-4778806D01*
X6601155Y-4772456D01*
X6599275Y-4767021D01*
X6596176Y-4762093D01*
X6592112Y-4758029D01*
X6587185Y-4754930D01*
X6581749Y-4753000D01*
X6575399Y-4752289D01*
X6406540Y-4752289D01*
X6400241Y-4753000D01*
X6394754Y-4754930D01*
X6389878Y-4758029D01*
X6385763Y-4762093D01*
X6382715Y-4767021D01*
X6380784Y-4772456D01*
X6380073Y-4778806D01*
X6380073Y-4812741D01*
X6379362Y-4816398D01*
X6377432Y-4819548D01*
X6374485Y-4821783D01*
X6370878Y-4822850D01*
X6367780Y-4823155D01*
X6360109Y-4825441D01*
X6353048Y-4829251D01*
X6346494Y-4834636D01*
X6171285Y-5009845D01*
X6167983Y-5012029D01*
X6164122Y-5012791D01*
X5511495Y-5012791D01*
X5507431Y-5011928D01*
X5504027Y-5009540D01*
X5501894Y-5005984D01*
X5499608Y-4999278D01*
X5496509Y-4994402D01*
X5492445Y-4990287D01*
X5487517Y-4987239D01*
X5482082Y-4985308D01*
X5475732Y-4984597D01*
X5396230Y-4984597D01*
X5389930Y-4985308D01*
X5384444Y-4987239D01*
X5379567Y-4990287D01*
X5375452Y-4994402D01*
X5372404Y-4999278D01*
X5370220Y-5005578D01*
X5368036Y-5009134D01*
X5364632Y-5011572D01*
X5360517Y-5012385D01*
X5356453Y-5011470D01*
X5353050Y-5009032D01*
X5350967Y-5005425D01*
X5348935Y-4999228D01*
X5345887Y-4994402D01*
X5341772Y-4990287D01*
X5336895Y-4987239D01*
X5331409Y-4985308D01*
X5325110Y-4984597D01*
X5245608Y-4984597D01*
X5239258Y-4985308D01*
X5233822Y-4987239D01*
X5228894Y-4990287D01*
X5224830Y-4994402D01*
X5221732Y-4999278D01*
X5219446Y-5005832D01*
X5217363Y-5009337D01*
X5214112Y-5011724D01*
X5210149Y-5012639D01*
X5204866Y-5012791D01*
X5200802Y-5012080D01*
X5197398Y-5009845D01*
X5174589Y-4987036D01*
X5167985Y-4981651D01*
X5160924Y-4977841D01*
X5153304Y-4975555D01*
X5149494Y-4975148D01*
X5146192Y-4974234D01*
X5143398Y-4972304D01*
X5141366Y-4969510D01*
X5140248Y-4964887D01*
X5138369Y-4959400D01*
X5135270Y-4954524D01*
X5131155Y-4950409D01*
X5126278Y-4947310D01*
X5122773Y-4946091D01*
X5119217Y-4943957D01*
X5116830Y-4940604D01*
X5115966Y-4936540D01*
X5115966Y-4837633D01*
X5116779Y-4833772D01*
X5122367Y-4825238D01*
X5124297Y-4819751D01*
X5125008Y-4813452D01*
X5125008Y-4760569D01*
X5124297Y-4754270D01*
X5122367Y-4748784D01*
X5119268Y-4743907D01*
X5115204Y-4739792D01*
X5106111Y-4734356D01*
X5103723Y-4731004D01*
X5102860Y-4726940D01*
X5102860Y-4679543D01*
X5103672Y-4675682D01*
X5106670Y-4671568D01*
X5109768Y-4666640D01*
X5111648Y-4661204D01*
X5112359Y-4654854D01*
X5112359Y-4552086D01*
X5113172Y-4548174D01*
X5115356Y-4544872D01*
X5118658Y-4542688D01*
X5122519Y-4541926D01*
X5202377Y-4541926D01*
X5205730Y-4542485D01*
X5208727Y-4544110D01*
X5211267Y-4547108D01*
X5215331Y-4551222D01*
X5220258Y-4554270D01*
X5225694Y-4556201D01*
X5232044Y-4556912D01*
X5330901Y-4556912D01*
X5334762Y-4556455D01*
X5338978Y-4556912D01*
X5342636Y-4558995D01*
X5345125Y-4562398D01*
X5346039Y-4566564D01*
X5346039Y-4684217D01*
X5345176Y-4688281D01*
X5342788Y-4691634D01*
X5339232Y-4693818D01*
X5335422Y-4695139D01*
X5330494Y-4698187D01*
X5326430Y-4702302D01*
X5323332Y-4707178D01*
X5321452Y-4712665D01*
X5320741Y-4718964D01*
X5320741Y-4804257D01*
X5321452Y-4810556D01*
X5323332Y-4816043D01*
X5326430Y-4820920D01*
X5330494Y-4825034D01*
X5335422Y-4828082D01*
X5340858Y-4830013D01*
X5347208Y-4830724D01*
X5426710Y-4830724D01*
X5433009Y-4830013D01*
X5438495Y-4828082D01*
X5443372Y-4825034D01*
X5447487Y-4820920D01*
X5450535Y-4816043D01*
X5452668Y-4809947D01*
X5454802Y-4806391D01*
X5458206Y-4804003D01*
X5462270Y-4803140D01*
X5466334Y-4804003D01*
X5469737Y-4806391D01*
X5471871Y-4809947D01*
X5474004Y-4816043D01*
X5477052Y-4820920D01*
X5481167Y-4825034D01*
X5486044Y-4828082D01*
X5491530Y-4830013D01*
X5497830Y-4830724D01*
X5577332Y-4830724D01*
X5583682Y-4830013D01*
X5589117Y-4828082D01*
X5594045Y-4825034D01*
X5598109Y-4820920D01*
X5601157Y-4816094D01*
X5603494Y-4808982D01*
X5605424Y-4805629D01*
X5608421Y-4803190D01*
X5612180Y-4802073D01*
X5616143Y-4801666D01*
X5623763Y-4799380D01*
X5630875Y-4795570D01*
X5637022Y-4790490D01*
X5642102Y-4784293D01*
X5645912Y-4777232D01*
X5648248Y-4769561D01*
X5649061Y-4761128D01*
X5649061Y-4712208D01*
X5649823Y-4708347D01*
X5652058Y-4705045D01*
X5683605Y-4673447D01*
X5686856Y-4671263D01*
X5690666Y-4670501D01*
X5694527Y-4671161D01*
X5697829Y-4673295D01*
X5829554Y-4799076D01*
X5831890Y-4802428D01*
X5832703Y-4806391D01*
X5832703Y-4935829D01*
X5833414Y-4942128D01*
X5835294Y-4947615D01*
X5838393Y-4952492D01*
X5842508Y-4956606D01*
X5847384Y-4959705D01*
X5852871Y-4961585D01*
X5859170Y-4962296D01*
X6028029Y-4962296D01*
X6034328Y-4961585D01*
X6039815Y-4959705D01*
X6044692Y-4956606D01*
X6048806Y-4952492D01*
X6051905Y-4947615D01*
X6053785Y-4942128D01*
X6054496Y-4935829D01*
X6054496Y-4766970D01*
X6053785Y-4760671D01*
X6051905Y-4755184D01*
X6048806Y-4750308D01*
X6044692Y-4746193D01*
X6039815Y-4743094D01*
X6034328Y-4741214D01*
X6028029Y-4740503D01*
X5890768Y-4740503D01*
X5886958Y-4739741D01*
X5883757Y-4737658D01*
X5718505Y-4579874D01*
X5665622Y-4527042D01*
X5663438Y-4523740D01*
X5662625Y-4519828D01*
X5662625Y-4501489D01*
X5661812Y-4493056D01*
X5659475Y-4485386D01*
X5655716Y-4478324D01*
X5650636Y-4472127D01*
X5644438Y-4467047D01*
X5637377Y-4463237D01*
X5629757Y-4460951D01*
X5623560Y-4460392D01*
X5620004Y-4459427D01*
X5617057Y-4457242D01*
X5615076Y-4454144D01*
X5614314Y-4450537D01*
X5614873Y-4446930D01*
X5616651Y-4441748D01*
X5617362Y-4435449D01*
X5617362Y-4427372D01*
X5572810Y-4427372D01*
X5572810Y-4434941D01*
X5572048Y-4438853D01*
X5569864Y-4442104D01*
X5566562Y-4444339D01*
X5562650Y-4445101D01*
X5520283Y-4445101D01*
X5516372Y-4444339D01*
X5513070Y-4442104D01*
X5510885Y-4438853D01*
X5510123Y-4434941D01*
X5510123Y-4427372D01*
X5465572Y-4427372D01*
X5465572Y-4435449D01*
X5466283Y-4441748D01*
X5468162Y-4447235D01*
X5470093Y-4451604D01*
X5470093Y-4455414D01*
X5468162Y-4459782D01*
X5466283Y-4465269D01*
X5465572Y-4471568D01*
X5465572Y-4530445D01*
X5466283Y-4536744D01*
X5468162Y-4542231D01*
X5471261Y-4547108D01*
X5475325Y-4551222D01*
X5480253Y-4554321D01*
X5485688Y-4556201D01*
X5492038Y-4556912D01*
X5578043Y-4556912D01*
X5581650Y-4557572D01*
X5584748Y-4559452D01*
X5587746Y-4563668D01*
X5593181Y-4570272D01*
X5624931Y-4602073D01*
X5627166Y-4605375D01*
X5627928Y-4609236D01*
X5627166Y-4613148D01*
X5624931Y-4616450D01*
X5579567Y-4661814D01*
X5574182Y-4668367D01*
X5570474Y-4675327D01*
X5567730Y-4685080D01*
X5565698Y-4688941D01*
X5562193Y-4691583D01*
X5557926Y-4692497D01*
X5497830Y-4692497D01*
X5491530Y-4693208D01*
X5486044Y-4695139D01*
X5481167Y-4698187D01*
X5477052Y-4702302D01*
X5474004Y-4707178D01*
X5471871Y-4713274D01*
X5469737Y-4716830D01*
X5466334Y-4719218D01*
X5462270Y-4720082D01*
X5458206Y-4719218D01*
X5454802Y-4716830D01*
X5452668Y-4713274D01*
X5450535Y-4707178D01*
X5447487Y-4702302D01*
X5443372Y-4698187D01*
X5438495Y-4695139D01*
X5434634Y-4693767D01*
X5431078Y-4691634D01*
X5428691Y-4688281D01*
X5427827Y-4684217D01*
X5427827Y-4336745D01*
X5427014Y-4328261D01*
X5424678Y-4320590D01*
X5420918Y-4313529D01*
X5415534Y-4306976D01*
X5390997Y-4282440D01*
X5384393Y-4277055D01*
X5377332Y-4273245D01*
X5369712Y-4270959D01*
X5359654Y-4270095D01*
X5356656Y-4269333D01*
X5354015Y-4267708D01*
X5351678Y-4264914D01*
X5347563Y-4260799D01*
X5342686Y-4257700D01*
X5337200Y-4255820D01*
X5330901Y-4255109D01*
X5232044Y-4255109D01*
X5225745Y-4255820D01*
X5220258Y-4257700D01*
X5218277Y-4258970D01*
X5215128Y-4260291D01*
X5211724Y-4260494D01*
X5208422Y-4259529D01*
X5205679Y-4257548D01*
X5183530Y-4235399D01*
X5176926Y-4230014D01*
X5170982Y-4226814D01*
X5167934Y-4224324D01*
X5166055Y-4220819D01*
X5165699Y-4216857D01*
X5166817Y-4213098D01*
X5169814Y-4207459D01*
X5172151Y-4199839D01*
X5172964Y-4191355D01*
X5172964Y-4187850D01*
X5173776Y-4183938D01*
X5175961Y-4180636D01*
X5178856Y-4177741D01*
X5181955Y-4172813D01*
X5183886Y-4167378D01*
X5184597Y-4161028D01*
X5184597Y-4058412D01*
X5183886Y-4052112D01*
X5181955Y-4046626D01*
X5178856Y-4041749D01*
X5174792Y-4037634D01*
X5169865Y-4034586D01*
X5164429Y-4032656D01*
X5158079Y-4031945D01*
X5106060Y-4031945D01*
X5099710Y-4032656D01*
X5094274Y-4034586D01*
X5089347Y-4037634D01*
X5085283Y-4041749D01*
X5082184Y-4046626D01*
X5080254Y-4052112D01*
X5079542Y-4058412D01*
X5079542Y-4140758D01*
X5078780Y-4144670D01*
X5076596Y-4147972D01*
X5073294Y-4150156D01*
X5069382Y-4150918D01*
X4734306Y-4150918D01*
X4731258Y-4150461D01*
X4728464Y-4149090D01*
X4719777Y-4143044D01*
X4710887Y-4138879D01*
X4701387Y-4136339D01*
X4691634Y-4135475D01*
X4681829Y-4136339D01*
X4672330Y-4138879D01*
X4663440Y-4143044D01*
X4655362Y-4148632D01*
X4648403Y-4155592D01*
X4642815Y-4163669D01*
X4638649Y-4172559D01*
X4636109Y-4182059D01*
X4635246Y-4191863D01*
X4636109Y-4201617D01*
X4638395Y-4210304D01*
X4638700Y-4213961D01*
X4637633Y-4217517D01*
X4635398Y-4220464D01*
X4632248Y-4222394D01*
X4628591Y-4223054D01*
X4573270Y-4223054D01*
X4564837Y-4223918D01*
X4557166Y-4226204D01*
X4550105Y-4230014D01*
X4543501Y-4235399D01*
X4443780Y-4335119D01*
X4440478Y-4337354D01*
X4436618Y-4338116D01*
X4432706Y-4337354D01*
X4429404Y-4335119D01*
X4427220Y-4331868D01*
X4426458Y-4327956D01*
X4426458Y-4321556D01*
X4425746Y-4315206D01*
X4423816Y-4309770D01*
X4420717Y-4304842D01*
X4416653Y-4300778D01*
X4411726Y-4297680D01*
X4406290Y-4295749D01*
X4399940Y-4295038D01*
X4280357Y-4295038D01*
X4274007Y-4295749D01*
X4268571Y-4297680D01*
X4263644Y-4300778D01*
X4259580Y-4304842D01*
X4256481Y-4309770D01*
X4254601Y-4315206D01*
X4253890Y-4321556D01*
X4253890Y-4490516D01*
X4254601Y-4496816D01*
X4256481Y-4502302D01*
X4259580Y-4507179D01*
X4263644Y-4511294D01*
X4268571Y-4514342D01*
X4274007Y-4516272D01*
X4280357Y-4516983D01*
X4399940Y-4516983D01*
X4406290Y-4516272D01*
X4411726Y-4514342D01*
X4416653Y-4511294D01*
X4420717Y-4507179D01*
X4423816Y-4502302D01*
X4425746Y-4496816D01*
X4426458Y-4490516D01*
X4426458Y-4456531D01*
X4427118Y-4452874D01*
X4429048Y-4449673D01*
X4432046Y-4447438D01*
X4435602Y-4446371D01*
X4438751Y-4446066D01*
X4446371Y-4443780D01*
X4453483Y-4439970D01*
X4460036Y-4434586D01*
X4586782Y-4307840D01*
X4590034Y-4305655D01*
X4593945Y-4304893D01*
X4811420Y-4304893D01*
X4815281Y-4305655D01*
X4818583Y-4307840D01*
X4820818Y-4311142D01*
X4821580Y-4315053D01*
X4821580Y-4425035D01*
X4822291Y-4431334D01*
X4824171Y-4436821D01*
X4827270Y-4441698D01*
X4830318Y-4445812D01*
X4831080Y-4449724D01*
X4831080Y-4455312D01*
X4831892Y-4463796D01*
X4834229Y-4471466D01*
X4837988Y-4478528D01*
X4843424Y-4485081D01*
X4854803Y-4496511D01*
X4856937Y-4499610D01*
X4857750Y-4503318D01*
X4857191Y-4507026D01*
X4855311Y-4510328D01*
X4852314Y-4512665D01*
X4848707Y-4513783D01*
X4841697Y-4514545D01*
X4836261Y-4516475D01*
X4831384Y-4519523D01*
X4827270Y-4523638D01*
X4824171Y-4528515D01*
X4822291Y-4534001D01*
X4821580Y-4540300D01*
X4821580Y-4634585D01*
X4820818Y-4638497D01*
X4818583Y-4641799D01*
X4815281Y-4643983D01*
X4811420Y-4644745D01*
X4472482Y-4644745D01*
X4463999Y-4645609D01*
X4456328Y-4647895D01*
X4449267Y-4651705D01*
X4442663Y-4657090D01*
X4387088Y-4712665D01*
X4383786Y-4714849D01*
X4379925Y-4715662D01*
X4376013Y-4714849D01*
X4372711Y-4712665D01*
X4369155Y-4709109D01*
X4364278Y-4706010D01*
X4358792Y-4704130D01*
X4352493Y-4703419D01*
X4273651Y-4703419D01*
X4267301Y-4704130D01*
X4261866Y-4706010D01*
X4256938Y-4709109D01*
X4252874Y-4713224D01*
X4251655Y-4715103D01*
X4248861Y-4718050D01*
X4245102Y-4719624D01*
X4241038Y-4719624D01*
X4237278Y-4718050D01*
X4234484Y-4715103D01*
X4233265Y-4713224D01*
X4229201Y-4709109D01*
X4224274Y-4706010D01*
X4218838Y-4704130D01*
X4212539Y-4703419D01*
X4199432Y-4703419D01*
X4199432Y-4745482D01*
X4236974Y-4745482D01*
X4240885Y-4746244D01*
X4244187Y-4748428D01*
X4246372Y-4751730D01*
X4247134Y-4755642D01*
X4247134Y-4792980D01*
X4246372Y-4796891D01*
X4244187Y-4800193D01*
X4240885Y-4802378D01*
X4236974Y-4803140D01*
X4199432Y-4803140D01*
X4199432Y-4845202D01*
X4212539Y-4845202D01*
X4218838Y-4844491D01*
X4224274Y-4842611D01*
X4229201Y-4839512D01*
X4233265Y-4835448D01*
X4234484Y-4833569D01*
X4237278Y-4830622D01*
X4241038Y-4828997D01*
X4245102Y-4828997D01*
X4248861Y-4830622D01*
X4251655Y-4833569D01*
X4252874Y-4835448D01*
X4256938Y-4839512D01*
X4261866Y-4842611D01*
X4267301Y-4844491D01*
X4273651Y-4845202D01*
X4352493Y-4845202D01*
X4358792Y-4844491D01*
X4364278Y-4842611D01*
X4369155Y-4839512D01*
X4373270Y-4835448D01*
X4376369Y-4830521D01*
X4378248Y-4825085D01*
X4379366Y-4820412D01*
X4381398Y-4817618D01*
X4384192Y-4815687D01*
X4387494Y-4814773D01*
X4391253Y-4814366D01*
X4398924Y-4812080D01*
X4405985Y-4808270D01*
X4412589Y-4802886D01*
X4485944Y-4729530D01*
X4489246Y-4727346D01*
X4493107Y-4726584D01*
X4871466Y-4726584D01*
X4879949Y-4725720D01*
X4882845Y-4724857D01*
X4887315Y-4724552D01*
X4891481Y-4726127D01*
X4894529Y-4729378D01*
X4895900Y-4733594D01*
X4895392Y-4738014D01*
X4893005Y-4741773D01*
X4890871Y-4743907D01*
X4887772Y-4748784D01*
X4885893Y-4754270D01*
X4885182Y-4760569D01*
X4885182Y-4767173D01*
X4924450Y-4767173D01*
X4924450Y-4734102D01*
X4911648Y-4734102D01*
X4905705Y-4734763D01*
X4901387Y-4734356D01*
X4897678Y-4732172D01*
X4895189Y-4728616D01*
X4894376Y-4724400D01*
X4895443Y-4720183D01*
X4898085Y-4716830D01*
X4900879Y-4714544D01*
X4905959Y-4708347D01*
X4909718Y-4701286D01*
X4912055Y-4693666D01*
X4912918Y-4684572D01*
X4914138Y-4680661D01*
X4916830Y-4677511D01*
X4920488Y-4675733D01*
X4924602Y-4675530D01*
X4928463Y-4676952D01*
X4931257Y-4678730D01*
X4936744Y-4680610D01*
X4943043Y-4681321D01*
X4948377Y-4681321D01*
X4948377Y-4632858D01*
X4932527Y-4632858D01*
X4928666Y-4632096D01*
X4925364Y-4629912D01*
X4923180Y-4626610D01*
X4922367Y-4622698D01*
X4922367Y-4572457D01*
X4923180Y-4568596D01*
X4925364Y-4565294D01*
X4928666Y-4563110D01*
X4932527Y-4562297D01*
X4948377Y-4562297D01*
X4948377Y-4533696D01*
X4949139Y-4529836D01*
X4951374Y-4526534D01*
X4954625Y-4524349D01*
X4958943Y-4523536D01*
X4961991Y-4524044D01*
X4964785Y-4525416D01*
X4973421Y-4531461D01*
X4979720Y-4534408D01*
X4982819Y-4536643D01*
X4984851Y-4539843D01*
X4985562Y-4543602D01*
X4985562Y-4562297D01*
X5001412Y-4562297D01*
X5005273Y-4563110D01*
X5008575Y-4565294D01*
X5010810Y-4568596D01*
X5011572Y-4572457D01*
X5011572Y-4622698D01*
X5010810Y-4626610D01*
X5008575Y-4629912D01*
X5005273Y-4632096D01*
X5001412Y-4632858D01*
X4985562Y-4632858D01*
X4985562Y-4681321D01*
X4990896Y-4681321D01*
X4997246Y-4680610D01*
X5002682Y-4678730D01*
X5005527Y-4676952D01*
X5009540Y-4675479D01*
X5013807Y-4675835D01*
X5017617Y-4677918D01*
X5020157Y-4681372D01*
X5021072Y-4685538D01*
X5021072Y-4715154D01*
X5020614Y-4718151D01*
X5019497Y-4721758D01*
X5018989Y-4726940D01*
X5017922Y-4730648D01*
X5015534Y-4733645D01*
X5012232Y-4735525D01*
X5008422Y-4736896D01*
X5005070Y-4737455D01*
X5001717Y-4736896D01*
X4995824Y-4734814D01*
X4989525Y-4734102D01*
X4976672Y-4734102D01*
X4976672Y-4767173D01*
X4983988Y-4767173D01*
X4987899Y-4767935D01*
X4991201Y-4770120D01*
X4993386Y-4773422D01*
X4994148Y-4777333D01*
X4994148Y-4796688D01*
X4993386Y-4800600D01*
X4991201Y-4803902D01*
X4987899Y-4806086D01*
X4983988Y-4806848D01*
X4976672Y-4806848D01*
X4976672Y-4839919D01*
X4989525Y-4839919D01*
X4995824Y-4839208D01*
X5001717Y-4837125D01*
X5005070Y-4836566D01*
X5008422Y-4837125D01*
X5014315Y-4839208D01*
X5020665Y-4839919D01*
X5024018Y-4839919D01*
X5027879Y-4840681D01*
X5031181Y-4842916D01*
X5033416Y-4846218D01*
X5034178Y-4850079D01*
X5034178Y-4936490D01*
X5033314Y-4940554D01*
X5030927Y-4943957D01*
X5027371Y-4946091D01*
X5023866Y-4947310D01*
X5018938Y-4950409D01*
X5014874Y-4954524D01*
X5013655Y-4956403D01*
X5010861Y-4959350D01*
X5007102Y-4960924D01*
X5003038Y-4960924D01*
X4999278Y-4959350D01*
X4996484Y-4956403D01*
X4995265Y-4954524D01*
X4991201Y-4950409D01*
X4986274Y-4947310D01*
X4980838Y-4945430D01*
X4974539Y-4944719D01*
X4961432Y-4944719D01*
X4961432Y-4986782D01*
X4998974Y-4986782D01*
X5002885Y-4987544D01*
X5006187Y-4989728D01*
X5008372Y-4993030D01*
X5009134Y-4996942D01*
X5009134Y-5034280D01*
X5008372Y-5038191D01*
X5006187Y-5041493D01*
X5002885Y-5043678D01*
X4998974Y-5044440D01*
X4961432Y-5044440D01*
X4961432Y-5049621D01*
X4960670Y-5053482D01*
X4958435Y-5056784D01*
X4955184Y-5059019D01*
X4951272Y-5059781D01*
X4918913Y-5059781D01*
X4915001Y-5059019D01*
X4911699Y-5056784D01*
X4909515Y-5053482D01*
X4908753Y-5049621D01*
X4908753Y-5044440D01*
X4869180Y-5044440D01*
X4869180Y-5049621D01*
X4868418Y-5053482D01*
X4866182Y-5056784D01*
X4862880Y-5059019D01*
X4859020Y-5059781D01*
X3223869Y-5059781D01*
X3220821Y-5059324D01*
X3218078Y-5057952D01*
X3209391Y-5051856D01*
X3200501Y-5047691D01*
X3191002Y-5045151D01*
X3181197Y-5044287D01*
X3171393Y-5045151D01*
X3161893Y-5047691D01*
X3153003Y-5051856D01*
X3144977Y-5057495D01*
X3138017Y-5064455D01*
X3132378Y-5072481D01*
X3128213Y-5081371D01*
X3125673Y-5090871D01*
X3124809Y-5100675D01*
X3125673Y-5110480D01*
X3128213Y-5119979D01*
X3132378Y-5128869D01*
X3138017Y-5136896D01*
X3144977Y-5143855D01*
X3153003Y-5149494D01*
X3161893Y-5153660D01*
X3171393Y-5156200D01*
X3181197Y-5157063D01*
X3191002Y-5156200D01*
X3200501Y-5153660D01*
X3209391Y-5149494D01*
X3218027Y-5143449D01*
X3220821Y-5142077D01*
X3223869Y-5141569D01*
X5059730Y-5141569D01*
X5068214Y-5140756D01*
X5075885Y-5138420D01*
X5082946Y-5134660D01*
X5089499Y-5129276D01*
X5138115Y-5080660D01*
X5141417Y-5078425D01*
X5145328Y-5077663D01*
X5149189Y-5078425D01*
X5152491Y-5080660D01*
X5154117Y-5082286D01*
X5160721Y-5087670D01*
X5167782Y-5091480D01*
X5175453Y-5093766D01*
X5183886Y-5094630D01*
X5209844Y-5094630D01*
X5213908Y-5095494D01*
X5217312Y-5097881D01*
X5219446Y-5101488D01*
X5221732Y-5108143D01*
X5224830Y-5113020D01*
X5228894Y-5117134D01*
X5233822Y-5120182D01*
X5239258Y-5122113D01*
X5245608Y-5122824D01*
X5305704Y-5122824D01*
X5309362Y-5123484D01*
X5312511Y-5125466D01*
X5314746Y-5128412D01*
X5318150Y-5139893D01*
X5321909Y-5146954D01*
X5327345Y-5153558D01*
X5370372Y-5196586D01*
X5376926Y-5201970D01*
X5383987Y-5205780D01*
X5391658Y-5208066D01*
X5400141Y-5208930D01*
X5527344Y-5208930D01*
X5531408Y-5209794D01*
X5534812Y-5212181D01*
X5536946Y-5215788D01*
X5539232Y-5222443D01*
X5542330Y-5227320D01*
X5546394Y-5231434D01*
X5551322Y-5234482D01*
X5556758Y-5236413D01*
X5563108Y-5237124D01*
X5642610Y-5237124D01*
X5648909Y-5236413D01*
X5654395Y-5234482D01*
X5659272Y-5231434D01*
X5663387Y-5227320D01*
X5666435Y-5222443D01*
X5668568Y-5216347D01*
X5670702Y-5212791D01*
X5674106Y-5210403D01*
X5678170Y-5209540D01*
X5682234Y-5210403D01*
X5685637Y-5212791D01*
X5687771Y-5216347D01*
X5689904Y-5222443D01*
X5692952Y-5227320D01*
X5697067Y-5231434D01*
X5701944Y-5234482D01*
X5707430Y-5236413D01*
X5713730Y-5237124D01*
X5793232Y-5237124D01*
X5800090Y-5236362D01*
X5804408Y-5236819D01*
X5808116Y-5239004D01*
X5810605Y-5242560D01*
X5918352Y-5501640D01*
X5922314Y-5509107D01*
X5927394Y-5515305D01*
X5933592Y-5520385D01*
X5940653Y-5524144D01*
X5948324Y-5526481D01*
G37*
G36*
X2647340Y-5431332D02*
G01*
X2816199Y-5431332D01*
X2822549Y-5430621D01*
X2827985Y-5428691D01*
X2832912Y-5425643D01*
X2836976Y-5421528D01*
X2840075Y-5416651D01*
X2841955Y-5411165D01*
X2842666Y-5404866D01*
X2842666Y-5236006D01*
X2841955Y-5229656D01*
X2840075Y-5224221D01*
X2836976Y-5219293D01*
X2832912Y-5215229D01*
X2827985Y-5212130D01*
X2822549Y-5210200D01*
X2816199Y-5209489D01*
X2647340Y-5209489D01*
X2641041Y-5210200D01*
X2635554Y-5212130D01*
X2630678Y-5215229D01*
X2626563Y-5219293D01*
X2623515Y-5224221D01*
X2621584Y-5229656D01*
X2620873Y-5236006D01*
X2620873Y-5269331D01*
X2620111Y-5273243D01*
X2617876Y-5276545D01*
X2614574Y-5278729D01*
X2610713Y-5279491D01*
X2471420Y-5279491D01*
X2467508Y-5278729D01*
X2464206Y-5276545D01*
X2460904Y-5273192D01*
X2455976Y-5270144D01*
X2452624Y-5268925D01*
X2449322Y-5267045D01*
X2446934Y-5263997D01*
X2445867Y-5260340D01*
X2445308Y-5254599D01*
X2445816Y-5250180D01*
X2448204Y-5246420D01*
X2474772Y-5219852D01*
X2480157Y-5213299D01*
X2483916Y-5206238D01*
X2486253Y-5198567D01*
X2487066Y-5190083D01*
X2487066Y-5120132D01*
X2487930Y-5116068D01*
X2490317Y-5112664D01*
X2493873Y-5110530D01*
X2497378Y-5109311D01*
X2502255Y-5106212D01*
X2506370Y-5102148D01*
X2509469Y-5097221D01*
X2511348Y-5091785D01*
X2512060Y-5085435D01*
X2512060Y-4996586D01*
X2511348Y-4990287D01*
X2509469Y-4984800D01*
X2506370Y-4979924D01*
X2502255Y-4975809D01*
X2497378Y-4972710D01*
X2491892Y-4970830D01*
X2485593Y-4970119D01*
X2406751Y-4970119D01*
X2400401Y-4970830D01*
X2394966Y-4972710D01*
X2390038Y-4975809D01*
X2385974Y-4979924D01*
X2384755Y-4981803D01*
X2381961Y-4984750D01*
X2378202Y-4986324D01*
X2374138Y-4986324D01*
X2370378Y-4984750D01*
X2367584Y-4981803D01*
X2366365Y-4979924D01*
X2362301Y-4975809D01*
X2357374Y-4972710D01*
X2351938Y-4970830D01*
X2345639Y-4970119D01*
X2332532Y-4970119D01*
X2332532Y-5012182D01*
X2370074Y-5012182D01*
X2373985Y-5012944D01*
X2377287Y-5015128D01*
X2379472Y-5018430D01*
X2380234Y-5022342D01*
X2380234Y-5059680D01*
X2379472Y-5063591D01*
X2377287Y-5066893D01*
X2373985Y-5069078D01*
X2370074Y-5069840D01*
X2332532Y-5069840D01*
X2332532Y-5111902D01*
X2345639Y-5111902D01*
X2351938Y-5111191D01*
X2357374Y-5109311D01*
X2362301Y-5106212D01*
X2366365Y-5102148D01*
X2367584Y-5100269D01*
X2370378Y-5097322D01*
X2374138Y-5095697D01*
X2378202Y-5095697D01*
X2381961Y-5097322D01*
X2384755Y-5100269D01*
X2385974Y-5102148D01*
X2390038Y-5106212D01*
X2394966Y-5109311D01*
X2398471Y-5110530D01*
X2402027Y-5112664D01*
X2404414Y-5116068D01*
X2405278Y-5120132D01*
X2405278Y-5169458D01*
X2404516Y-5173319D01*
X2402281Y-5176621D01*
X2375458Y-5203444D01*
X2372156Y-5205679D01*
X2368296Y-5206441D01*
X2103120Y-5206441D01*
X2099259Y-5205679D01*
X2095957Y-5203444D01*
X2093772Y-5200142D01*
X2092960Y-5196281D01*
X2092960Y-5173624D01*
X2093772Y-5169712D01*
X2096770Y-5165598D01*
X2099868Y-5160721D01*
X2101748Y-5155234D01*
X2102459Y-5148935D01*
X2102459Y-5032552D01*
X2101748Y-5026253D01*
X2099868Y-5020767D01*
X2096770Y-5015890D01*
X2092706Y-5011775D01*
X2087778Y-5008727D01*
X2082342Y-5006797D01*
X2075992Y-5006086D01*
X2028139Y-5006086D01*
X2021839Y-5006797D01*
X2016353Y-5008727D01*
X2011476Y-5011775D01*
X2007362Y-5015890D01*
X2004314Y-5020767D01*
X2002383Y-5026253D01*
X2001672Y-5032552D01*
X2001672Y-5148935D01*
X2002383Y-5155234D01*
X2004314Y-5160721D01*
X2007362Y-5165598D01*
X2010410Y-5169712D01*
X2011172Y-5173624D01*
X2011172Y-5233517D01*
X2010257Y-5237734D01*
X2007717Y-5241188D01*
X2003907Y-5243271D01*
X1999640Y-5243576D01*
X1995627Y-5242102D01*
X1992782Y-5240375D01*
X1987346Y-5238445D01*
X1980996Y-5237734D01*
X1975662Y-5237734D01*
X1975662Y-5286197D01*
X1991512Y-5286197D01*
X1995373Y-5287010D01*
X1998675Y-5289194D01*
X2000910Y-5292496D01*
X2001672Y-5296357D01*
X2001672Y-5346598D01*
X2000910Y-5350510D01*
X1998675Y-5353812D01*
X1995373Y-5355996D01*
X1991512Y-5356758D01*
X1975662Y-5356758D01*
X1975662Y-5405221D01*
X1980996Y-5405221D01*
X1987346Y-5404510D01*
X1992782Y-5402630D01*
X1998675Y-5398922D01*
X2001266Y-5397754D01*
X2005075Y-5397398D01*
X2007920Y-5397754D01*
X2010511Y-5398922D01*
X2016353Y-5402630D01*
X2021839Y-5404510D01*
X2028139Y-5405221D01*
X2075992Y-5405221D01*
X2082342Y-5404510D01*
X2087778Y-5402630D01*
X2092706Y-5399532D01*
X2096770Y-5395468D01*
X2099868Y-5390540D01*
X2101748Y-5385104D01*
X2102459Y-5378754D01*
X2102459Y-5298389D01*
X2103272Y-5294528D01*
X2105456Y-5291226D01*
X2108758Y-5289042D01*
X2112619Y-5288229D01*
X2220722Y-5288229D01*
X2224582Y-5289042D01*
X2227884Y-5291226D01*
X2230069Y-5294528D01*
X2230831Y-5298389D01*
X2230831Y-5300573D01*
X2270150Y-5300573D01*
X2270150Y-5298389D01*
X2270963Y-5294528D01*
X2273147Y-5291226D01*
X2276449Y-5289042D01*
X2280310Y-5288229D01*
X2312212Y-5288229D01*
X2316124Y-5289042D01*
X2319375Y-5291226D01*
X2321610Y-5294528D01*
X2322372Y-5298389D01*
X2322372Y-5300573D01*
X2329688Y-5300573D01*
X2333599Y-5301335D01*
X2336901Y-5303520D01*
X2339086Y-5306822D01*
X2339848Y-5310733D01*
X2339848Y-5330088D01*
X2339086Y-5334000D01*
X2336901Y-5337302D01*
X2333599Y-5339486D01*
X2329688Y-5340248D01*
X2322372Y-5340248D01*
X2322372Y-5373319D01*
X2335225Y-5373319D01*
X2341524Y-5372608D01*
X2347417Y-5370525D01*
X2350770Y-5369966D01*
X2354122Y-5370525D01*
X2360015Y-5372608D01*
X2366365Y-5373319D01*
X2444191Y-5373319D01*
X2450541Y-5372608D01*
X2455976Y-5370677D01*
X2460904Y-5367629D01*
X2464206Y-5364276D01*
X2467508Y-5362092D01*
X2471420Y-5361330D01*
X2610713Y-5361330D01*
X2614574Y-5362092D01*
X2617876Y-5364276D01*
X2620111Y-5367578D01*
X2620873Y-5371490D01*
X2620873Y-5404866D01*
X2621584Y-5411165D01*
X2623515Y-5416651D01*
X2626563Y-5421528D01*
X2630678Y-5425643D01*
X2635554Y-5428691D01*
X2641041Y-5430621D01*
G37*
G36*
X2257348Y-5373319D02*
G01*
X2270150Y-5373319D01*
X2270150Y-5340248D01*
X2230831Y-5340248D01*
X2230831Y-5346852D01*
X2231593Y-5353151D01*
X2233472Y-5358638D01*
X2236571Y-5363514D01*
X2240635Y-5367629D01*
X2245563Y-5370677D01*
X2250998Y-5372608D01*
G37*
G36*
X6025540Y-5355132D02*
G01*
X6194399Y-5355132D01*
X6200749Y-5354421D01*
X6206185Y-5352491D01*
X6211112Y-5349443D01*
X6215176Y-5345328D01*
X6218275Y-5340451D01*
X6220155Y-5334965D01*
X6220866Y-5328666D01*
X6220866Y-5159806D01*
X6220155Y-5153456D01*
X6218275Y-5148021D01*
X6215176Y-5143093D01*
X6211112Y-5139029D01*
X6206185Y-5135930D01*
X6200749Y-5134000D01*
X6194399Y-5133289D01*
X6025540Y-5133289D01*
X6019241Y-5134000D01*
X6013754Y-5135930D01*
X6008878Y-5139029D01*
X6004763Y-5143093D01*
X6001715Y-5148021D01*
X5999784Y-5153456D01*
X5999073Y-5159806D01*
X5999073Y-5328666D01*
X5999784Y-5334965D01*
X6001715Y-5340451D01*
X6004763Y-5345328D01*
X6008878Y-5349443D01*
X6013754Y-5352491D01*
X6019241Y-5354421D01*
G37*
G36*
X932840Y-5304332D02*
G01*
X1101699Y-5304332D01*
X1108049Y-5303621D01*
X1113485Y-5301691D01*
X1118412Y-5298643D01*
X1122476Y-5294528D01*
X1125575Y-5289651D01*
X1127455Y-5284165D01*
X1128166Y-5277866D01*
X1128166Y-5109006D01*
X1127455Y-5102656D01*
X1125575Y-5097221D01*
X1122476Y-5092293D01*
X1118412Y-5088229D01*
X1113485Y-5085130D01*
X1108049Y-5083200D01*
X1101699Y-5082489D01*
X932840Y-5082489D01*
X926541Y-5083200D01*
X921054Y-5085130D01*
X916178Y-5088229D01*
X912063Y-5092293D01*
X909015Y-5097221D01*
X907084Y-5102656D01*
X906373Y-5109006D01*
X906373Y-5277866D01*
X907084Y-5284165D01*
X909015Y-5289651D01*
X912063Y-5294528D01*
X916178Y-5298643D01*
X921054Y-5301691D01*
X926541Y-5303621D01*
G37*
G36*
X437540Y-5304332D02*
G01*
X606399Y-5304332D01*
X612749Y-5303621D01*
X618185Y-5301691D01*
X623112Y-5298643D01*
X627176Y-5294528D01*
X630275Y-5289651D01*
X632155Y-5284165D01*
X632866Y-5277866D01*
X632866Y-5109006D01*
X632155Y-5102656D01*
X630275Y-5097221D01*
X627176Y-5092293D01*
X623112Y-5088229D01*
X618185Y-5085130D01*
X612749Y-5083200D01*
X606399Y-5082489D01*
X437540Y-5082489D01*
X431241Y-5083200D01*
X425754Y-5085130D01*
X420878Y-5088229D01*
X416763Y-5092293D01*
X413715Y-5097221D01*
X411784Y-5102656D01*
X411073Y-5109006D01*
X411073Y-5277866D01*
X411784Y-5284165D01*
X413715Y-5289651D01*
X416763Y-5294528D01*
X420878Y-5298643D01*
X425754Y-5301691D01*
X431241Y-5303621D01*
G37*
G36*
X1838147Y-5175402D02*
G01*
X1886000Y-5175402D01*
X1892300Y-5174691D01*
X1897786Y-5172760D01*
X1902663Y-5169712D01*
X1906778Y-5165598D01*
X1909876Y-5160721D01*
X1911756Y-5155234D01*
X1912467Y-5148935D01*
X1912467Y-5032552D01*
X1911756Y-5026253D01*
X1909876Y-5020767D01*
X1906778Y-5015890D01*
X1903780Y-5011775D01*
X1902968Y-5007864D01*
X1902968Y-5002276D01*
X1902155Y-4993792D01*
X1899818Y-4986121D01*
X1896059Y-4979060D01*
X1890623Y-4972507D01*
X1809902Y-4891735D01*
X1807718Y-4888433D01*
X1806905Y-4884572D01*
X1807718Y-4880660D01*
X1809902Y-4877358D01*
X1813204Y-4875174D01*
X1817065Y-4874412D01*
X1876501Y-4874412D01*
X1882800Y-4873701D01*
X1888286Y-4871770D01*
X1893163Y-4868722D01*
X1897278Y-4864608D01*
X1900529Y-4860848D01*
X1904187Y-4859223D01*
X1908149Y-4859121D01*
X1911857Y-4860594D01*
X1914753Y-4863338D01*
X1918309Y-4868468D01*
X1925269Y-4875428D01*
X1933346Y-4881016D01*
X1942236Y-4885182D01*
X1951736Y-4887722D01*
X1961540Y-4888585D01*
X1971293Y-4887722D01*
X1980793Y-4885182D01*
X1989683Y-4881016D01*
X1997760Y-4875428D01*
X2000910Y-4872685D01*
X2003145Y-4871669D01*
X2008784Y-4869992D01*
X2011222Y-4868672D01*
X2014626Y-4867554D01*
X2018131Y-4867706D01*
X2021433Y-4869027D01*
X2025853Y-4871821D01*
X2031288Y-4873701D01*
X2037638Y-4874412D01*
X2136495Y-4874412D01*
X2142794Y-4873701D01*
X2148281Y-4871821D01*
X2153158Y-4868722D01*
X2157272Y-4864608D01*
X2160371Y-4859731D01*
X2162251Y-4854244D01*
X2162962Y-4847945D01*
X2162962Y-4789068D01*
X2162251Y-4782769D01*
X2160371Y-4777282D01*
X2158441Y-4772914D01*
X2158441Y-4769104D01*
X2160371Y-4764735D01*
X2162251Y-4759248D01*
X2162962Y-4752949D01*
X2162962Y-4744872D01*
X2118410Y-4744872D01*
X2118410Y-4752441D01*
X2117648Y-4756353D01*
X2115464Y-4759604D01*
X2112162Y-4761839D01*
X2108250Y-4762601D01*
X2065883Y-4762601D01*
X2061972Y-4761839D01*
X2058670Y-4759604D01*
X2056485Y-4756353D01*
X2055723Y-4752441D01*
X2055723Y-4744872D01*
X2011172Y-4744872D01*
X2011172Y-4752949D01*
X2011883Y-4759248D01*
X2013661Y-4764430D01*
X2014220Y-4768037D01*
X2013457Y-4771644D01*
X2011476Y-4774742D01*
X2008530Y-4776927D01*
X2004974Y-4777892D01*
X1998878Y-4778451D01*
X1990598Y-4780940D01*
X1986940Y-4781346D01*
X1983333Y-4780432D01*
X1980793Y-4779264D01*
X1971293Y-4776724D01*
X1961540Y-4775860D01*
X1951736Y-4776724D01*
X1942236Y-4779264D01*
X1933346Y-4783429D01*
X1925269Y-4789017D01*
X1920138Y-4794199D01*
X1917039Y-4796282D01*
X1913331Y-4797145D01*
X1909622Y-4796586D01*
X1906320Y-4794707D01*
X1903984Y-4791760D01*
X1902866Y-4788154D01*
X1902104Y-4781600D01*
X1902358Y-4777994D01*
X1903831Y-4774692D01*
X1906371Y-4772101D01*
X1914093Y-4766716D01*
X1921052Y-4759756D01*
X1926691Y-4751679D01*
X1930857Y-4742789D01*
X1933397Y-4733290D01*
X1933752Y-4728819D01*
X1934667Y-4725416D01*
X1936699Y-4722520D01*
X1986838Y-4672380D01*
X1990140Y-4670196D01*
X1994052Y-4669434D01*
X2003958Y-4669434D01*
X2007768Y-4670145D01*
X2010968Y-4672228D01*
X2013204Y-4675378D01*
X2014118Y-4679137D01*
X2013559Y-4682947D01*
X2011883Y-4687773D01*
X2011172Y-4694072D01*
X2011172Y-4702149D01*
X2055723Y-4702149D01*
X2055723Y-4694580D01*
X2056485Y-4690719D01*
X2058670Y-4687417D01*
X2061972Y-4685182D01*
X2065883Y-4684420D01*
X2108250Y-4684420D01*
X2112162Y-4685182D01*
X2115464Y-4687417D01*
X2117648Y-4690719D01*
X2118410Y-4694580D01*
X2118410Y-4702149D01*
X2162962Y-4702149D01*
X2162962Y-4694072D01*
X2162251Y-4687773D01*
X2160371Y-4682286D01*
X2158441Y-4677918D01*
X2158441Y-4674108D01*
X2160371Y-4669739D01*
X2162251Y-4664252D01*
X2162962Y-4657953D01*
X2162962Y-4612944D01*
X2163775Y-4609084D01*
X2165959Y-4605782D01*
X2169261Y-4603597D01*
X2173122Y-4602784D01*
X2264410Y-4602784D01*
X2272893Y-4601972D01*
X2280564Y-4599635D01*
X2287625Y-4595876D01*
X2294229Y-4590491D01*
X2481376Y-4403293D01*
X2484678Y-4401058D01*
X2488590Y-4400296D01*
X2492451Y-4401058D01*
X2495753Y-4403293D01*
X2498394Y-4405934D01*
X2503322Y-4408982D01*
X2508758Y-4410913D01*
X2515108Y-4411624D01*
X2545994Y-4411624D01*
X2550058Y-4412488D01*
X2553462Y-4414875D01*
X2555595Y-4418431D01*
X2556154Y-4422546D01*
X2554986Y-4426508D01*
X2552344Y-4429709D01*
X2548636Y-4431588D01*
X2542540Y-4433214D01*
X2533650Y-4437380D01*
X2525572Y-4443018D01*
X2518613Y-4449978D01*
X2513025Y-4458004D01*
X2508859Y-4466894D01*
X2506319Y-4476394D01*
X2505456Y-4486198D01*
X2506319Y-4496003D01*
X2508859Y-4505502D01*
X2513025Y-4514392D01*
X2518613Y-4522419D01*
X2525572Y-4529378D01*
X2533650Y-4535017D01*
X2542540Y-4539183D01*
X2552293Y-4541774D01*
X2556002Y-4543653D01*
X2558643Y-4546854D01*
X2559812Y-4550816D01*
X2559253Y-4554931D01*
X2557119Y-4558487D01*
X2553716Y-4560925D01*
X2549652Y-4561738D01*
X2447899Y-4561738D01*
X2441549Y-4562449D01*
X2436114Y-4564380D01*
X2431186Y-4567478D01*
X2427122Y-4571542D01*
X2424023Y-4576470D01*
X2422144Y-4581906D01*
X2421432Y-4588256D01*
X2421432Y-4757216D01*
X2422144Y-4763516D01*
X2424023Y-4769002D01*
X2427122Y-4773879D01*
X2431186Y-4777994D01*
X2436114Y-4781042D01*
X2441549Y-4782972D01*
X2447899Y-4783683D01*
X2567482Y-4783683D01*
X2573832Y-4782972D01*
X2579268Y-4781042D01*
X2584196Y-4777994D01*
X2588260Y-4773879D01*
X2591358Y-4769002D01*
X2593289Y-4763516D01*
X2594000Y-4757216D01*
X2594000Y-4750765D01*
X2594762Y-4746904D01*
X2596946Y-4743602D01*
X2600248Y-4741367D01*
X2604160Y-4740605D01*
X2608021Y-4741367D01*
X2611323Y-4743602D01*
X2684475Y-4816703D01*
X2691028Y-4822139D01*
X2698089Y-4825898D01*
X2705760Y-4828235D01*
X2714244Y-4829048D01*
X2884982Y-4829048D01*
X2893415Y-4828235D01*
X2901086Y-4825898D01*
X2908147Y-4822139D01*
X2914751Y-4816703D01*
X2938373Y-4793081D01*
X2943809Y-4786477D01*
X2947568Y-4779416D01*
X2949905Y-4771745D01*
X2950718Y-4763312D01*
X2950718Y-4338777D01*
X2949905Y-4330293D01*
X2947568Y-4322622D01*
X2945231Y-4318304D01*
X2944063Y-4314342D01*
X2944571Y-4310278D01*
X2946654Y-4306722D01*
X2949905Y-4304284D01*
X2953918Y-4303318D01*
X2957982Y-4304030D01*
X2961386Y-4306316D01*
X3122371Y-4467301D01*
X3124403Y-4470146D01*
X3125317Y-4473600D01*
X3125673Y-4478070D01*
X3128213Y-4487570D01*
X3132378Y-4496460D01*
X3138017Y-4504486D01*
X3144977Y-4511446D01*
X3153003Y-4517085D01*
X3161893Y-4521250D01*
X3171393Y-4523790D01*
X3181197Y-4524654D01*
X3191002Y-4523790D01*
X3200501Y-4521250D01*
X3209391Y-4517085D01*
X3217418Y-4511446D01*
X3224377Y-4504486D01*
X3230016Y-4496460D01*
X3234182Y-4487570D01*
X3236722Y-4478070D01*
X3237585Y-4468266D01*
X3236722Y-4458462D01*
X3234182Y-4448962D01*
X3230016Y-4440072D01*
X3224377Y-4432046D01*
X3217418Y-4425086D01*
X3209391Y-4419447D01*
X3200501Y-4415282D01*
X3191002Y-4412742D01*
X3186531Y-4412386D01*
X3183077Y-4411472D01*
X3180232Y-4409440D01*
X2834995Y-4064203D01*
X2832760Y-4060901D01*
X2831998Y-4056989D01*
X2832760Y-4053128D01*
X2834995Y-4049826D01*
X3011881Y-3872890D01*
X3015183Y-3870706D01*
X3019094Y-3869944D01*
X3974287Y-3869944D01*
X3978148Y-3870706D01*
X3981450Y-3872890D01*
X4072534Y-3963974D01*
X4074718Y-3967276D01*
X4075480Y-3971137D01*
X4074718Y-3975049D01*
X4072534Y-3978351D01*
X4069232Y-3980535D01*
X4065320Y-3981297D01*
X4026408Y-3981297D01*
X4020058Y-3982008D01*
X4014622Y-3983939D01*
X4009694Y-3986987D01*
X4005630Y-3991101D01*
X4002582Y-3995928D01*
X4000246Y-4003040D01*
X3998315Y-4006392D01*
X3995318Y-4008831D01*
X3991610Y-4009948D01*
X3987647Y-4010355D01*
X3979976Y-4012641D01*
X3972915Y-4016451D01*
X3966311Y-4021836D01*
X3925011Y-4063187D01*
X3919575Y-4069740D01*
X3915816Y-4076801D01*
X3913479Y-4084472D01*
X3912666Y-4092956D01*
X3912666Y-4687366D01*
X3913479Y-4695799D01*
X3915816Y-4703470D01*
X3919575Y-4710531D01*
X3925011Y-4717135D01*
X4146092Y-4938268D01*
X4152696Y-4943652D01*
X4159758Y-4947412D01*
X4167428Y-4949748D01*
X4175861Y-4950561D01*
X4799177Y-4950561D01*
X4802276Y-4951069D01*
X4805019Y-4952441D01*
X4813706Y-4958486D01*
X4822596Y-4962652D01*
X4832096Y-4965192D01*
X4841900Y-4966055D01*
X4851654Y-4965192D01*
X4856378Y-4963922D01*
X4860086Y-4963617D01*
X4863642Y-4964684D01*
X4866589Y-4966919D01*
X4868519Y-4970068D01*
X4869180Y-4973726D01*
X4869180Y-4986782D01*
X4908753Y-4986782D01*
X4908753Y-4944719D01*
X4903470Y-4944719D01*
X4899456Y-4943906D01*
X4896154Y-4941620D01*
X4893970Y-4938166D01*
X4893310Y-4934204D01*
X4897374Y-4919472D01*
X4898237Y-4909667D01*
X4897374Y-4899863D01*
X4894834Y-4890363D01*
X4890668Y-4881473D01*
X4885080Y-4873447D01*
X4878120Y-4866487D01*
X4870043Y-4860848D01*
X4861153Y-4856683D01*
X4851654Y-4854143D01*
X4841900Y-4853279D01*
X4832096Y-4854143D01*
X4822596Y-4856683D01*
X4813706Y-4860848D01*
X4805019Y-4866944D01*
X4802225Y-4868316D01*
X4799177Y-4868773D01*
X4196537Y-4868773D01*
X4192625Y-4868011D01*
X4189374Y-4865776D01*
X4186123Y-4862576D01*
X4184497Y-4860137D01*
X4182110Y-4858512D01*
X4149699Y-4826152D01*
X4147515Y-4822850D01*
X4146753Y-4818938D01*
X4146753Y-4803140D01*
X4130954Y-4803140D01*
X4127042Y-4802378D01*
X4123740Y-4800193D01*
X3997451Y-4673904D01*
X3995267Y-4670602D01*
X3994454Y-4666691D01*
X3994454Y-4527143D01*
X3995267Y-4523232D01*
X3997451Y-4519930D01*
X4000754Y-4517745D01*
X4004614Y-4516983D01*
X4104182Y-4516983D01*
X4110532Y-4516272D01*
X4115968Y-4514342D01*
X4120896Y-4511294D01*
X4124960Y-4507179D01*
X4128058Y-4502302D01*
X4129989Y-4496816D01*
X4130700Y-4490516D01*
X4130700Y-4321556D01*
X4129989Y-4315206D01*
X4128058Y-4309770D01*
X4124960Y-4304842D01*
X4120896Y-4300778D01*
X4115968Y-4297680D01*
X4110532Y-4295749D01*
X4105097Y-4294378D01*
X4102100Y-4291888D01*
X4100271Y-4288485D01*
X4099864Y-4284573D01*
X4100779Y-4274108D01*
X4099915Y-4264304D01*
X4097375Y-4254804D01*
X4093210Y-4245914D01*
X4087571Y-4237888D01*
X4080611Y-4230928D01*
X4072585Y-4225290D01*
X4063695Y-4221124D01*
X4054195Y-4218584D01*
X4044391Y-4217720D01*
X4034586Y-4218584D01*
X4025087Y-4221124D01*
X4016197Y-4225290D01*
X4010456Y-4229303D01*
X4006392Y-4230979D01*
X4002024Y-4230827D01*
X3998112Y-4228795D01*
X3995420Y-4225290D01*
X3994454Y-4220972D01*
X3994454Y-4122623D01*
X3995369Y-4118406D01*
X3997960Y-4114952D01*
X4001719Y-4112920D01*
X4005986Y-4112564D01*
X4010050Y-4114037D01*
X4014622Y-4116882D01*
X4020058Y-4118813D01*
X4026408Y-4119524D01*
X4105910Y-4119524D01*
X4112209Y-4118813D01*
X4117695Y-4116882D01*
X4122572Y-4113834D01*
X4126687Y-4109720D01*
X4129735Y-4104843D01*
X4131970Y-4098544D01*
X4134104Y-4094987D01*
X4137558Y-4092600D01*
X4141622Y-4091736D01*
X4145686Y-4092651D01*
X4149090Y-4095089D01*
X4151172Y-4098696D01*
X4153255Y-4104894D01*
X4156252Y-4109720D01*
X4160367Y-4113834D01*
X4165244Y-4116882D01*
X4170730Y-4118813D01*
X4177029Y-4119524D01*
X4256532Y-4119524D01*
X4262882Y-4118813D01*
X4268317Y-4116882D01*
X4273245Y-4113834D01*
X4277309Y-4109720D01*
X4280408Y-4104843D01*
X4282338Y-4099356D01*
X4283049Y-4093057D01*
X4283049Y-4007764D01*
X4282338Y-4001465D01*
X4280408Y-3995978D01*
X4277309Y-3991101D01*
X4273245Y-3986987D01*
X4268317Y-3983939D01*
X4262882Y-3982008D01*
X4256532Y-3981297D01*
X4196486Y-3981297D01*
X4192828Y-3980637D01*
X4189628Y-3978656D01*
X4187393Y-3975709D01*
X4183989Y-3964228D01*
X4180230Y-3957167D01*
X4174845Y-3950563D01*
X4043629Y-3819347D01*
X4041394Y-3816045D01*
X4040632Y-3812184D01*
X4041394Y-3808272D01*
X4043629Y-3805021D01*
X4046931Y-3802786D01*
X4050792Y-3802024D01*
X4086504Y-3802024D01*
X4090162Y-3802684D01*
X4093311Y-3804665D01*
X4095546Y-3807612D01*
X4098950Y-3819093D01*
X4102709Y-3826154D01*
X4108145Y-3832758D01*
X4110532Y-3835146D01*
X4117035Y-3840479D01*
X4124096Y-3844290D01*
X4131767Y-3846576D01*
X4140250Y-3847439D01*
X4408525Y-3847439D01*
X4417009Y-3846576D01*
X4424680Y-3844290D01*
X4431741Y-3840479D01*
X4438700Y-3834790D01*
X4442409Y-3832860D01*
X4447844Y-3832758D01*
X4449775Y-3833215D01*
X4456328Y-3835501D01*
X4462627Y-3836212D01*
X4565243Y-3836212D01*
X4571593Y-3835501D01*
X4577029Y-3833622D01*
X4581956Y-3830523D01*
X4586020Y-3826408D01*
X4589119Y-3821531D01*
X4590999Y-3816045D01*
X4591710Y-3809746D01*
X4591710Y-3757676D01*
X4590999Y-3751376D01*
X4589119Y-3745890D01*
X4586020Y-3741013D01*
X4581956Y-3736898D01*
X4577029Y-3733850D01*
X4571593Y-3731920D01*
X4565243Y-3731209D01*
X4462627Y-3731209D01*
X4456328Y-3731920D01*
X4450842Y-3733850D01*
X4445965Y-3736898D01*
X4443018Y-3739845D01*
X4439767Y-3742029D01*
X4435856Y-3742791D01*
X4432350Y-3742791D01*
X4423867Y-3743655D01*
X4416196Y-3745941D01*
X4409135Y-3749751D01*
X4402582Y-3755136D01*
X4395063Y-3762654D01*
X4391761Y-3764838D01*
X4387900Y-3765600D01*
X4293209Y-3765600D01*
X4289298Y-3764838D01*
X4285996Y-3762654D01*
X4283811Y-3759352D01*
X4283049Y-3755440D01*
X4283049Y-3690264D01*
X4282338Y-3683965D01*
X4280408Y-3678478D01*
X4277309Y-3673601D01*
X4273245Y-3669487D01*
X4268317Y-3666439D01*
X4262882Y-3664508D01*
X4256532Y-3663797D01*
X4209745Y-3663797D01*
X4205884Y-3663035D01*
X4202582Y-3660851D01*
X4186428Y-3644696D01*
X4184243Y-3641394D01*
X4183430Y-3637483D01*
X4183430Y-2931210D01*
X4184243Y-2927350D01*
X4186428Y-2924048D01*
X4189729Y-2921863D01*
X4193590Y-2921050D01*
X4877054Y-2921050D01*
X4885537Y-2920238D01*
X4893157Y-2917901D01*
X4900218Y-2914142D01*
X4906822Y-2908757D01*
X5032502Y-2783027D01*
X5036159Y-2780690D01*
X5040426Y-2780080D01*
X5044541Y-2781300D01*
X5047792Y-2784094D01*
X5049621Y-2788005D01*
X5049672Y-2792272D01*
X5047183Y-2804160D01*
X5045303Y-2822143D01*
X5045303Y-2840278D01*
X5047183Y-2858262D01*
X5050891Y-2875991D01*
X5056378Y-2893263D01*
X5063642Y-2909874D01*
X5072583Y-2925622D01*
X5083048Y-2940354D01*
X5094986Y-2953969D01*
X5108295Y-2966262D01*
X5122773Y-2977134D01*
X5138318Y-2986481D01*
X5154726Y-2994152D01*
X5172252Y-3000197D01*
X5176266Y-3002178D01*
X5179060Y-3005683D01*
X5180076Y-3010103D01*
X5180076Y-3076397D01*
X5179314Y-3080258D01*
X5177078Y-3083560D01*
X4776216Y-3484473D01*
X4773320Y-3486505D01*
X4769916Y-3487369D01*
X4765395Y-3487775D01*
X4755896Y-3490315D01*
X4747006Y-3494481D01*
X4738979Y-3500120D01*
X4732020Y-3507079D01*
X4726381Y-3515106D01*
X4722215Y-3523996D01*
X4719675Y-3533495D01*
X4718812Y-3543300D01*
X4719675Y-3553104D01*
X4722215Y-3562604D01*
X4726381Y-3571494D01*
X4732477Y-3580180D01*
X4733848Y-3582924D01*
X4734306Y-3586022D01*
X4734306Y-3626053D01*
X4733544Y-3629914D01*
X4731308Y-3633215D01*
X4728006Y-3635451D01*
X4724146Y-3636213D01*
X4682896Y-3636213D01*
X4676597Y-3636924D01*
X4671110Y-3638804D01*
X4666234Y-3641902D01*
X4662119Y-3646017D01*
X4659020Y-3650894D01*
X4657140Y-3656380D01*
X4656429Y-3662679D01*
X4656429Y-3714750D01*
X4657140Y-3721049D01*
X4659020Y-3726535D01*
X4662119Y-3731412D01*
X4666234Y-3735527D01*
X4671110Y-3738575D01*
X4676597Y-3740505D01*
X4682896Y-3741216D01*
X4785512Y-3741216D01*
X4791811Y-3740505D01*
X4797298Y-3738575D01*
X4802174Y-3735527D01*
X4806289Y-3731412D01*
X4809337Y-3726535D01*
X4811268Y-3721049D01*
X4811979Y-3714750D01*
X4811979Y-3667709D01*
X4812436Y-3664712D01*
X4815281Y-3655669D01*
X4816094Y-3647236D01*
X4816094Y-3585972D01*
X4816602Y-3582924D01*
X4817973Y-3580129D01*
X4824018Y-3571494D01*
X4828184Y-3562604D01*
X4830724Y-3553104D01*
X4831080Y-3548634D01*
X4831994Y-3545230D01*
X4834026Y-3542334D01*
X5249570Y-3126790D01*
X5254955Y-3120237D01*
X5258714Y-3113176D01*
X5261051Y-3105505D01*
X5261864Y-3097022D01*
X5261864Y-3009900D01*
X5262829Y-3005632D01*
X5265420Y-3002178D01*
X5269179Y-3000146D01*
X5278780Y-2997352D01*
X5295544Y-2990545D01*
X5311546Y-2982010D01*
X5326532Y-2971901D01*
X5340451Y-2960319D01*
X5353100Y-2947314D01*
X5364327Y-2933141D01*
X5374030Y-2917850D01*
X5382158Y-2901645D01*
X5388559Y-2884728D01*
X5393131Y-2867202D01*
X5395925Y-2849321D01*
X5396890Y-2831236D01*
X5395925Y-2813151D01*
X5393131Y-2795219D01*
X5388559Y-2777744D01*
X5382158Y-2760776D01*
X5374030Y-2744571D01*
X5364327Y-2729280D01*
X5353100Y-2715107D01*
X5340451Y-2702102D01*
X5326532Y-2690520D01*
X5311546Y-2680411D01*
X5295544Y-2671927D01*
X5278780Y-2665069D01*
X5261356Y-2660040D01*
X5243576Y-2656789D01*
X5225491Y-2655366D01*
X5207406Y-2655824D01*
X5189423Y-2658160D01*
X5182311Y-2659837D01*
X5177942Y-2659938D01*
X5173980Y-2658160D01*
X5171084Y-2654909D01*
X5169814Y-2650744D01*
X5170424Y-2646426D01*
X5172760Y-2642768D01*
X5413044Y-2402484D01*
X5418429Y-2395931D01*
X5422239Y-2388870D01*
X5424525Y-2381199D01*
X5425389Y-2372715D01*
X5425389Y-2285847D01*
X5424424Y-2275433D01*
X5424373Y-2252675D01*
X5423662Y-2246376D01*
X5421680Y-2240737D01*
X5421122Y-2237333D01*
X5421122Y-2216048D01*
X5421884Y-2212136D01*
X5424068Y-2208885D01*
X5427370Y-2206650D01*
X5431282Y-2205888D01*
X5437632Y-2205888D01*
X5441543Y-2206650D01*
X5444845Y-2208885D01*
X5447030Y-2212136D01*
X5447792Y-2216048D01*
X5447792Y-2262378D01*
X5474360Y-2262378D01*
X5474360Y-2252675D01*
X5473649Y-2246376D01*
X5471769Y-2240889D01*
X5468721Y-2236063D01*
X5463438Y-2230932D01*
X5461152Y-2227580D01*
X5460390Y-2223668D01*
X5460390Y-2165959D01*
X5365800Y-2165959D01*
X5365800Y-2216861D01*
X5364937Y-2221026D01*
X5362397Y-2224430D01*
X5358739Y-2226513D01*
X5354523Y-2226970D01*
X5347868Y-2226208D01*
X5321046Y-2226208D01*
X5314696Y-2226919D01*
X5309463Y-2228138D01*
X5304231Y-2226919D01*
X5297881Y-2226208D01*
X5271008Y-2226208D01*
X5264708Y-2226919D01*
X5259476Y-2228138D01*
X5254193Y-2226919D01*
X5247894Y-2226208D01*
X5221020Y-2226208D01*
X5214416Y-2226970D01*
X5210200Y-2226513D01*
X5206492Y-2224430D01*
X5204002Y-2221026D01*
X5203088Y-2216861D01*
X5203088Y-2165959D01*
X5108549Y-2165959D01*
X5108549Y-2223668D01*
X5107736Y-2227580D01*
X5105501Y-2230932D01*
X5100218Y-2236063D01*
X5097170Y-2240889D01*
X5095290Y-2246376D01*
X5094579Y-2252675D01*
X5094579Y-2262378D01*
X5121097Y-2262378D01*
X5121097Y-2216048D01*
X5121910Y-2212136D01*
X5124094Y-2208885D01*
X5127396Y-2206650D01*
X5131257Y-2205888D01*
X5137658Y-2205888D01*
X5141518Y-2206650D01*
X5144820Y-2208885D01*
X5147056Y-2212136D01*
X5147818Y-2216048D01*
X5147818Y-2237333D01*
X5147259Y-2240737D01*
X5145278Y-2246376D01*
X5144566Y-2252675D01*
X5144516Y-2276398D01*
X5143550Y-2285847D01*
X5143550Y-2302052D01*
X5142839Y-2305862D01*
X5140756Y-2309063D01*
X5137607Y-2311298D01*
X5135473Y-2312263D01*
X5131917Y-2313178D01*
X5128310Y-2312771D01*
X5125059Y-2311095D01*
X5122621Y-2308352D01*
X5094579Y-2308352D01*
X5094579Y-2318054D01*
X5095290Y-2324354D01*
X5097170Y-2329840D01*
X5102402Y-2337968D01*
X5103215Y-2341270D01*
X5102910Y-2344623D01*
X5100116Y-2354986D01*
X5099253Y-2364790D01*
X5100116Y-2374544D01*
X5102656Y-2384044D01*
X5106822Y-2392934D01*
X5112461Y-2401011D01*
X5119420Y-2407970D01*
X5127447Y-2413558D01*
X5136337Y-2417724D01*
X5145836Y-2420264D01*
X5148783Y-2420518D01*
X5152694Y-2421686D01*
X5155844Y-2424328D01*
X5157673Y-2428036D01*
X5157927Y-2432151D01*
X5156504Y-2436012D01*
X5153710Y-2438958D01*
X5151932Y-2440228D01*
X5144973Y-2447188D01*
X5139334Y-2455214D01*
X5135168Y-2464104D01*
X5132628Y-2473604D01*
X5131765Y-2483408D01*
X5132628Y-2493213D01*
X5135168Y-2502712D01*
X5139334Y-2511602D01*
X5144973Y-2519629D01*
X5151932Y-2526588D01*
X5154574Y-2528417D01*
X5157520Y-2531668D01*
X5158841Y-2535885D01*
X5158282Y-2540254D01*
X5155895Y-2543962D01*
X4863592Y-2836265D01*
X4860290Y-2838500D01*
X4856378Y-2839262D01*
X2707233Y-2839262D01*
X2703372Y-2838500D01*
X2700070Y-2836265D01*
X2186330Y-2322525D01*
X2184044Y-2319121D01*
X2183333Y-2315108D01*
X2184247Y-2311146D01*
X2186635Y-2307844D01*
X2190140Y-2305761D01*
X2195779Y-2303780D01*
X2200656Y-2300732D01*
X2204770Y-2296617D01*
X2207869Y-2291740D01*
X2209749Y-2286254D01*
X2210460Y-2279954D01*
X2210460Y-2270252D01*
X2183892Y-2270252D01*
X2183892Y-2295601D01*
X2183130Y-2299512D01*
X2180945Y-2302814D01*
X2177643Y-2304999D01*
X2173732Y-2305761D01*
X2169871Y-2304999D01*
X2166569Y-2302814D01*
X2164435Y-2300681D01*
X2162251Y-2297379D01*
X2161489Y-2293518D01*
X2161489Y-2247747D01*
X2160524Y-2237333D01*
X2160473Y-2214575D01*
X2159762Y-2208276D01*
X2157780Y-2202637D01*
X2157222Y-2199233D01*
X2157222Y-2177948D01*
X2157984Y-2174036D01*
X2160168Y-2170785D01*
X2163470Y-2168550D01*
X2167382Y-2167788D01*
X2173732Y-2167788D01*
X2177643Y-2168550D01*
X2180945Y-2170785D01*
X2183130Y-2174036D01*
X2183892Y-2177948D01*
X2183892Y-2224278D01*
X2210460Y-2224278D01*
X2210460Y-2214575D01*
X2209749Y-2208276D01*
X2207869Y-2202789D01*
X2204821Y-2197963D01*
X2199538Y-2192832D01*
X2197252Y-2189480D01*
X2196490Y-2185568D01*
X2196490Y-2127859D01*
X2101900Y-2127859D01*
X2101900Y-2178761D01*
X2101037Y-2182926D01*
X2098497Y-2186330D01*
X2094839Y-2188413D01*
X2090623Y-2188870D01*
X2083968Y-2188108D01*
X2057146Y-2188108D01*
X2050796Y-2188819D01*
X2045563Y-2190038D01*
X2040331Y-2188819D01*
X2033981Y-2188108D01*
X2007107Y-2188108D01*
X2000808Y-2188819D01*
X1995576Y-2190038D01*
X1990293Y-2188819D01*
X1983993Y-2188108D01*
X1957120Y-2188108D01*
X1950516Y-2188870D01*
X1946300Y-2188413D01*
X1942592Y-2186330D01*
X1940102Y-2182926D01*
X1939188Y-2178761D01*
X1939188Y-2127859D01*
X1844649Y-2127859D01*
X1844649Y-2185568D01*
X1843836Y-2189480D01*
X1841601Y-2192832D01*
X1836318Y-2197963D01*
X1833270Y-2202789D01*
X1831390Y-2208276D01*
X1830679Y-2214575D01*
X1830679Y-2224278D01*
X1857197Y-2224278D01*
X1857197Y-2177948D01*
X1858010Y-2174036D01*
X1860194Y-2170785D01*
X1863496Y-2168550D01*
X1867357Y-2167788D01*
X1873757Y-2167788D01*
X1877618Y-2168550D01*
X1880920Y-2170785D01*
X1883156Y-2174036D01*
X1883918Y-2177948D01*
X1883918Y-2199233D01*
X1883359Y-2202637D01*
X1881378Y-2208276D01*
X1880666Y-2214575D01*
X1880616Y-2238298D01*
X1879650Y-2247747D01*
X1879650Y-2289606D01*
X1878888Y-2293467D01*
X1876704Y-2296769D01*
X1874570Y-2298903D01*
X1871268Y-2301087D01*
X1867357Y-2301900D01*
X1863496Y-2301087D01*
X1860194Y-2298903D01*
X1858010Y-2295601D01*
X1857197Y-2291740D01*
X1857197Y-2270252D01*
X1830679Y-2270252D01*
X1830679Y-2279954D01*
X1831390Y-2286254D01*
X1833270Y-2291740D01*
X1836369Y-2296617D01*
X1840433Y-2300732D01*
X1845360Y-2303780D01*
X1848104Y-2304745D01*
X1851609Y-2306828D01*
X1853996Y-2310130D01*
X1854911Y-2314143D01*
X1854200Y-2318156D01*
X1851914Y-2321509D01*
X491032Y-3682390D01*
X486562Y-3685286D01*
X480364Y-3690365D01*
X475284Y-3696563D01*
X471525Y-3703624D01*
X469188Y-3711295D01*
X468884Y-3714445D01*
X467868Y-3718001D01*
X465582Y-3720998D01*
X462432Y-3722928D01*
X458774Y-3723589D01*
X424840Y-3723589D01*
X418541Y-3724300D01*
X413054Y-3726230D01*
X408178Y-3729329D01*
X404063Y-3733393D01*
X401015Y-3738321D01*
X399084Y-3743756D01*
X398373Y-3750106D01*
X398373Y-3918965D01*
X399084Y-3925265D01*
X401015Y-3930751D01*
X404063Y-3935628D01*
X408178Y-3939743D01*
X413054Y-3942791D01*
X418541Y-3944721D01*
X424840Y-3945432D01*
X593699Y-3945432D01*
X600049Y-3944721D01*
X605485Y-3942791D01*
X610412Y-3939743D01*
X614476Y-3935628D01*
X617575Y-3930751D01*
X619455Y-3925265D01*
X620166Y-3918965D01*
X620166Y-3750106D01*
X619455Y-3743756D01*
X617575Y-3738321D01*
X614476Y-3733393D01*
X610412Y-3729329D01*
X605485Y-3726230D01*
X600049Y-3724300D01*
X593699Y-3723589D01*
X590092Y-3723589D01*
X586181Y-3722827D01*
X582879Y-3720642D01*
X580694Y-3717340D01*
X579932Y-3713429D01*
X580694Y-3709568D01*
X582879Y-3706266D01*
X1912366Y-2376830D01*
X1915617Y-2374646D01*
X1919528Y-2373833D01*
X1923389Y-2374646D01*
X1926691Y-2376830D01*
X1928926Y-2380132D01*
X1929688Y-2383993D01*
X1929688Y-2406802D01*
X1928926Y-2410663D01*
X1926691Y-2413965D01*
X855218Y-3485438D01*
X849833Y-3492042D01*
X846074Y-3499104D01*
X843737Y-3506774D01*
X842873Y-3515207D01*
X842873Y-3999737D01*
X842111Y-4003598D01*
X839927Y-4006900D01*
X629818Y-4217009D01*
X626465Y-4219244D01*
X622554Y-4220006D01*
X618693Y-4219194D01*
X615391Y-4216958D01*
X610362Y-4211878D01*
X605485Y-4208830D01*
X600049Y-4206900D01*
X593699Y-4206189D01*
X424840Y-4206189D01*
X418541Y-4206900D01*
X413054Y-4208830D01*
X408178Y-4211929D01*
X404063Y-4215993D01*
X401015Y-4220921D01*
X399084Y-4226356D01*
X398373Y-4232706D01*
X398373Y-4401566D01*
X399084Y-4407865D01*
X401015Y-4413351D01*
X404063Y-4418228D01*
X408178Y-4422343D01*
X413054Y-4425391D01*
X418541Y-4427321D01*
X424840Y-4428032D01*
X593699Y-4428032D01*
X600049Y-4427321D01*
X605485Y-4425391D01*
X610412Y-4422343D01*
X614476Y-4418228D01*
X617575Y-4413351D01*
X619455Y-4407865D01*
X620166Y-4401566D01*
X620166Y-4367631D01*
X620877Y-4363974D01*
X622808Y-4360773D01*
X625754Y-4358538D01*
X629361Y-4357471D01*
X632510Y-4357166D01*
X640130Y-4354880D01*
X647242Y-4351070D01*
X653389Y-4345990D01*
X658469Y-4339793D01*
X662279Y-4332732D01*
X664616Y-4325061D01*
X665429Y-4316628D01*
X665429Y-4301286D01*
X666191Y-4297426D01*
X668426Y-4294124D01*
X885748Y-4076750D01*
X889050Y-4074566D01*
X892962Y-4073753D01*
X896823Y-4074566D01*
X900125Y-4076750D01*
X912825Y-4089400D01*
X914857Y-4092295D01*
X915720Y-4095699D01*
X916127Y-4100220D01*
X918667Y-4109720D01*
X922832Y-4118610D01*
X926388Y-4123690D01*
X927862Y-4126890D01*
X928217Y-4130395D01*
X927303Y-4133799D01*
X925271Y-4136694D01*
X493420Y-4568545D01*
X487984Y-4575149D01*
X484225Y-4582210D01*
X481888Y-4589881D01*
X481076Y-4598314D01*
X481076Y-4615129D01*
X480314Y-4619040D01*
X478078Y-4622342D01*
X474776Y-4624527D01*
X470916Y-4625289D01*
X437540Y-4625289D01*
X431241Y-4626000D01*
X425754Y-4627930D01*
X420878Y-4631029D01*
X416763Y-4635093D01*
X413715Y-4640021D01*
X411784Y-4645456D01*
X411073Y-4651806D01*
X411073Y-4820666D01*
X411784Y-4826965D01*
X413715Y-4832451D01*
X416763Y-4837328D01*
X420878Y-4841443D01*
X425754Y-4844491D01*
X431241Y-4846421D01*
X437540Y-4847132D01*
X606399Y-4847132D01*
X612749Y-4846421D01*
X618185Y-4844491D01*
X623112Y-4841443D01*
X627176Y-4837328D01*
X630275Y-4832451D01*
X632155Y-4826965D01*
X632866Y-4820666D01*
X632866Y-4651806D01*
X632155Y-4645456D01*
X630275Y-4640021D01*
X627176Y-4635093D01*
X623112Y-4631029D01*
X618185Y-4627930D01*
X612749Y-4626000D01*
X606399Y-4625289D01*
X576884Y-4625289D01*
X572973Y-4624527D01*
X569722Y-4622342D01*
X567486Y-4619040D01*
X566724Y-4615129D01*
X567486Y-4611268D01*
X569722Y-4607966D01*
X889000Y-4288637D01*
X892302Y-4286453D01*
X896213Y-4285640D01*
X900074Y-4286453D01*
X903376Y-4288637D01*
X905611Y-4291939D01*
X906373Y-4295800D01*
X906373Y-4401566D01*
X907084Y-4407865D01*
X909015Y-4413351D01*
X912063Y-4418228D01*
X916178Y-4422343D01*
X921054Y-4425391D01*
X926541Y-4427321D01*
X932840Y-4428032D01*
X1101699Y-4428032D01*
X1108049Y-4427321D01*
X1113485Y-4425391D01*
X1118412Y-4422343D01*
X1122476Y-4418228D01*
X1125575Y-4413351D01*
X1127455Y-4407865D01*
X1128166Y-4401566D01*
X1128166Y-4232706D01*
X1127455Y-4226356D01*
X1125575Y-4220921D01*
X1122476Y-4215993D01*
X1118412Y-4211929D01*
X1116888Y-4210964D01*
X1113790Y-4207916D01*
X1112266Y-4203903D01*
X1112520Y-4199534D01*
X1114602Y-4195724D01*
X1118057Y-4193133D01*
X1122324Y-4192219D01*
X1321612Y-4192219D01*
X1330096Y-4191355D01*
X1337716Y-4189069D01*
X1344777Y-4185259D01*
X1351381Y-4179874D01*
X1561490Y-3969765D01*
X1564640Y-3967632D01*
X1568297Y-3966768D01*
X1572056Y-3967378D01*
X1575308Y-3969258D01*
X1577644Y-3972204D01*
X1578762Y-3975811D01*
X1579372Y-3981145D01*
X1581302Y-3986631D01*
X1584350Y-3991508D01*
X1588465Y-3995623D01*
X1593342Y-3998722D01*
X1598828Y-4000601D01*
X1605127Y-4001312D01*
X1687474Y-4001312D01*
X1691386Y-4002074D01*
X1694688Y-4004310D01*
X1696872Y-4007612D01*
X1697634Y-4011472D01*
X1697634Y-4200601D01*
X1696872Y-4204512D01*
X1694688Y-4207814D01*
X1649984Y-4252518D01*
X1644548Y-4259072D01*
X1640789Y-4266133D01*
X1638452Y-4273804D01*
X1637995Y-4278680D01*
X1636928Y-4282338D01*
X1634540Y-4285335D01*
X1631238Y-4287266D01*
X1627022Y-4288739D01*
X1622094Y-4291787D01*
X1618030Y-4295902D01*
X1614932Y-4300778D01*
X1613052Y-4306265D01*
X1612341Y-4312564D01*
X1612341Y-4397857D01*
X1613052Y-4404156D01*
X1614932Y-4409643D01*
X1618030Y-4414520D01*
X1622094Y-4418634D01*
X1627022Y-4421682D01*
X1632457Y-4423613D01*
X1638807Y-4424324D01*
X1677720Y-4424324D01*
X1681632Y-4425086D01*
X1684883Y-4427321D01*
X1687118Y-4430572D01*
X1687880Y-4434484D01*
X1687118Y-4438345D01*
X1684883Y-4441647D01*
X1679752Y-4446828D01*
X1674368Y-4453382D01*
X1670608Y-4460443D01*
X1668272Y-4468114D01*
X1667408Y-4476597D01*
X1667408Y-4724755D01*
X1666646Y-4728616D01*
X1664462Y-4731918D01*
X1661160Y-4734102D01*
X1657248Y-4734915D01*
X1653387Y-4734102D01*
X1650085Y-4731918D01*
X1638503Y-4720336D01*
X1631899Y-4714951D01*
X1624838Y-4711141D01*
X1617167Y-4708855D01*
X1608734Y-4707991D01*
X1138326Y-4707991D01*
X1134465Y-4707229D01*
X1131163Y-4705045D01*
X1128979Y-4701743D01*
X1128166Y-4697831D01*
X1128166Y-4664506D01*
X1127455Y-4658156D01*
X1125575Y-4652721D01*
X1122476Y-4647793D01*
X1118412Y-4643729D01*
X1113485Y-4640630D01*
X1108049Y-4638700D01*
X1101699Y-4637989D01*
X932840Y-4637989D01*
X926541Y-4638700D01*
X921054Y-4640630D01*
X916178Y-4643729D01*
X912063Y-4647793D01*
X909015Y-4652721D01*
X907084Y-4658156D01*
X906373Y-4664506D01*
X906373Y-4833366D01*
X907084Y-4839665D01*
X909015Y-4845151D01*
X912063Y-4850028D01*
X916178Y-4854143D01*
X921054Y-4857191D01*
X926541Y-4859121D01*
X932840Y-4859832D01*
X1101699Y-4859832D01*
X1108049Y-4859121D01*
X1113485Y-4857191D01*
X1118412Y-4854143D01*
X1122476Y-4850028D01*
X1125575Y-4845151D01*
X1127455Y-4839665D01*
X1128166Y-4833366D01*
X1128166Y-4799990D01*
X1128979Y-4796078D01*
X1131163Y-4792776D01*
X1134465Y-4790592D01*
X1138326Y-4789830D01*
X1588058Y-4789830D01*
X1591970Y-4790592D01*
X1595272Y-4792776D01*
X1812086Y-5009642D01*
X1814220Y-5012740D01*
X1815084Y-5016449D01*
X1814474Y-5020208D01*
X1812391Y-5026253D01*
X1811680Y-5032552D01*
X1811680Y-5148935D01*
X1812391Y-5155234D01*
X1814271Y-5160721D01*
X1817370Y-5165598D01*
X1821484Y-5169712D01*
X1826361Y-5172760D01*
X1831848Y-5174691D01*
G37*
G36*
X2266746Y-5111902D02*
G01*
X2279853Y-5111902D01*
X2279853Y-5069840D01*
X2240280Y-5069840D01*
X2240280Y-5085435D01*
X2240991Y-5091785D01*
X2242921Y-5097221D01*
X2245969Y-5102148D01*
X2250084Y-5106212D01*
X2254961Y-5109311D01*
X2260447Y-5111191D01*
G37*
G36*
X2660446Y-5086502D02*
G01*
X2673553Y-5086502D01*
X2673553Y-5044440D01*
X2633980Y-5044440D01*
X2633980Y-5060035D01*
X2634691Y-5066385D01*
X2636621Y-5071821D01*
X2639669Y-5076748D01*
X2643784Y-5080812D01*
X2648661Y-5083911D01*
X2654147Y-5085791D01*
G37*
G36*
X2240280Y-5012182D02*
G01*
X2279853Y-5012182D01*
X2279853Y-4970119D01*
X2266746Y-4970119D01*
X2260447Y-4970830D01*
X2254961Y-4972710D01*
X2250084Y-4975809D01*
X2245969Y-4979924D01*
X2242921Y-4984800D01*
X2240991Y-4990287D01*
X2240280Y-4996586D01*
G37*
G36*
X2633980Y-4986782D02*
G01*
X2673553Y-4986782D01*
X2673553Y-4944719D01*
X2660446Y-4944719D01*
X2654147Y-4945430D01*
X2648661Y-4947310D01*
X2643784Y-4950409D01*
X2639669Y-4954524D01*
X2636621Y-4959400D01*
X2634691Y-4964887D01*
X2633980Y-4971186D01*
G37*
G36*
X4911648Y-4839919D02*
G01*
X4924450Y-4839919D01*
X4924450Y-4806848D01*
X4885182Y-4806848D01*
X4885182Y-4813452D01*
X4885893Y-4819751D01*
X4887772Y-4825238D01*
X4890871Y-4830114D01*
X4894935Y-4834229D01*
X4899863Y-4837277D01*
X4905298Y-4839208D01*
G37*
G36*
X4107179Y-4745482D02*
G01*
X4146753Y-4745482D01*
X4146753Y-4703419D01*
X4133646Y-4703419D01*
X4127347Y-4704130D01*
X4121861Y-4706010D01*
X4116984Y-4709109D01*
X4112869Y-4713224D01*
X4109821Y-4718100D01*
X4107891Y-4723587D01*
X4107179Y-4729886D01*
G37*
G36*
X6000140Y-4504232D02*
G01*
X6168999Y-4504232D01*
X6175349Y-4503521D01*
X6180785Y-4501591D01*
X6185712Y-4498543D01*
X6189776Y-4494428D01*
X6192875Y-4489551D01*
X6194755Y-4484065D01*
X6195466Y-4477766D01*
X6195466Y-4308906D01*
X6194755Y-4302556D01*
X6192875Y-4297121D01*
X6189776Y-4292193D01*
X6185712Y-4288129D01*
X6180785Y-4285030D01*
X6175349Y-4283100D01*
X6168999Y-4282389D01*
X6000140Y-4282389D01*
X5993841Y-4283100D01*
X5988354Y-4285030D01*
X5983478Y-4288129D01*
X5979363Y-4292193D01*
X5976315Y-4297121D01*
X5974384Y-4302556D01*
X5973673Y-4308906D01*
X5973673Y-4477766D01*
X5974384Y-4484065D01*
X5976315Y-4489551D01*
X5979363Y-4494428D01*
X5983478Y-4498543D01*
X5988354Y-4501591D01*
X5993841Y-4503521D01*
G37*
G36*
X6381140Y-4466132D02*
G01*
X6549999Y-4466132D01*
X6556349Y-4465421D01*
X6561785Y-4463491D01*
X6566712Y-4460443D01*
X6570776Y-4456328D01*
X6573875Y-4451451D01*
X6575755Y-4445965D01*
X6576466Y-4439666D01*
X6576466Y-4270806D01*
X6575755Y-4264456D01*
X6573875Y-4259021D01*
X6570776Y-4254093D01*
X6566712Y-4250029D01*
X6561785Y-4246930D01*
X6556349Y-4245000D01*
X6549999Y-4244289D01*
X6381140Y-4244289D01*
X6374841Y-4245000D01*
X6369354Y-4246930D01*
X6364478Y-4250029D01*
X6360363Y-4254093D01*
X6357315Y-4259021D01*
X6355384Y-4264456D01*
X6354673Y-4270806D01*
X6354673Y-4439666D01*
X6355384Y-4445965D01*
X6357315Y-4451451D01*
X6360363Y-4456328D01*
X6364478Y-4460443D01*
X6369354Y-4463491D01*
X6374841Y-4465421D01*
G37*
G36*
X5465572Y-4384649D02*
G01*
X5510123Y-4384649D01*
X5510123Y-4377080D01*
X5510885Y-4373219D01*
X5513070Y-4369917D01*
X5516372Y-4367682D01*
X5520283Y-4366920D01*
X5562650Y-4366920D01*
X5566562Y-4367682D01*
X5569864Y-4369917D01*
X5572048Y-4373219D01*
X5572810Y-4377080D01*
X5572810Y-4384649D01*
X5617362Y-4384649D01*
X5617362Y-4376572D01*
X5616651Y-4370273D01*
X5614873Y-4365091D01*
X5614263Y-4361484D01*
X5615076Y-4357878D01*
X5617057Y-4354779D01*
X5620004Y-4352594D01*
X5623560Y-4351629D01*
X5629757Y-4351070D01*
X5637377Y-4348784D01*
X5644438Y-4344974D01*
X5650992Y-4339590D01*
X6060490Y-3930091D01*
X6063792Y-3927906D01*
X6067653Y-3927144D01*
X6071362Y-3927144D01*
X6079845Y-3926281D01*
X6087516Y-3923995D01*
X6094577Y-3920185D01*
X6100775Y-3915105D01*
X6105855Y-3908907D01*
X6109614Y-3901846D01*
X6111951Y-3894175D01*
X6112256Y-3891076D01*
X6113272Y-3887520D01*
X6115558Y-3884574D01*
X6118707Y-3882593D01*
X6122365Y-3881932D01*
X6156299Y-3881932D01*
X6162649Y-3881221D01*
X6168085Y-3879291D01*
X6173012Y-3876243D01*
X6177076Y-3872128D01*
X6180175Y-3867251D01*
X6182055Y-3861765D01*
X6182766Y-3855465D01*
X6182766Y-3686606D01*
X6182055Y-3680256D01*
X6180175Y-3674821D01*
X6177076Y-3669893D01*
X6173012Y-3665829D01*
X6168085Y-3662730D01*
X6162649Y-3660800D01*
X6156299Y-3660089D01*
X5987440Y-3660089D01*
X5981141Y-3660800D01*
X5975654Y-3662730D01*
X5970778Y-3665829D01*
X5966663Y-3669893D01*
X5963615Y-3674821D01*
X5961684Y-3680256D01*
X5960973Y-3686606D01*
X5960973Y-3855465D01*
X5961684Y-3861765D01*
X5963615Y-3867251D01*
X5966663Y-3872128D01*
X5970727Y-3876141D01*
X5977077Y-3880002D01*
X5979820Y-3882440D01*
X5981496Y-3885692D01*
X5981954Y-3889349D01*
X5981090Y-3892905D01*
X5979007Y-3895902D01*
X5617311Y-4257598D01*
X5614517Y-4259580D01*
X5611266Y-4260494D01*
X5607862Y-4260291D01*
X5604713Y-4259021D01*
X5602681Y-4257751D01*
X5597245Y-4255820D01*
X5590895Y-4255109D01*
X5492038Y-4255109D01*
X5485739Y-4255820D01*
X5480253Y-4257751D01*
X5475376Y-4260799D01*
X5471261Y-4264914D01*
X5468162Y-4269790D01*
X5466283Y-4275277D01*
X5465572Y-4281576D01*
X5465572Y-4340453D01*
X5466283Y-4346752D01*
X5468162Y-4352239D01*
X5470093Y-4356608D01*
X5470093Y-4360418D01*
X5468162Y-4364786D01*
X5466283Y-4370273D01*
X5465572Y-4376572D01*
G37*
G36*
X4881524Y-3968089D02*
G01*
X4891328Y-3967226D01*
X4900828Y-3964686D01*
X4909718Y-3960520D01*
X4918354Y-3954475D01*
X4921148Y-3953103D01*
X4924196Y-3952646D01*
X4981600Y-3952646D01*
X4984953Y-3953205D01*
X4987950Y-3954830D01*
X4994351Y-3961587D01*
X4999278Y-3964635D01*
X5004714Y-3966565D01*
X5011064Y-3967276D01*
X5063083Y-3967276D01*
X5069433Y-3966565D01*
X5074869Y-3964635D01*
X5079796Y-3961587D01*
X5083860Y-3957472D01*
X5086959Y-3952595D01*
X5088890Y-3947109D01*
X5089601Y-3940810D01*
X5089601Y-3858260D01*
X5090363Y-3854399D01*
X5092547Y-3851097D01*
X5095849Y-3848912D01*
X5099761Y-3848100D01*
X5164429Y-3848100D01*
X5168290Y-3848912D01*
X5171592Y-3851097D01*
X5173776Y-3854399D01*
X5174589Y-3858260D01*
X5174589Y-3940810D01*
X5175300Y-3947109D01*
X5177180Y-3952595D01*
X5180279Y-3957472D01*
X5184343Y-3961587D01*
X5189270Y-3964635D01*
X5194706Y-3966565D01*
X5201056Y-3967276D01*
X5253126Y-3967276D01*
X5259425Y-3966565D01*
X5264912Y-3964635D01*
X5269788Y-3961587D01*
X5273903Y-3957472D01*
X5276951Y-3952595D01*
X5278882Y-3947109D01*
X5279593Y-3940810D01*
X5279593Y-3838194D01*
X5278882Y-3831844D01*
X5275580Y-3823106D01*
X5275376Y-3819702D01*
X5276342Y-3816451D01*
X5278272Y-3813657D01*
X5846470Y-3245510D01*
X5851855Y-3238906D01*
X5855614Y-3231845D01*
X5857951Y-3224174D01*
X5858764Y-3215741D01*
X5858764Y-1562100D01*
X5859729Y-1557832D01*
X5862320Y-1554378D01*
X5866079Y-1552346D01*
X5875680Y-1549552D01*
X5892444Y-1542745D01*
X5908446Y-1534210D01*
X5923432Y-1524101D01*
X5937351Y-1512519D01*
X5950000Y-1499514D01*
X5961227Y-1485341D01*
X5970930Y-1470050D01*
X5979058Y-1453845D01*
X5985459Y-1436928D01*
X5990031Y-1419402D01*
X5992825Y-1401521D01*
X5993790Y-1383436D01*
X5992825Y-1365351D01*
X5990031Y-1347419D01*
X5985459Y-1329944D01*
X5979058Y-1312976D01*
X5970930Y-1296771D01*
X5961227Y-1281480D01*
X5950000Y-1267307D01*
X5937351Y-1254302D01*
X5923432Y-1242720D01*
X5908446Y-1232611D01*
X5892444Y-1224127D01*
X5875680Y-1217269D01*
X5858256Y-1212240D01*
X5840476Y-1208989D01*
X5822391Y-1207566D01*
X5804306Y-1208024D01*
X5786323Y-1210360D01*
X5768695Y-1214526D01*
X5751626Y-1220470D01*
X5735218Y-1228140D01*
X5719673Y-1237488D01*
X5705195Y-1248359D01*
X5691886Y-1260652D01*
X5679948Y-1274267D01*
X5669483Y-1288999D01*
X5660542Y-1304747D01*
X5653278Y-1321358D01*
X5647791Y-1338630D01*
X5644083Y-1356360D01*
X5642203Y-1374343D01*
X5642203Y-1392478D01*
X5644083Y-1410462D01*
X5647791Y-1428191D01*
X5653278Y-1445463D01*
X5660542Y-1462074D01*
X5669483Y-1477822D01*
X5679948Y-1492554D01*
X5691886Y-1506169D01*
X5705195Y-1518462D01*
X5719673Y-1529334D01*
X5735218Y-1538681D01*
X5751626Y-1546352D01*
X5769152Y-1552397D01*
X5773166Y-1554378D01*
X5775960Y-1557883D01*
X5776976Y-1562303D01*
X5776976Y-1795068D01*
X5776010Y-1799386D01*
X5773318Y-1802892D01*
X5769457Y-1804924D01*
X5765038Y-1805076D01*
X5760974Y-1803400D01*
X5755944Y-1799894D01*
X5747054Y-1795729D01*
X5737555Y-1793189D01*
X5727801Y-1792325D01*
X5717997Y-1793189D01*
X5708497Y-1795729D01*
X5699607Y-1799894D01*
X5690920Y-1805990D01*
X5688126Y-1807362D01*
X5685078Y-1807819D01*
X5630265Y-1807819D01*
X5626150Y-1806956D01*
X5622747Y-1804517D01*
X5620664Y-1800910D01*
X5620156Y-1796745D01*
X5620918Y-1787804D01*
X5620054Y-1778000D01*
X5617514Y-1768500D01*
X5613349Y-1759610D01*
X5607761Y-1751584D01*
X5600801Y-1744624D01*
X5592724Y-1738985D01*
X5583834Y-1734820D01*
X5574334Y-1732280D01*
X5564581Y-1731416D01*
X5554776Y-1732280D01*
X5545277Y-1734820D01*
X5536387Y-1738985D01*
X5527700Y-1745081D01*
X5524906Y-1746402D01*
X5521858Y-1746910D01*
X5387543Y-1746910D01*
X5379110Y-1747723D01*
X5371439Y-1750060D01*
X5364378Y-1753819D01*
X5357774Y-1759254D01*
X5340197Y-1776780D01*
X5336489Y-1779168D01*
X5332171Y-1779727D01*
X5327954Y-1778406D01*
X5324703Y-1775460D01*
X5321655Y-1771040D01*
X5314696Y-1764080D01*
X5306618Y-1758492D01*
X5297728Y-1754327D01*
X5288229Y-1751787D01*
X5278475Y-1750923D01*
X5268671Y-1751787D01*
X5253990Y-1755851D01*
X5250027Y-1755139D01*
X5246573Y-1753006D01*
X5244287Y-1749653D01*
X5243474Y-1745691D01*
X5243474Y-1313230D01*
X5244084Y-1309776D01*
X5245862Y-1306728D01*
X5248554Y-1304442D01*
X5251805Y-1303223D01*
X5261356Y-1301496D01*
X5278780Y-1296466D01*
X5295544Y-1289608D01*
X5311546Y-1281125D01*
X5326532Y-1271016D01*
X5340451Y-1259382D01*
X5353100Y-1246428D01*
X5364327Y-1232204D01*
X5374030Y-1216964D01*
X5382158Y-1200759D01*
X5388559Y-1183792D01*
X5393131Y-1166317D01*
X5395925Y-1148384D01*
X5396890Y-1130300D01*
X5395925Y-1112215D01*
X5393131Y-1094333D01*
X5388559Y-1076807D01*
X5382158Y-1059891D01*
X5374030Y-1043686D01*
X5364327Y-1028395D01*
X5353100Y-1014171D01*
X5340451Y-1001217D01*
X5326532Y-989634D01*
X5311546Y-979525D01*
X5295544Y-970991D01*
X5278780Y-964184D01*
X5261356Y-959103D01*
X5243576Y-955852D01*
X5225491Y-954481D01*
X5207406Y-954938D01*
X5189423Y-957275D01*
X5171795Y-961440D01*
X5154726Y-967384D01*
X5138318Y-975055D01*
X5122773Y-984402D01*
X5108295Y-995222D01*
X5094986Y-1007567D01*
X5083048Y-1021130D01*
X5072583Y-1035913D01*
X5063642Y-1051661D01*
X5056378Y-1068273D01*
X5050891Y-1085494D01*
X5047183Y-1103223D01*
X5045303Y-1121257D01*
X5045303Y-1139342D01*
X5047183Y-1157376D01*
X5050891Y-1175105D01*
X5056378Y-1192377D01*
X5063642Y-1208938D01*
X5072583Y-1224737D01*
X5083048Y-1239469D01*
X5094986Y-1253083D01*
X5108295Y-1265377D01*
X5122773Y-1276248D01*
X5138318Y-1285595D01*
X5154828Y-1293317D01*
X5158435Y-1295450D01*
X5160822Y-1298803D01*
X5161686Y-1302918D01*
X5161686Y-1755190D01*
X5160822Y-1759254D01*
X5158384Y-1762658D01*
X5154777Y-1764792D01*
X5150612Y-1765300D01*
X5141722Y-1764487D01*
X5131917Y-1765350D01*
X5122418Y-1767890D01*
X5113528Y-1772056D01*
X5105450Y-1777695D01*
X5098491Y-1784654D01*
X5094986Y-1789633D01*
X5091785Y-1792630D01*
X5087569Y-1793951D01*
X5083200Y-1793392D01*
X5079492Y-1791004D01*
X4775657Y-1487170D01*
X4773676Y-1484426D01*
X4772761Y-1481124D01*
X4772964Y-1477721D01*
X4774285Y-1474571D01*
X4777130Y-1470050D01*
X4785258Y-1453845D01*
X4791659Y-1436928D01*
X4796231Y-1419402D01*
X4799025Y-1401521D01*
X4799990Y-1383436D01*
X4799025Y-1365351D01*
X4796231Y-1347419D01*
X4791659Y-1329944D01*
X4785258Y-1312976D01*
X4777130Y-1296771D01*
X4767427Y-1281480D01*
X4756200Y-1267307D01*
X4743551Y-1254302D01*
X4729632Y-1242720D01*
X4714646Y-1232611D01*
X4698644Y-1224127D01*
X4681880Y-1217269D01*
X4664456Y-1212240D01*
X4646676Y-1208989D01*
X4628591Y-1207566D01*
X4610506Y-1208024D01*
X4592523Y-1210360D01*
X4574895Y-1214526D01*
X4557826Y-1220470D01*
X4541418Y-1228140D01*
X4525873Y-1237488D01*
X4511395Y-1248359D01*
X4498086Y-1260652D01*
X4486148Y-1274267D01*
X4475683Y-1288999D01*
X4466742Y-1304747D01*
X4459478Y-1321358D01*
X4453991Y-1338630D01*
X4450283Y-1356360D01*
X4448403Y-1374343D01*
X4448403Y-1392478D01*
X4450283Y-1410462D01*
X4453991Y-1428191D01*
X4459478Y-1445463D01*
X4466742Y-1462074D01*
X4475683Y-1477822D01*
X4486148Y-1492554D01*
X4498086Y-1506169D01*
X4511395Y-1518462D01*
X4525873Y-1529334D01*
X4541418Y-1538681D01*
X4557826Y-1546352D01*
X4574895Y-1552295D01*
X4592523Y-1556461D01*
X4610506Y-1558798D01*
X4628591Y-1559255D01*
X4646676Y-1557832D01*
X4664456Y-1554581D01*
X4681880Y-1549552D01*
X4698644Y-1542745D01*
X4703013Y-1540408D01*
X4707128Y-1539240D01*
X4711344Y-1539849D01*
X4714951Y-1542186D01*
X5091582Y-1918817D01*
X5093766Y-1922068D01*
X5094579Y-1925980D01*
X5094579Y-1936546D01*
X5095290Y-1942846D01*
X5097170Y-1948332D01*
X5100218Y-1953158D01*
X5105501Y-1958289D01*
X5107736Y-1961642D01*
X5108549Y-1965553D01*
X5108549Y-2023262D01*
X5203088Y-2023262D01*
X5203088Y-1972360D01*
X5204002Y-1968246D01*
X5206492Y-1964791D01*
X5210200Y-1962708D01*
X5214416Y-1962251D01*
X5221020Y-1963013D01*
X5247894Y-1963013D01*
X5254193Y-1962302D01*
X5259476Y-1961083D01*
X5264708Y-1962302D01*
X5271008Y-1963013D01*
X5297881Y-1963013D01*
X5304231Y-1962302D01*
X5309463Y-1961083D01*
X5314696Y-1962302D01*
X5321046Y-1963013D01*
X5347868Y-1963013D01*
X5354523Y-1962251D01*
X5358739Y-1962708D01*
X5362397Y-1964791D01*
X5364937Y-1968246D01*
X5365800Y-1972360D01*
X5365800Y-2023262D01*
X5460390Y-2023262D01*
X5460390Y-1976069D01*
X5461152Y-1972208D01*
X5463336Y-1968906D01*
X5466638Y-1966722D01*
X5470550Y-1965909D01*
X5487568Y-1965909D01*
X5490616Y-1966417D01*
X5493410Y-1967738D01*
X5502097Y-1973834D01*
X5510987Y-1977999D01*
X5520486Y-1980539D01*
X5530291Y-1981403D01*
X5540044Y-1980539D01*
X5549544Y-1977999D01*
X5558434Y-1973834D01*
X5566511Y-1968195D01*
X5573471Y-1961235D01*
X5579059Y-1953209D01*
X5583224Y-1944319D01*
X5585764Y-1934819D01*
X5586628Y-1925015D01*
X5585764Y-1915210D01*
X5583224Y-1905711D01*
X5582462Y-1904085D01*
X5581497Y-1900123D01*
X5582208Y-1896160D01*
X5584342Y-1892706D01*
X5587695Y-1890420D01*
X5591657Y-1889607D01*
X5685078Y-1889607D01*
X5688177Y-1890115D01*
X5690920Y-1891487D01*
X5699607Y-1897532D01*
X5708497Y-1901698D01*
X5717997Y-1904238D01*
X5727801Y-1905101D01*
X5737555Y-1904238D01*
X5747054Y-1901698D01*
X5755944Y-1897532D01*
X5760974Y-1894027D01*
X5765038Y-1892350D01*
X5769457Y-1892503D01*
X5773318Y-1894535D01*
X5776010Y-1898040D01*
X5776976Y-1902358D01*
X5776976Y-3195066D01*
X5776214Y-3198977D01*
X5773978Y-3202279D01*
X5212943Y-3763314D01*
X5209641Y-3765550D01*
X5205730Y-3766312D01*
X4888280Y-3766312D01*
X4879848Y-3767124D01*
X4872177Y-3769461D01*
X4865116Y-3773220D01*
X4858512Y-3778656D01*
X4809794Y-3827373D01*
X4805984Y-3829761D01*
X4801514Y-3830269D01*
X4791811Y-3826916D01*
X4785512Y-3826205D01*
X4682896Y-3826205D01*
X4676597Y-3826916D01*
X4671110Y-3828846D01*
X4666234Y-3831894D01*
X4662119Y-3836009D01*
X4659020Y-3840886D01*
X4657140Y-3846372D01*
X4656429Y-3852672D01*
X4656429Y-3904742D01*
X4657140Y-3911041D01*
X4659020Y-3916527D01*
X4662119Y-3921404D01*
X4666234Y-3925519D01*
X4671110Y-3928618D01*
X4676597Y-3930497D01*
X4682896Y-3931208D01*
X4785512Y-3931208D01*
X4791811Y-3930497D01*
X4797298Y-3928618D01*
X4802174Y-3925519D01*
X4805121Y-3922572D01*
X4808270Y-3920439D01*
X4812030Y-3919626D01*
X4817414Y-3919474D01*
X4821834Y-3920388D01*
X4825390Y-3923029D01*
X4827473Y-3926992D01*
X4828540Y-3931005D01*
X4832705Y-3939895D01*
X4838344Y-3947972D01*
X4845304Y-3954932D01*
X4853330Y-3960520D01*
X4862220Y-3964686D01*
X4871720Y-3967226D01*
G37*
G36*
X6355740Y-3881932D02*
G01*
X6524599Y-3881932D01*
X6530949Y-3881221D01*
X6536385Y-3879291D01*
X6541312Y-3876243D01*
X6545376Y-3872128D01*
X6548475Y-3867251D01*
X6550355Y-3861765D01*
X6551066Y-3855465D01*
X6551066Y-3686606D01*
X6550355Y-3680256D01*
X6548475Y-3674821D01*
X6545376Y-3669893D01*
X6541312Y-3665829D01*
X6536385Y-3662730D01*
X6530949Y-3660800D01*
X6524599Y-3660089D01*
X6355740Y-3660089D01*
X6349441Y-3660800D01*
X6343954Y-3662730D01*
X6339078Y-3665829D01*
X6334963Y-3669893D01*
X6331915Y-3674821D01*
X6329984Y-3680256D01*
X6329273Y-3686606D01*
X6329273Y-3855465D01*
X6329984Y-3861765D01*
X6331915Y-3867251D01*
X6334963Y-3872128D01*
X6339078Y-3876243D01*
X6343954Y-3879291D01*
X6349441Y-3881221D01*
G37*
G36*
X5447893Y-2344521D02*
G01*
X5454192Y-2343810D01*
X5459679Y-2341880D01*
X5464556Y-2338832D01*
X5468670Y-2334717D01*
X5471769Y-2329840D01*
X5473649Y-2324354D01*
X5474360Y-2318054D01*
X5474360Y-2308352D01*
X5447792Y-2308352D01*
G37*
G36*
X2262886Y-2127808D02*
G01*
X2272690Y-2126945D01*
X2282190Y-2124405D01*
X2291080Y-2120239D01*
X2299106Y-2114600D01*
X2306066Y-2107641D01*
X2311704Y-2099614D01*
X2315870Y-2090724D01*
X2318410Y-2081225D01*
X2319274Y-2071420D01*
X2318410Y-2061616D01*
X2315870Y-2052116D01*
X2311704Y-2043226D01*
X2305659Y-2034590D01*
X2304288Y-2031796D01*
X2303780Y-2028748D01*
X2303780Y-1958543D01*
X2302967Y-1950110D01*
X2300630Y-1942439D01*
X2296871Y-1935378D01*
X2291486Y-1928774D01*
X2213457Y-1850745D01*
X2211222Y-1847494D01*
X2210460Y-1843582D01*
X2210460Y-1833067D01*
X2209749Y-1826768D01*
X2207869Y-1821281D01*
X2204770Y-1816404D01*
X2200656Y-1812289D01*
X2195779Y-1809242D01*
X2190292Y-1807311D01*
X2183993Y-1806600D01*
X2171649Y-1806600D01*
X2167737Y-1805838D01*
X2164435Y-1803654D01*
X2162251Y-1800352D01*
X2161489Y-1796440D01*
X2161489Y-1633220D01*
X2160625Y-1624787D01*
X2158339Y-1617116D01*
X2154529Y-1610055D01*
X2149144Y-1603451D01*
X2085035Y-1539341D01*
X2083003Y-1536446D01*
X2082088Y-1533042D01*
X2081682Y-1528572D01*
X2079142Y-1519072D01*
X2074976Y-1510182D01*
X2069388Y-1502105D01*
X2062429Y-1495145D01*
X2054352Y-1489557D01*
X2045462Y-1485392D01*
X2035962Y-1482852D01*
X2026157Y-1481988D01*
X2016404Y-1482852D01*
X2006904Y-1485392D01*
X2003907Y-1486763D01*
X1999894Y-1487728D01*
X1995881Y-1487017D01*
X1992426Y-1484782D01*
X1990191Y-1481378D01*
X1989429Y-1477314D01*
X1993747Y-1297279D01*
X1994712Y-1293164D01*
X1997303Y-1289761D01*
X2001062Y-1287780D01*
X2014880Y-1283766D01*
X2031644Y-1276908D01*
X2047646Y-1268425D01*
X2062632Y-1258316D01*
X2076551Y-1246682D01*
X2089200Y-1233728D01*
X2100427Y-1219504D01*
X2110130Y-1204264D01*
X2118258Y-1188059D01*
X2124659Y-1171092D01*
X2129231Y-1153617D01*
X2132025Y-1135684D01*
X2132990Y-1117600D01*
X2132025Y-1099515D01*
X2129231Y-1081633D01*
X2124659Y-1064107D01*
X2118258Y-1047191D01*
X2110130Y-1030986D01*
X2100427Y-1015695D01*
X2089200Y-1001471D01*
X2076551Y-988517D01*
X2062632Y-976934D01*
X2047646Y-966825D01*
X2031644Y-958291D01*
X2014880Y-951484D01*
X1997456Y-946403D01*
X1979675Y-943152D01*
X1961591Y-941781D01*
X1943506Y-942238D01*
X1925523Y-944575D01*
X1907895Y-948740D01*
X1890826Y-954684D01*
X1874418Y-962355D01*
X1858873Y-971702D01*
X1844395Y-982522D01*
X1831086Y-994867D01*
X1819148Y-1008430D01*
X1808683Y-1023213D01*
X1799742Y-1038961D01*
X1796796Y-1042263D01*
X1792681Y-1043940D01*
X1788210Y-1043736D01*
X1784299Y-1041653D01*
X1781657Y-1038098D01*
X1780743Y-1033729D01*
X1781606Y-988720D01*
X1782622Y-984453D01*
X1785366Y-981049D01*
X1892655Y-893216D01*
X1895703Y-891489D01*
X1899107Y-890930D01*
X2061362Y-890930D01*
X2065477Y-891794D01*
X2068931Y-894283D01*
X2403805Y-1265326D01*
X2405888Y-1268984D01*
X2406345Y-1273149D01*
X2405075Y-1277162D01*
X2396642Y-1292047D01*
X2389378Y-1308658D01*
X2383891Y-1325930D01*
X2380183Y-1343660D01*
X2378303Y-1361643D01*
X2378303Y-1379778D01*
X2380183Y-1397762D01*
X2383891Y-1415491D01*
X2389378Y-1432763D01*
X2396642Y-1449374D01*
X2405583Y-1465122D01*
X2416048Y-1479854D01*
X2427986Y-1493469D01*
X2441295Y-1505762D01*
X2455773Y-1516634D01*
X2471318Y-1525981D01*
X2487726Y-1533652D01*
X2504795Y-1539595D01*
X2522423Y-1543761D01*
X2540406Y-1546098D01*
X2558491Y-1546555D01*
X2576576Y-1545132D01*
X2594356Y-1541881D01*
X2611780Y-1536852D01*
X2628544Y-1530045D01*
X2644546Y-1521510D01*
X2659532Y-1511401D01*
X2673451Y-1499819D01*
X2686100Y-1486814D01*
X2697327Y-1472641D01*
X2707030Y-1457350D01*
X2715158Y-1441145D01*
X2721559Y-1424228D01*
X2726131Y-1406702D01*
X2728925Y-1388821D01*
X2729890Y-1370736D01*
X2728925Y-1352651D01*
X2726131Y-1334719D01*
X2721559Y-1317244D01*
X2715158Y-1300276D01*
X2707030Y-1284071D01*
X2697327Y-1268780D01*
X2686100Y-1254607D01*
X2673451Y-1241602D01*
X2659532Y-1230020D01*
X2644546Y-1219911D01*
X2628544Y-1211427D01*
X2611780Y-1204569D01*
X2594356Y-1199540D01*
X2576576Y-1196289D01*
X2558491Y-1194866D01*
X2540406Y-1195324D01*
X2522423Y-1197660D01*
X2504795Y-1201826D01*
X2487726Y-1207770D01*
X2476449Y-1213053D01*
X2472283Y-1214018D01*
X2468118Y-1213154D01*
X2464612Y-1210665D01*
X2113229Y-821334D01*
X2106777Y-816051D01*
X2099716Y-812241D01*
X2092045Y-809955D01*
X2083562Y-809091D01*
X1881124Y-809091D01*
X1876958Y-809294D01*
X1872894Y-809904D01*
X1869084Y-810869D01*
X1865223Y-812241D01*
X1861667Y-813917D01*
X1858162Y-816000D01*
X1854758Y-818489D01*
X1712874Y-934770D01*
X1709521Y-938377D01*
X1707642Y-940866D01*
X1705102Y-945083D01*
X1703730Y-947877D01*
X1702054Y-952449D01*
X1701241Y-955497D01*
X1700479Y-960323D01*
X1700275Y-963726D01*
X1688033Y-1601012D01*
X1687169Y-1604822D01*
X1684934Y-1608074D01*
X1681632Y-1610207D01*
X1677771Y-1610969D01*
X1673961Y-1610156D01*
X1670659Y-1607972D01*
X1520698Y-1458010D01*
X1518412Y-1454505D01*
X1517700Y-1450340D01*
X1518767Y-1446276D01*
X1521358Y-1441145D01*
X1527759Y-1424228D01*
X1532331Y-1406702D01*
X1535125Y-1388821D01*
X1536090Y-1370736D01*
X1535125Y-1352651D01*
X1532331Y-1334719D01*
X1527759Y-1317244D01*
X1521358Y-1300276D01*
X1513230Y-1284071D01*
X1503527Y-1268780D01*
X1492300Y-1254607D01*
X1479651Y-1241602D01*
X1465732Y-1230020D01*
X1450746Y-1219911D01*
X1434744Y-1211427D01*
X1417980Y-1204569D01*
X1400556Y-1199540D01*
X1382776Y-1196289D01*
X1364691Y-1194866D01*
X1346606Y-1195324D01*
X1328623Y-1197660D01*
X1310995Y-1201826D01*
X1293926Y-1207770D01*
X1277518Y-1215440D01*
X1261973Y-1224788D01*
X1247495Y-1235659D01*
X1234186Y-1247952D01*
X1222248Y-1261567D01*
X1211783Y-1276299D01*
X1202842Y-1292047D01*
X1195578Y-1308658D01*
X1190091Y-1325930D01*
X1186383Y-1343660D01*
X1184503Y-1361643D01*
X1184503Y-1379778D01*
X1186383Y-1397762D01*
X1190091Y-1415491D01*
X1195578Y-1432763D01*
X1202842Y-1449374D01*
X1211783Y-1465122D01*
X1222248Y-1479854D01*
X1234186Y-1493469D01*
X1247495Y-1505762D01*
X1261973Y-1516634D01*
X1277518Y-1525981D01*
X1293926Y-1533652D01*
X1310995Y-1539595D01*
X1328623Y-1543761D01*
X1346606Y-1546098D01*
X1364691Y-1546555D01*
X1382776Y-1545132D01*
X1400556Y-1541881D01*
X1417980Y-1536852D01*
X1434744Y-1530045D01*
X1450746Y-1521510D01*
X1454404Y-1519021D01*
X1457604Y-1517599D01*
X1461058Y-1517345D01*
X1464411Y-1518259D01*
X1467256Y-1520291D01*
X1827682Y-1880717D01*
X1829866Y-1883968D01*
X1830679Y-1887880D01*
X1830679Y-1898446D01*
X1831390Y-1904746D01*
X1833270Y-1910232D01*
X1836318Y-1915058D01*
X1841601Y-1920189D01*
X1843836Y-1923542D01*
X1844649Y-1927453D01*
X1844649Y-1985162D01*
X1939188Y-1985162D01*
X1939188Y-1934260D01*
X1940102Y-1930146D01*
X1942592Y-1926691D01*
X1946300Y-1924608D01*
X1950516Y-1924151D01*
X1957120Y-1924913D01*
X1983993Y-1924913D01*
X1990293Y-1924202D01*
X1995576Y-1922983D01*
X2000808Y-1924202D01*
X2007107Y-1924913D01*
X2033981Y-1924913D01*
X2040331Y-1924202D01*
X2045563Y-1922983D01*
X2050796Y-1924202D01*
X2057146Y-1924913D01*
X2083968Y-1924913D01*
X2090623Y-1924151D01*
X2094839Y-1924608D01*
X2098497Y-1926691D01*
X2101037Y-1930146D01*
X2101900Y-1934260D01*
X2101900Y-1985162D01*
X2196490Y-1985162D01*
X2196490Y-1974037D01*
X2197252Y-1970125D01*
X2199436Y-1966823D01*
X2202738Y-1964639D01*
X2206650Y-1963877D01*
X2210511Y-1964639D01*
X2213813Y-1966823D01*
X2218994Y-1972056D01*
X2221230Y-1975307D01*
X2221992Y-1979218D01*
X2221992Y-2028748D01*
X2221534Y-2031796D01*
X2220163Y-2034539D01*
X2214067Y-2043226D01*
X2209901Y-2052116D01*
X2207361Y-2061616D01*
X2206498Y-2071420D01*
X2207361Y-2081225D01*
X2209901Y-2090724D01*
X2214067Y-2099614D01*
X2219706Y-2107641D01*
X2226665Y-2114600D01*
X2234692Y-2120239D01*
X2243582Y-2124405D01*
X2253081Y-2126945D01*
G37*

%LPD*%
D10*
X2705506Y-4342513D02*
G01*
X2561826Y-4486201D01*
X2839874Y-5090845D02*
G01*
X2947675Y-5168013D01*
X2947675Y-5447413D01*
X2871475Y-5523613D01*
X1918975Y-5523613D01*
X1862073Y-5409567D01*
X1920575Y-1865759D02*
G01*
X1920575Y-1825551D01*
X1728475Y-1624713D01*
X1741175Y-964313D01*
X1880875Y-850013D01*
X2084075Y-850013D01*
X2553975Y-1370713D01*
X1957075Y-1117600D02*
G01*
X1941509Y-1773199D01*
X1970592Y-1802284D01*
X4624075Y-1383413D02*
G01*
X4624075Y-1393446D01*
X5134493Y-1903859D01*
X1360175Y-1370713D02*
G01*
X1375542Y-1370713D01*
X1870593Y-1865759D01*
X5361716Y-4311017D02*
G01*
X5386943Y-4336237D01*
X5386943Y-4761613D01*
X5321607Y-4311017D02*
G01*
X5361716Y-4311017D01*
X5321607Y-4311017D02*
G01*
X5281472Y-4311017D01*
X5201267Y-4311017D02*
G01*
X5154226Y-4263976D01*
X4572792Y-4263976D01*
X4430760Y-4406013D01*
X5281472Y-4311017D02*
G01*
X5201267Y-4311017D01*
X4340148Y-4406013D02*
G01*
X4430760Y-4406013D01*
X1827072Y-4628517D02*
G01*
X1907316Y-4628517D01*
X2554843Y-4342513D02*
G01*
X2484297Y-4342513D01*
X2803448Y-4672713D02*
G01*
X2803448Y-4306194D01*
X2758577Y-4261309D01*
X2636042Y-4261309D01*
X2625399Y-4271949D01*
X2625399Y-4342513D01*
X2554843Y-4342513D02*
G01*
X2625399Y-4342513D01*
X2484297Y-4342513D02*
G01*
X2264925Y-4561893D01*
X1973943Y-4561893D01*
X1907316Y-4628517D01*
X4136699Y-3732913D02*
G01*
X4136699Y-3803477D01*
X4139750Y-3806520D01*
X4409043Y-3806520D01*
X4431850Y-3783713D01*
X4066143Y-3732913D02*
G01*
X4136699Y-3732913D01*
X4513943Y-3783713D02*
G01*
X4431850Y-3783713D01*
X4044401Y-4274108D02*
G01*
X4044401Y-4406013D01*
X5220975Y-2831213D02*
G01*
X5220975Y-3097535D01*
X4775210Y-3543300D01*
X4775210Y-3543300D02*
G01*
X4775210Y-3647721D01*
X4734206Y-3688717D01*
X5132075Y-4109745D02*
G01*
X5132075Y-4191843D01*
X4691618Y-4191843D02*
G01*
X5132075Y-4191843D01*
X4066143Y-4050413D02*
G01*
X3995597Y-4050413D01*
X2496997Y-4075813D02*
G01*
X2369997Y-3948813D01*
X2088243Y-3948813D01*
X2567543Y-4075813D02*
G01*
X2496997Y-4075813D01*
X1678543Y-4281779D02*
G01*
X1738558Y-4221764D01*
X1738558Y-3948813D01*
X1656443Y-3948813D02*
G01*
X1738558Y-3948813D01*
X1678543Y-4355213D02*
G01*
X1678543Y-4281779D01*
X5541500Y-4501009D02*
G01*
X5621731Y-4501009D01*
X5608152Y-4761613D02*
G01*
X5608152Y-4691075D01*
X5689981Y-4609238D01*
X5621731Y-4501009D02*
G01*
X5621731Y-4540989D01*
X5689981Y-4609238D01*
X5537606Y-4761613D02*
G01*
X5608152Y-4761613D01*
X5434482Y-1903859D02*
G01*
X5455640Y-1925017D01*
X5530265Y-1925017D01*
X5379897Y-1894283D02*
G01*
X5379897Y-1899290D01*
X5384474Y-1903859D01*
X5379897Y-1894283D02*
G01*
X5379897Y-1859180D01*
X5405856Y-1833222D01*
X5514314Y-1833222D01*
X5529818Y-1848718D01*
X5727783Y-1848718D01*
X5621731Y-4311017D02*
G01*
X6046525Y-3886225D01*
X6071875Y-3886225D01*
X5541500Y-4311017D02*
G01*
X5621731Y-4311017D01*
X6071875Y-3771013D02*
G01*
X6071875Y-3886225D01*
X5334492Y-1840384D02*
G01*
X5387068Y-1787804D01*
X5564558Y-1787804D01*
X5334492Y-1903859D02*
G01*
X5334492Y-1840384D01*
X2026193Y-1538356D02*
G01*
X2120574Y-1632737D01*
X2120574Y-1865759D01*
X1771225Y-3702179D02*
G01*
X1771225Y-2706880D01*
X2020575Y-2457531D01*
X2020575Y-2247267D01*
X1771225Y-3702179D02*
G01*
X2623974Y-3702179D01*
X2705506Y-3783713D01*
X521975Y-4736213D02*
G01*
X521975Y-4597834D01*
X968509Y-4151299D01*
X1322100Y-4151299D01*
X1771225Y-3702179D01*
X1920575Y-2310742D02*
G01*
X512041Y-3719271D01*
X509275Y-3719271D01*
X1920575Y-2247267D02*
G01*
X1920575Y-2310742D01*
X509275Y-3834513D02*
G01*
X509275Y-3719271D01*
X4871974Y-4685667D02*
G01*
X4471959Y-4685667D01*
X4383308Y-4774313D01*
X4871974Y-4597580D02*
G01*
X4871974Y-4685667D01*
X4313074Y-4774313D02*
G01*
X4383308Y-4774313D01*
X2839874Y-5015613D02*
G01*
X2839874Y-5090845D01*
X1862073Y-5321480D02*
G01*
X1862073Y-5409567D01*
X5284475Y-2154610D02*
G01*
X5284475Y-2094613D01*
X5224459Y-2154610D02*
G01*
X5284475Y-2154610D01*
X2020575Y-2116510D02*
G01*
X2020575Y-2056513D01*
X4966975Y-4597580D02*
G01*
X4966975Y-4713381D01*
X4950566Y-4729789D01*
X4950566Y-4787013D02*
G01*
X4950566Y-4729789D01*
X1957075Y-5409567D02*
G01*
X1957247Y-5409747D01*
X2264156Y-5409747D01*
X2296266Y-5377637D01*
X2296266Y-5320413D02*
G01*
X2296266Y-5377637D01*
X5284475Y-2154610D02*
G01*
X5344439Y-2154610D01*
X5434482Y-2221892D02*
G01*
X5411724Y-2221892D01*
X5344464Y-2154633D01*
X5134493Y-2221892D02*
G01*
X5157165Y-2221892D01*
X5224459Y-2154610D01*
X2020575Y-2116510D02*
G01*
X1960559Y-2116510D01*
X1960559Y-2116510D02*
G01*
X1893265Y-2183792D01*
X1870593Y-2183792D01*
X1870593Y-2247267D02*
G01*
X1870593Y-2183792D01*
X4950566Y-4787013D02*
G01*
X4950566Y-4844237D01*
X4930548Y-4864254D02*
G01*
X4950566Y-4844237D01*
X2699875Y-5015613D02*
G01*
X2629641Y-5015613D01*
X1957075Y-5365521D02*
G01*
X1957075Y-5409567D01*
X1957075Y-5365521D02*
G01*
X1957075Y-5321480D01*
X5434482Y-2253617D02*
G01*
X5434482Y-2221892D01*
X5434482Y-2253617D02*
G01*
X5434482Y-2285367D01*
X5541500Y-4406013D02*
G01*
X5461281Y-4406013D01*
X4935075Y-4951605D02*
G01*
X4935075Y-4868776D01*
X4930548Y-4864254D01*
X2306175Y-4998598D02*
G01*
X2011992Y-4998598D01*
X1957075Y-5053507D01*
X1957075Y-5321480D01*
X2306175Y-4998598D02*
G01*
X2306175Y-5041013D01*
X2087100Y-4723513D02*
G01*
X2167331Y-4723513D01*
X4930548Y-4864254D02*
G01*
X4905608Y-4864254D01*
X4878633Y-4837280D01*
X4828169Y-4837280D01*
X4814674Y-4850767D01*
X4249524Y-4850767D01*
X4173075Y-4774313D01*
X5434482Y-2285367D02*
G01*
X5434482Y-3128467D01*
X4744897Y-3818056D01*
X4666081Y-3818056D01*
X4645667Y-3838475D01*
X4645667Y-3996339D01*
X4645667Y-3996339D02*
G01*
X4544872Y-3996339D01*
X4173075Y-4368142D01*
X4173075Y-4774313D01*
X4935075Y-5015613D02*
G01*
X4935075Y-4983609D01*
X4935075Y-4983609D02*
G01*
X4935075Y-4951605D01*
X4935075Y-4983609D02*
G01*
X3309043Y-4983609D01*
X3265634Y-4940200D01*
X2646867Y-4940200D01*
X2615973Y-4971089D01*
X2629641Y-5015613D02*
G01*
X2615973Y-5001945D01*
X2615973Y-4971089D01*
X4645667Y-3996339D02*
G01*
X4647727Y-3998391D01*
X5161033Y-3998391D01*
X5446834Y-4284197D01*
X5446834Y-4391558D01*
X5461281Y-4406013D01*
X5134493Y-2231547D02*
G01*
X5134493Y-2221892D01*
X2170582Y-2247267D02*
G01*
X2170582Y-2183792D01*
X5134493Y-2285367D02*
G01*
X5134493Y-2231547D01*
X2020575Y-2116510D02*
G01*
X2080539Y-2116510D01*
X2170582Y-2183792D02*
G01*
X2103323Y-2116533D01*
X2080564Y-2116533D01*
X2339167Y-4965600D02*
G01*
X2339167Y-4895342D01*
X2167331Y-4723513D01*
X2615973Y-4971089D02*
G01*
X2610492Y-4965600D01*
X2339167Y-4965600D01*
X2339167Y-4965600D02*
G01*
X2306175Y-4998598D01*
X5234492Y-1903859D02*
G01*
X5234492Y-1849450D01*
X5202582Y-1817550D01*
X5202582Y-1148692D01*
X5220975Y-1130300D01*
X4881534Y-3911729D02*
G01*
X5014823Y-3911729D01*
X5037074Y-3889481D01*
X4734206Y-3878709D02*
G01*
X4816299Y-3878709D01*
X5227076Y-3889481D02*
G01*
X5227076Y-3807383D01*
X4816299Y-3878709D02*
G01*
X4887798Y-3807208D01*
X5226890Y-3807208D01*
X5226890Y-3807208D02*
G01*
X5227076Y-3807383D01*
X5226890Y-3807208D02*
G01*
X5817875Y-3216226D01*
X5817875Y-1383413D01*
X5184475Y-1903859D02*
G01*
X5184475Y-1863651D01*
X5141699Y-1820875D01*
X2203709Y-3866263D02*
G01*
X2213940Y-3866263D01*
X2226391Y-3853817D01*
X2308506Y-3853817D02*
G01*
X2226391Y-3853817D01*
X2507701Y-4672713D02*
G01*
X2598300Y-4672713D01*
X2308506Y-3853817D02*
G01*
X2476682Y-3853817D01*
X2647477Y-4024604D01*
X2647477Y-4145917D01*
X2717449Y-4215892D01*
X2787449Y-4215892D01*
X2909824Y-4338271D01*
X2909824Y-4763795D01*
X2885465Y-4788154D01*
X2713741Y-4788154D01*
X2598300Y-4672713D01*
X1970592Y-1865759D02*
G01*
X1970592Y-1802284D01*
X1876706Y-3853817D02*
G01*
X1958799Y-3853817D01*
X1977773Y-3839568D02*
G01*
X1973049Y-3839568D01*
X1958799Y-3853817D01*
X2308506Y-4043809D02*
G01*
X1876706Y-4043809D01*
X2527335Y-4191055D02*
G01*
X2390599Y-4054327D01*
X2390599Y-4043809D01*
X2308506Y-4043809D02*
G01*
X2390599Y-4043809D01*
X4871974Y-4366846D02*
G01*
X4871974Y-4455820D01*
X4871974Y-4455820D02*
G01*
X4898798Y-4482647D01*
X5001615Y-4482647D01*
X5284475Y-1903859D02*
G01*
X5284475Y-1840384D01*
X5284475Y-1840384D02*
G01*
X5284475Y-1813308D01*
X5278460Y-1807288D01*
X1862073Y-5090746D02*
G01*
X1862073Y-5001773D01*
X1017275Y-4748913D02*
G01*
X1121288Y-4748913D01*
X1121288Y-4748913D02*
G01*
X1609219Y-4748913D01*
X1862073Y-5001773D01*
X2008532Y-1745363D02*
G01*
X2020575Y-1757405D01*
X2020575Y-1865759D01*
X2006881Y-4818509D02*
G01*
X1993165Y-4832225D01*
X1961515Y-4832225D01*
X2087100Y-4818509D02*
G01*
X2006881Y-4818509D01*
X2170582Y-1865759D02*
G01*
X2262891Y-1958063D01*
X2262891Y-2071420D01*
X2087100Y-4628517D02*
G01*
X1972876Y-4628517D01*
X1877872Y-4723513D01*
X2070592Y-1865759D02*
G01*
X2070592Y-1690446D01*
X2020351Y-1640210D01*
X5753506Y-5168013D02*
G01*
X5824052Y-5168013D01*
X5284475Y-2285367D02*
G01*
X5284475Y-2356078D01*
X5295402Y-2367005D01*
X5436006Y-5053713D02*
G01*
X6185258Y-5053713D01*
X6375758Y-4863213D01*
X6490975Y-4863213D02*
G01*
X6375758Y-4863213D01*
X5234492Y-2285367D02*
G01*
X5234492Y-2437079D01*
X5188158Y-2483408D01*
X2254023Y-4193722D02*
G01*
X2273706Y-4213405D01*
X2273706Y-4355213D01*
X883800Y-4020870D02*
G01*
X883800Y-3514725D01*
X1970592Y-2427937D01*
X1970592Y-2247267D01*
X624517Y-4317113D02*
G01*
X624517Y-4280154D01*
X883800Y-4020870D01*
X883800Y-4020870D02*
G01*
X902114Y-4020870D01*
X971659Y-4090418D01*
X509275Y-4317113D02*
G01*
X624517Y-4317113D01*
X5184475Y-2285367D02*
G01*
X5184475Y-2348842D01*
X5184475Y-2348842D02*
G01*
X5171577Y-2348842D01*
X5155651Y-2364767D01*
X5061976Y-4597580D02*
G01*
X5061976Y-4727402D01*
X5059583Y-4729789D01*
X2405283Y-5320413D02*
G01*
X2405283Y-5263189D01*
X2052076Y-5247337D02*
G01*
X2052076Y-5321480D01*
X5281472Y-4501009D02*
G01*
X5241376Y-4501009D01*
X5061976Y-4597580D02*
G01*
X5061976Y-4509493D01*
X5061976Y-4455820D02*
G01*
X5070459Y-4464304D01*
X5070459Y-4501009D01*
X5241376Y-4501009D02*
G01*
X5070459Y-4501009D01*
X5070459Y-4501009D02*
G01*
X5061976Y-4509493D01*
X5602843Y-5168013D02*
G01*
X5399643Y-5168013D01*
X5355899Y-5124277D01*
X5355899Y-5053713D01*
X5285343Y-5053713D02*
G01*
X5355899Y-5053713D01*
X2799031Y-4027909D02*
G01*
X2625399Y-3854277D01*
X2625399Y-3783713D01*
X2799031Y-4027909D02*
G01*
X2788752Y-4038196D01*
X2788752Y-4075813D01*
X2718206Y-4075813D02*
G01*
X2788752Y-4075813D01*
X1827072Y-4818509D02*
G01*
X1746867Y-4818509D01*
X2123043Y-4355213D02*
G01*
X1829206Y-4355213D01*
X1829206Y-4355213D02*
G01*
X1758650Y-4355213D01*
X2731775Y-5320413D02*
G01*
X2405283Y-5320413D01*
X5075074Y-5015613D02*
G01*
X5145308Y-5015613D01*
X2446174Y-5041013D02*
G01*
X2446174Y-5190591D01*
X2389433Y-5247337D01*
X2052076Y-5247337D02*
G01*
X2389433Y-5247337D01*
X2389433Y-5247337D02*
G01*
X2405283Y-5263189D01*
X5061976Y-4366846D02*
G01*
X5061976Y-4455820D01*
X2052076Y-5247337D02*
G01*
X2052076Y-5090746D01*
X2590116Y-3783713D02*
G01*
X2625399Y-3783713D01*
X2590116Y-3783713D02*
G01*
X2554843Y-3783713D01*
X1829206Y-4355213D02*
G01*
X1829206Y-4281779D01*
X5059583Y-4787013D02*
G01*
X5059583Y-4783863D01*
X5059583Y-4783863D02*
G01*
X5059583Y-4729789D01*
X5059583Y-4783863D02*
G01*
X5075074Y-4799360D01*
X5075074Y-5015613D01*
X4216806Y-3732913D02*
G01*
X4142541Y-3658641D01*
X3995425Y-3829024D02*
G01*
X2997916Y-3829024D01*
X2799031Y-4027909D01*
X4146250Y-4050413D02*
G01*
X4146250Y-3979849D01*
X3995425Y-3829024D01*
X3995425Y-3829024D02*
G01*
X3995425Y-3677033D01*
X4013817Y-3658641D01*
X4142541Y-3658641D01*
X4142541Y-2880159D02*
G01*
X4142541Y-3658641D01*
X4142541Y-2880159D02*
G01*
X2686085Y-2880159D01*
X2120574Y-2314656D01*
X2120574Y-2247267D01*
X3181197Y-4468266D02*
G01*
X2788752Y-4075813D01*
X4216806Y-4050413D02*
G01*
X4146250Y-4050413D01*
X5285343Y-5053713D02*
G01*
X5183408Y-5053713D01*
X5145308Y-5015613D01*
X5145308Y-5015613D02*
G01*
X5060241Y-5100680D01*
X3181197Y-5100680D01*
X2484297Y-3783713D02*
G01*
X2479276Y-3778684D01*
X1820240Y-3778684D01*
X1792533Y-3806398D01*
X1792533Y-4245104D01*
X1829206Y-4281779D01*
X2554843Y-3783713D02*
G01*
X2484297Y-3783713D01*
X4142541Y-2880159D02*
G01*
X4877541Y-2880159D01*
X5384474Y-2373226D01*
X5384474Y-2285367D01*
X1758650Y-4355213D02*
G01*
X1758650Y-4425777D01*
X1708332Y-4476092D01*
X1708332Y-4779975D01*
X1746867Y-4818509D01*
X5943600Y-4851400D02*
G01*
X5943600Y-4862852D01*
X5956660Y-4875913D01*
X5823965Y-5168137D02*
G01*
X5956300Y-5486400D01*
X6235700Y-5486400D01*
X6325615Y-5307837D01*
X6503670Y-5307837D01*
X5689981Y-4609238D02*
G01*
X5943594Y-4851397D01*
X3995597Y-4050413D02*
G01*
X3953568Y-4092450D01*
X3953568Y-4687849D01*
X4175384Y-4909672D01*
X4841885Y-4909672D01*
X5134493Y-2231547D02*
G01*
X5086731Y-2183792D01*
X2170582Y-2183792D01*
D11*
G01*
X2405280Y-5320413D03*
G01*
X2296269Y-5320413D03*
G01*
X5059580Y-4787013D03*
G01*
X4950569Y-4787013D03*
D12*
G01*
X2446172Y-5041011D03*
G01*
X2306167Y-5041011D03*
G01*
X2839872Y-5015611D03*
G01*
X2699867Y-5015611D03*
G01*
X5075072Y-5015611D03*
G01*
X4935067Y-5015611D03*
G01*
X4313072Y-4774311D03*
G01*
X4173067Y-4774311D03*
D13*
G01*
X1876700Y-4043813D03*
G01*
X1876700Y-3853813D03*
G01*
X1656449Y-3948813D03*
G01*
X2308500Y-4043813D03*
G01*
X2308500Y-3853813D03*
G01*
X2088249Y-3948813D03*
D14*
G01*
X5227065Y-3889476D03*
G01*
X5037074Y-3889476D03*
G01*
X5132070Y-4109745D03*
D13*
G01*
X4734200Y-3878713D03*
G01*
X4734200Y-3688713D03*
G01*
X4513949Y-3783713D03*
D15*
G01*
X2273700Y-4355213D03*
G01*
X2123050Y-4355213D03*
G01*
X2705500Y-3783713D03*
G01*
X2554850Y-3783713D03*
G01*
X1829200Y-4355213D03*
G01*
X1678550Y-4355213D03*
G01*
X2718200Y-4075813D03*
G01*
X2567550Y-4075813D03*
G01*
X2705500Y-4342513D03*
G01*
X2554850Y-4342513D03*
G01*
X5537600Y-4761613D03*
G01*
X5386950Y-4761613D03*
G01*
X5753500Y-5168013D03*
G01*
X5602850Y-5168013D03*
G01*
X5436000Y-5053713D03*
G01*
X5285350Y-5053713D03*
G01*
X4216800Y-4050413D03*
G01*
X4066150Y-4050413D03*
G01*
X4216800Y-3732913D03*
G01*
X4066150Y-3732913D03*
D16*
G01*
X2803451Y-4672713D03*
G01*
X2507698Y-4672713D03*
G01*
X4340151Y-4406013D03*
G01*
X4044398Y-4406013D03*
D17*
G01*
X1870562Y-2247263D03*
G01*
X1920562Y-2247263D03*
G01*
X1970562Y-2247263D03*
G01*
X2020562Y-2247263D03*
G01*
X2070562Y-2247263D03*
G01*
X2120562Y-2247263D03*
G01*
X2170562Y-2247263D03*
D18*
G01*
X1870557Y-1865756D03*
G01*
X1920570Y-1865756D03*
G01*
X1970557Y-1865756D03*
G01*
X2020570Y-1865756D03*
G01*
X2070557Y-1865756D03*
G01*
X2120569Y-1865756D03*
G01*
X2170556Y-1865756D03*
D19*
G01*
X2020562Y-2056513D03*
D17*
G01*
X5134462Y-2285363D03*
G01*
X5184462Y-2285363D03*
G01*
X5234462Y-2285363D03*
G01*
X5284462Y-2285363D03*
G01*
X5334462Y-2285363D03*
G01*
X5384462Y-2285363D03*
G01*
X5434462Y-2285363D03*
D18*
G01*
X5134457Y-1903856D03*
G01*
X5184470Y-1903856D03*
G01*
X5234457Y-1903856D03*
G01*
X5284470Y-1903856D03*
G01*
X5334457Y-1903856D03*
G01*
X5384469Y-1903856D03*
G01*
X5434456Y-1903856D03*
D19*
G01*
X5284462Y-2094613D03*
D20*
G01*
X1827072Y-4818506D03*
G01*
X1827072Y-4628514D03*
G01*
X2087092Y-4628514D03*
G01*
X2087092Y-4723511D03*
G01*
X2087092Y-4818506D03*
G01*
X5281472Y-4501006D03*
G01*
X5281472Y-4311014D03*
G01*
X5541492Y-4311014D03*
G01*
X5541492Y-4406011D03*
G01*
X5541492Y-4501006D03*
D21*
G01*
X1862073Y-5321477D03*
G01*
X1957070Y-5321477D03*
G01*
X2052065Y-5321477D03*
D22*
G01*
X2052065Y-5090744D03*
G01*
X1862073Y-5090744D03*
D21*
G01*
X4871974Y-4597577D03*
G01*
X4966970Y-4597577D03*
G01*
X5061965Y-4597577D03*
D22*
G01*
X5061965Y-4366844D03*
G01*
X4871974Y-4366844D03*
D23*
G01*
X509270Y-3834511D03*
G01*
X6465570Y-4355211D03*
G01*
X509270Y-4317111D03*
G01*
X6490970Y-4863211D03*
G01*
X521970Y-4736211D03*
G01*
X6503670Y-5307711D03*
G01*
X521970Y-5193411D03*
G01*
X1017270Y-5193411D03*
G01*
X6071870Y-3771011D03*
G01*
X6440170Y-3771011D03*
G01*
X2731770Y-5320411D03*
G01*
X1017270Y-3834511D03*
G01*
X6084570Y-4393311D03*
G01*
X1017270Y-4317111D03*
G01*
X5943600Y-4851400D03*
G01*
X1017270Y-4748911D03*
G01*
X6109970Y-5244211D03*
D24*
G01*
X1957070Y-2818511D03*
G01*
X1360170Y-1370711D03*
G01*
X1957070Y-1117600D03*
G01*
X2553970Y-1370711D03*
G01*
X5220970Y-2831211D03*
G01*
X4624070Y-1383411D03*
G01*
X5220970Y-1130300D03*
G01*
X5817870Y-1383411D03*
D25*
G01*
X2080590Y-1996516D03*
G01*
X1960549Y-2116505D03*
G01*
X1960575Y-1996490D03*
G01*
X2080564Y-2116531D03*
G01*
X5344490Y-2034616D03*
G01*
X5224449Y-2154605D03*
G01*
X5224475Y-2034590D03*
G01*
X5344464Y-2154631D03*
D26*
G01*
X3181197Y-5100675D03*
G01*
X3181197Y-4468266D03*
G01*
X5155641Y-2364765D03*
G01*
X2254021Y-4193717D03*
G01*
X971651Y-4090415D03*
G01*
X5188153Y-2483408D03*
G01*
X5295391Y-2367000D03*
G01*
X2020341Y-1640204D03*
G01*
X1877872Y-4723511D03*
G01*
X2262886Y-2071420D03*
G01*
X2561818Y-4486198D03*
G01*
X1961515Y-4832222D03*
G01*
X2008530Y-1745361D03*
G01*
X5278450Y-1807286D03*
G01*
X5001615Y-4482642D03*
G01*
X2527325Y-4191050D03*
G01*
X1977770Y-3839565D03*
G01*
X2203704Y-3866261D03*
G01*
X5141696Y-1820875D03*
G01*
X4881524Y-3911727D03*
G01*
X2026183Y-1538351D03*
G01*
X5564555Y-1787804D03*
G01*
X5727776Y-1848713D03*
G01*
X5530265Y-1925015D03*
G01*
X4691608Y-4191838D03*
G01*
X4841875Y-4909667D03*
G01*
X4044391Y-4274108D03*
G01*
X4775200Y-3543300D03*
M02*
