M48
METRIC,LZ,000.000
;FILE_FORMAT=3:3
;TYPE=PLATED
;Layer: PTH_Through_Via
;EasyEDA v6.5.29, 2023-07-10 19:36:55
;1e7b4ab6233f4b76a91dc94f4c831b37,398929e9e95146ce9e037ed163e1f376,10
;Gerber Generator version 0.2
;Holesize 1 = 0.305 mm
T01C0.305
;Holesize 2 = 0.306 mm
T02C0.306
%
G05
G90
T01
X018325Y-046052
X017125Y-044852
X018326Y-044852
X017125Y-046052
X053320Y-044217
X054520Y-045417
X053320Y-045417
X054521Y-044217
T02
X023724Y-043437
X026369Y-042084
X023699Y-045433
X024968Y-046703
X052852Y-046810
X053378Y-037042
X042541Y-048019
X044925Y-041576
X048947Y-039986
X022545Y-047043
X048049Y-042687
X050506Y-044468
X025515Y-045849
X030798Y-045325
X022580Y-057977
X021436Y-044923
X021225Y-041766
X047290Y-041061
X038807Y-054751
X050834Y-042926
X020450Y-046458
X058729Y-045106
X056629Y-045880
X020066Y-043307
M30
