G04 Layer: TopPasteMaskLayer*
G04 EasyEDA v6.5.29, 2023-07-10 19:36:55*
G04 1e7b4ab6233f4b76a91dc94f4c831b37,398929e9e95146ce9e037ed163e1f376,10*
G04 Gerber Generator version 0.2*
G04 Scale: 100 percent, Rotated: No, Reflected: No *
G04 Dimensions in millimeters *
G04 leading zeros omitted , absolute positions ,4 integer and 5 decimal *
%FSLAX45Y45*%
%MOMM*%

%AMMACRO1*21,1,$1,$2,0,0,$3*%
%ADD10R,0.8000X0.9000*%
%ADD11MACRO1,0.665X0.28X0.0000*%
%ADD12MACRO1,2.6X3X0.0000*%
%ADD13R,1.0000X0.6000*%
%ADD14R,0.4900X1.1570*%
%ADD15R,0.4900X1.1750*%
%ADD16R,0.5320X1.0375*%
%ADD17MACRO1,0.532X1.0375X90.0000*%
%ADD18MACRO1,0.532X1.0375X-90.0000*%
%ADD19C,0.0165*%

%LPD*%
G36*
X1445564Y-5025694D02*
G01*
X1440535Y-5030673D01*
X1440535Y-5075682D01*
X1445564Y-5080660D01*
X1493520Y-5080660D01*
X1500530Y-5075682D01*
X1500530Y-5030673D01*
X1493520Y-5025694D01*
G37*
G36*
X1543558Y-5025694D02*
G01*
X1536547Y-5030673D01*
X1536547Y-5075682D01*
X1543558Y-5080660D01*
X1591564Y-5080660D01*
X1596542Y-5075682D01*
X1596542Y-5030673D01*
X1591564Y-5025694D01*
G37*
G36*
X5661964Y-4987594D02*
G01*
X5656935Y-4992573D01*
X5656935Y-5037582D01*
X5661964Y-5042560D01*
X5709920Y-5042560D01*
X5716930Y-5037582D01*
X5716930Y-4992573D01*
X5709920Y-4987594D01*
G37*
G36*
X5759958Y-4987594D02*
G01*
X5752947Y-4992573D01*
X5752947Y-5037582D01*
X5759958Y-5042560D01*
X5807964Y-5042560D01*
X5812942Y-5037582D01*
X5812942Y-4992573D01*
X5807964Y-4987594D01*
G37*
G36*
X1177036Y-4373168D02*
G01*
X1172057Y-4378198D01*
X1172057Y-4400956D01*
X1209040Y-4400956D01*
X1209040Y-4433976D01*
X1172057Y-4433976D01*
X1172057Y-4458157D01*
X1177036Y-4463186D01*
X1257046Y-4463186D01*
X1262024Y-4458157D01*
X1262024Y-4378198D01*
X1257046Y-4373168D01*
G37*
G36*
X1018032Y-4373168D02*
G01*
X1013053Y-4378198D01*
X1013053Y-4458157D01*
X1018032Y-4463186D01*
X1097026Y-4463186D01*
X1102055Y-4458157D01*
X1102055Y-4433976D01*
X1064056Y-4433976D01*
X1064056Y-4400956D01*
X1102055Y-4400956D01*
X1102055Y-4378198D01*
X1097026Y-4373168D01*
G37*
G36*
X1164336Y-4627168D02*
G01*
X1159357Y-4632198D01*
X1159357Y-4654956D01*
X1196340Y-4654956D01*
X1196340Y-4687976D01*
X1159357Y-4687976D01*
X1159357Y-4712157D01*
X1164336Y-4717186D01*
X1244346Y-4717186D01*
X1249324Y-4712157D01*
X1249324Y-4632198D01*
X1244346Y-4627168D01*
G37*
G36*
X1005332Y-4627168D02*
G01*
X1000353Y-4632198D01*
X1000353Y-4712157D01*
X1005332Y-4717186D01*
X1084326Y-4717186D01*
X1089355Y-4712157D01*
X1089355Y-4687976D01*
X1051356Y-4687976D01*
X1051356Y-4654956D01*
X1089355Y-4654956D01*
X1089355Y-4632198D01*
X1084326Y-4627168D01*
G37*
G36*
X2447036Y-3661968D02*
G01*
X2442057Y-3666998D01*
X2442057Y-3689756D01*
X2479040Y-3689756D01*
X2479040Y-3722776D01*
X2442057Y-3722776D01*
X2442057Y-3746957D01*
X2447036Y-3751986D01*
X2527046Y-3751986D01*
X2532024Y-3746957D01*
X2532024Y-3666998D01*
X2527046Y-3661968D01*
G37*
G36*
X2288032Y-3661968D02*
G01*
X2283053Y-3666998D01*
X2283053Y-3746957D01*
X2288032Y-3751986D01*
X2367026Y-3751986D01*
X2372055Y-3746957D01*
X2372055Y-3722776D01*
X2334056Y-3722776D01*
X2334056Y-3689756D01*
X2372055Y-3689756D01*
X2372055Y-3666998D01*
X2367026Y-3661968D01*
G37*
G36*
X2815336Y-3674668D02*
G01*
X2810357Y-3679698D01*
X2810357Y-3702456D01*
X2847340Y-3702456D01*
X2847340Y-3735476D01*
X2810357Y-3735476D01*
X2810357Y-3759657D01*
X2815336Y-3764686D01*
X2895346Y-3764686D01*
X2900324Y-3759657D01*
X2900324Y-3679698D01*
X2895346Y-3674668D01*
G37*
G36*
X2656332Y-3674668D02*
G01*
X2651353Y-3679698D01*
X2651353Y-3759657D01*
X2656332Y-3764686D01*
X2735326Y-3764686D01*
X2740355Y-3759657D01*
X2740355Y-3735476D01*
X2702356Y-3735476D01*
X2702356Y-3702456D01*
X2740355Y-3702456D01*
X2740355Y-3679698D01*
X2735326Y-3674668D01*
G37*
G36*
X2713736Y-5135168D02*
G01*
X2708757Y-5140198D01*
X2708757Y-5162956D01*
X2745740Y-5162956D01*
X2745740Y-5195976D01*
X2708757Y-5195976D01*
X2708757Y-5220157D01*
X2713736Y-5225186D01*
X2793746Y-5225186D01*
X2798724Y-5220157D01*
X2798724Y-5140198D01*
X2793746Y-5135168D01*
G37*
G36*
X2554732Y-5135168D02*
G01*
X2549753Y-5140198D01*
X2549753Y-5220157D01*
X2554732Y-5225186D01*
X2633726Y-5225186D01*
X2638755Y-5220157D01*
X2638755Y-5195976D01*
X2600756Y-5195976D01*
X2600756Y-5162956D01*
X2638755Y-5162956D01*
X2638755Y-5140198D01*
X2633726Y-5135168D01*
G37*
G36*
X4834636Y-5198668D02*
G01*
X4829657Y-5203698D01*
X4829657Y-5226456D01*
X4866640Y-5226456D01*
X4866640Y-5259476D01*
X4829657Y-5259476D01*
X4829657Y-5283657D01*
X4834636Y-5288686D01*
X4914646Y-5288686D01*
X4919624Y-5283657D01*
X4919624Y-5203698D01*
X4914646Y-5198668D01*
G37*
G36*
X4675632Y-5198668D02*
G01*
X4670653Y-5203698D01*
X4670653Y-5283657D01*
X4675632Y-5288686D01*
X4754626Y-5288686D01*
X4759655Y-5283657D01*
X4759655Y-5259476D01*
X4721656Y-5259476D01*
X4721656Y-5226456D01*
X4759655Y-5226456D01*
X4759655Y-5203698D01*
X4754626Y-5198668D01*
G37*
G36*
X6155436Y-4576368D02*
G01*
X6150457Y-4581398D01*
X6150457Y-4604156D01*
X6187440Y-4604156D01*
X6187440Y-4637176D01*
X6150457Y-4637176D01*
X6150457Y-4661357D01*
X6155436Y-4666386D01*
X6235446Y-4666386D01*
X6240424Y-4661357D01*
X6240424Y-4581398D01*
X6235446Y-4576368D01*
G37*
G36*
X5996432Y-4576368D02*
G01*
X5991453Y-4581398D01*
X5991453Y-4661357D01*
X5996432Y-4666386D01*
X6075426Y-4666386D01*
X6080455Y-4661357D01*
X6080455Y-4637176D01*
X6042456Y-4637176D01*
X6042456Y-4604156D01*
X6080455Y-4604156D01*
X6080455Y-4581398D01*
X6075426Y-4576368D01*
G37*
G36*
X6142736Y-4296968D02*
G01*
X6137757Y-4301998D01*
X6137757Y-4324756D01*
X6174740Y-4324756D01*
X6174740Y-4357776D01*
X6137757Y-4357776D01*
X6137757Y-4381957D01*
X6142736Y-4386986D01*
X6222746Y-4386986D01*
X6227724Y-4381957D01*
X6227724Y-4301998D01*
X6222746Y-4296968D01*
G37*
G36*
X5983732Y-4296968D02*
G01*
X5978753Y-4301998D01*
X5978753Y-4381957D01*
X5983732Y-4386986D01*
X6062726Y-4386986D01*
X6067755Y-4381957D01*
X6067755Y-4357776D01*
X6029756Y-4357776D01*
X6029756Y-4324756D01*
X6067755Y-4324756D01*
X6067755Y-4301998D01*
X6062726Y-4296968D01*
G37*
G36*
X4612132Y-3649268D02*
G01*
X4607153Y-3654247D01*
X4607153Y-3734257D01*
X4612132Y-3739286D01*
X4692142Y-3739286D01*
X4697120Y-3734257D01*
X4697120Y-3711498D01*
X4660138Y-3711498D01*
X4660138Y-3678478D01*
X4697120Y-3678478D01*
X4697120Y-3654247D01*
X4692142Y-3649268D01*
G37*
G36*
X4772152Y-3649268D02*
G01*
X4767122Y-3654247D01*
X4767122Y-3678478D01*
X4805121Y-3678478D01*
X4805121Y-3711498D01*
X4767122Y-3711498D01*
X4767122Y-3734257D01*
X4772152Y-3739286D01*
X4851146Y-3739286D01*
X4856124Y-3734257D01*
X4856124Y-3654247D01*
X4851146Y-3649268D01*
G37*
G36*
X4243832Y-3649268D02*
G01*
X4238853Y-3654247D01*
X4238853Y-3734257D01*
X4243832Y-3739286D01*
X4323842Y-3739286D01*
X4328820Y-3734257D01*
X4328820Y-3711498D01*
X4291838Y-3711498D01*
X4291838Y-3678478D01*
X4328820Y-3678478D01*
X4328820Y-3654247D01*
X4323842Y-3649268D01*
G37*
G36*
X4403852Y-3649268D02*
G01*
X4398822Y-3654247D01*
X4398822Y-3678478D01*
X4436821Y-3678478D01*
X4436821Y-3711498D01*
X4398822Y-3711498D01*
X4398822Y-3734257D01*
X4403852Y-3739286D01*
X4482846Y-3739286D01*
X4487824Y-3734257D01*
X4487824Y-3654247D01*
X4482846Y-3649268D01*
G37*
G36*
X2581249Y-4752238D02*
G01*
X2571242Y-4762246D01*
X2571242Y-4798364D01*
X2581249Y-4808372D01*
X2602280Y-4808372D01*
X2612288Y-4818380D01*
X2612288Y-4856175D01*
X2602280Y-4866182D01*
X2581249Y-4866182D01*
X2571242Y-4876190D01*
X2571242Y-4912309D01*
X2581249Y-4922316D01*
X2681986Y-4922316D01*
X2691993Y-4912309D01*
X2691993Y-4762246D01*
X2681986Y-4752238D01*
G37*
G36*
X2285492Y-4752238D02*
G01*
X2275484Y-4762246D01*
X2275484Y-4912309D01*
X2285492Y-4922316D01*
X2386228Y-4922316D01*
X2396236Y-4912309D01*
X2396236Y-4876190D01*
X2386228Y-4866182D01*
X2365197Y-4866182D01*
X2355189Y-4856175D01*
X2355189Y-4818380D01*
X2365197Y-4808372D01*
X2386228Y-4808372D01*
X2396236Y-4798364D01*
X2396236Y-4762246D01*
X2386228Y-4752238D01*
G37*
G36*
X4460849Y-4879238D02*
G01*
X4450842Y-4889246D01*
X4450842Y-4925364D01*
X4460849Y-4935372D01*
X4481880Y-4935372D01*
X4491888Y-4945380D01*
X4491888Y-4983175D01*
X4481880Y-4993182D01*
X4460849Y-4993182D01*
X4450842Y-5003190D01*
X4450842Y-5039309D01*
X4460849Y-5049316D01*
X4561586Y-5049316D01*
X4571593Y-5039309D01*
X4571593Y-4889246D01*
X4561586Y-4879238D01*
G37*
G36*
X4165092Y-4879238D02*
G01*
X4155084Y-4889246D01*
X4155084Y-5039309D01*
X4165092Y-5049316D01*
X4265828Y-5049316D01*
X4275836Y-5039309D01*
X4275836Y-5003190D01*
X4265828Y-4993182D01*
X4244797Y-4993182D01*
X4234789Y-4983175D01*
X4234789Y-4945380D01*
X4244797Y-4935372D01*
X4265828Y-4935372D01*
X4275836Y-4925364D01*
X4275836Y-4889246D01*
X4265828Y-4879238D01*
G37*
D10*
G01*
X2375946Y-5891372D03*
G01*
X2235941Y-5891372D03*
G01*
X1969546Y-5891372D03*
G01*
X1829541Y-5891372D03*
G01*
X5690646Y-5548472D03*
G01*
X5550641Y-5548472D03*
G01*
X5322346Y-5535772D03*
G01*
X5182341Y-5535772D03*
D11*
G01*
X1581793Y-4395160D03*
G01*
X1581793Y-4445160D03*
G01*
X1581793Y-4495159D03*
G01*
X1581793Y-4545159D03*
G01*
X1581793Y-4595159D03*
G01*
X1581793Y-4645159D03*
G01*
X1581793Y-4695159D03*
G01*
X1963294Y-4395160D03*
G01*
X1963294Y-4445160D03*
G01*
X1963294Y-4495159D03*
G01*
X1963294Y-4545159D03*
G01*
X1963294Y-4595159D03*
G01*
X1963294Y-4645159D03*
G01*
X1963294Y-4695159D03*
D12*
G01*
X1772544Y-4545159D03*
D11*
G01*
X5582794Y-4631684D03*
G01*
X5582794Y-4581685D03*
G01*
X5582794Y-4531685D03*
G01*
X5582794Y-4481685D03*
G01*
X5582794Y-4431685D03*
G01*
X5582794Y-4381685D03*
G01*
X5582794Y-4331685D03*
G01*
X5201293Y-4631684D03*
G01*
X5201293Y-4581685D03*
G01*
X5201293Y-4531685D03*
G01*
X5201293Y-4481685D03*
G01*
X5201293Y-4431685D03*
G01*
X5201293Y-4381685D03*
G01*
X5201293Y-4331685D03*
D12*
G01*
X5392044Y-4481685D03*
D13*
G01*
X2722021Y-4627468D03*
G01*
X2722021Y-4437476D03*
G01*
X2982066Y-4437476D03*
G01*
X2982066Y-4532472D03*
G01*
X2982066Y-4627468D03*
G01*
X4690521Y-4881468D03*
G01*
X4690521Y-4691476D03*
G01*
X4950566Y-4691476D03*
G01*
X4950566Y-4786472D03*
G01*
X4950566Y-4881468D03*
D14*
G01*
X2147448Y-5638439D03*
G01*
X2242444Y-5638439D03*
G01*
X2337440Y-5638439D03*
D15*
G01*
X2337440Y-5407705D03*
G01*
X2147448Y-5407705D03*
D14*
G01*
X5309748Y-5155839D03*
G01*
X5404744Y-5155839D03*
G01*
X5499740Y-5155839D03*
D15*
G01*
X5499740Y-4925105D03*
G01*
X5309748Y-4925105D03*
D16*
G01*
X2299848Y-4261606D03*
G01*
X2489840Y-4261606D03*
G01*
X2394844Y-4041338D03*
D17*
G01*
X2924069Y-4208372D03*
G01*
X2924069Y-4018372D03*
G01*
X2703818Y-4113372D03*
D18*
G01*
X4646918Y-3980272D03*
G01*
X4646918Y-4170272D03*
G01*
X4867169Y-4075272D03*
G01*
X4240518Y-3967572D03*
G01*
X4240518Y-4157572D03*
G01*
X4460769Y-4062572D03*
M02*
