G04 Layer: BottomLayer*
G04 EasyEDA v6.5.29, 2023-07-10 19:36:55*
G04 1e7b4ab6233f4b76a91dc94f4c831b37,398929e9e95146ce9e037ed163e1f376,10*
G04 Gerber Generator version 0.2*
G04 Scale: 100 percent, Rotated: No, Reflected: No *
G04 Dimensions in millimeters *
G04 leading zeros omitted , absolute positions ,4 integer and 5 decimal *
%FSLAX45Y45*%
%MOMM*%

%ADD10C,0.3000*%
%ADD11R,1.7000X1.7000*%
%ADD12C,3.0000*%
%ADD13C,0.6096*%
%ADD14C,0.6100*%
%ADD15C,0.0125*%

%LPD*%
G36*
X36068Y-6070092D02*
G01*
X32156Y-6069330D01*
X28905Y-6067094D01*
X26670Y-6063843D01*
X25908Y-6059932D01*
X25908Y-36068D01*
X26670Y-32156D01*
X28905Y-28905D01*
X32156Y-26670D01*
X36068Y-25908D01*
X6821931Y-25908D01*
X6825843Y-26670D01*
X6829094Y-28905D01*
X6831330Y-32156D01*
X6832092Y-36068D01*
X6832092Y-6059932D01*
X6831330Y-6063843D01*
X6829094Y-6067094D01*
X6825843Y-6069330D01*
X6821931Y-6070092D01*
G37*

%LPC*%
G36*
X4710734Y-5773674D02*
G01*
X4879594Y-5773674D01*
X4885893Y-5772962D01*
X4891379Y-5771032D01*
X4896256Y-5767984D01*
X4900371Y-5763869D01*
X4903419Y-5758992D01*
X4905349Y-5753506D01*
X4906060Y-5747207D01*
X4906060Y-5578348D01*
X4905349Y-5571998D01*
X4903419Y-5566562D01*
X4900371Y-5561634D01*
X4896256Y-5557570D01*
X4891379Y-5554472D01*
X4885893Y-5552592D01*
X4879594Y-5551881D01*
X4845659Y-5551881D01*
X4842002Y-5551170D01*
X4838801Y-5549239D01*
X4836566Y-5546293D01*
X4835550Y-5542686D01*
X4835194Y-5539536D01*
X4832908Y-5531916D01*
X4829098Y-5524855D01*
X4824018Y-5518658D01*
X4817821Y-5513578D01*
X4810760Y-5509768D01*
X4803140Y-5507431D01*
X4795418Y-5506720D01*
X4792065Y-5505754D01*
X4789220Y-5503773D01*
X4223105Y-4937658D01*
X4220870Y-4934356D01*
X4220108Y-4930444D01*
X4220870Y-4926584D01*
X4223105Y-4923282D01*
X4226356Y-4921046D01*
X4230268Y-4920284D01*
X4617567Y-4920284D01*
X4626000Y-4919472D01*
X4633671Y-4917135D01*
X4640732Y-4913376D01*
X4647336Y-4907940D01*
X5049672Y-4505655D01*
X5052568Y-4503623D01*
X5055971Y-4502708D01*
X5059578Y-4502404D01*
X5063744Y-4502912D01*
X5067300Y-4504994D01*
X5069738Y-4508398D01*
X5070602Y-4512513D01*
X5070602Y-4595266D01*
X5071465Y-4603750D01*
X5073802Y-4611420D01*
X5077561Y-4618482D01*
X5082946Y-4625035D01*
X5958738Y-5500827D01*
X5965342Y-5506262D01*
X5972403Y-5510022D01*
X5980074Y-5512358D01*
X5983173Y-5512663D01*
X5986729Y-5513679D01*
X5989726Y-5515965D01*
X5991656Y-5519115D01*
X5992317Y-5522772D01*
X5992317Y-5556707D01*
X5993028Y-5563006D01*
X5994958Y-5568492D01*
X5998057Y-5573369D01*
X6002121Y-5577484D01*
X6007049Y-5580532D01*
X6012484Y-5582462D01*
X6018834Y-5583174D01*
X6187694Y-5583174D01*
X6193993Y-5582462D01*
X6199479Y-5580532D01*
X6204356Y-5577484D01*
X6208471Y-5573369D01*
X6211519Y-5568492D01*
X6213449Y-5563006D01*
X6214160Y-5556707D01*
X6214160Y-5387848D01*
X6213449Y-5381498D01*
X6211519Y-5376062D01*
X6208471Y-5371134D01*
X6204356Y-5367070D01*
X6199479Y-5363972D01*
X6193993Y-5362092D01*
X6187694Y-5361381D01*
X6018834Y-5361381D01*
X6012484Y-5362092D01*
X6007049Y-5363972D01*
X6002121Y-5367070D01*
X5998057Y-5371134D01*
X5994958Y-5376062D01*
X5993028Y-5381498D01*
X5992317Y-5387848D01*
X5992317Y-5394198D01*
X5991555Y-5398109D01*
X5989370Y-5401360D01*
X5986068Y-5403596D01*
X5982157Y-5404358D01*
X5978296Y-5403596D01*
X5974994Y-5401360D01*
X5316067Y-4742484D01*
X5313730Y-4738776D01*
X5313172Y-4734407D01*
X5314492Y-4730191D01*
X5317439Y-4726990D01*
X5321452Y-4724146D01*
X5328412Y-4717237D01*
X5334050Y-4709160D01*
X5338165Y-4700270D01*
X5340705Y-4690770D01*
X5341569Y-4680966D01*
X5340705Y-4671212D01*
X5338165Y-4661712D01*
X5334050Y-4652822D01*
X5328412Y-4644745D01*
X5321452Y-4637786D01*
X5313781Y-4632452D01*
X5311444Y-4630166D01*
X5309971Y-4627321D01*
X5309412Y-4624120D01*
X5309412Y-4318711D01*
X5310225Y-4314799D01*
X5312410Y-4311497D01*
X5366410Y-4257548D01*
X5371795Y-4250944D01*
X5375554Y-4243882D01*
X5377891Y-4236212D01*
X5378704Y-4227779D01*
X5378704Y-3746906D01*
X5379212Y-3743858D01*
X5380583Y-3741064D01*
X5386628Y-3732428D01*
X5390794Y-3723487D01*
X5393334Y-3714038D01*
X5394198Y-3704234D01*
X5393334Y-3694429D01*
X5390794Y-3684930D01*
X5386628Y-3676040D01*
X5380990Y-3668014D01*
X5374030Y-3661054D01*
X5366004Y-3655415D01*
X5357114Y-3651250D01*
X5347614Y-3648710D01*
X5337810Y-3647846D01*
X5327751Y-3648760D01*
X5323636Y-3648252D01*
X5320080Y-3646220D01*
X5317642Y-3642918D01*
X5316677Y-3638905D01*
X5317388Y-3634892D01*
X5319674Y-3631437D01*
X5661914Y-3289198D01*
X5667298Y-3282594D01*
X5671108Y-3275533D01*
X5673394Y-3267862D01*
X5674258Y-3259429D01*
X5674258Y-1434541D01*
X5675172Y-1430324D01*
X5677763Y-1426870D01*
X5681573Y-1424787D01*
X5691124Y-1421993D01*
X5707888Y-1415186D01*
X5723890Y-1406652D01*
X5738926Y-1396542D01*
X5752846Y-1384960D01*
X5765444Y-1372006D01*
X5776722Y-1357782D01*
X5786424Y-1342491D01*
X5794502Y-1326286D01*
X5800902Y-1309370D01*
X5805525Y-1291844D01*
X5808319Y-1273962D01*
X5809234Y-1255877D01*
X5808319Y-1237792D01*
X5805525Y-1219911D01*
X5800902Y-1202385D01*
X5794502Y-1185418D01*
X5786424Y-1169212D01*
X5776722Y-1153972D01*
X5765444Y-1139748D01*
X5752846Y-1126794D01*
X5738926Y-1115161D01*
X5723890Y-1105052D01*
X5707888Y-1096568D01*
X5691124Y-1089761D01*
X5673750Y-1084681D01*
X5655919Y-1081430D01*
X5637885Y-1080058D01*
X5619750Y-1080516D01*
X5601817Y-1082852D01*
X5584190Y-1086967D01*
X5567070Y-1092962D01*
X5550662Y-1100632D01*
X5535168Y-1109929D01*
X5520690Y-1120800D01*
X5507380Y-1133094D01*
X5495442Y-1146708D01*
X5484926Y-1161491D01*
X5475986Y-1177239D01*
X5468772Y-1193850D01*
X5463235Y-1211072D01*
X5459526Y-1228801D01*
X5457698Y-1246835D01*
X5457698Y-1264920D01*
X5459526Y-1282954D01*
X5463235Y-1300683D01*
X5468772Y-1317904D01*
X5475986Y-1334516D01*
X5484926Y-1350264D01*
X5495442Y-1365046D01*
X5507380Y-1378661D01*
X5520690Y-1390954D01*
X5535168Y-1401826D01*
X5550662Y-1411122D01*
X5567070Y-1418793D01*
X5584596Y-1424838D01*
X5588660Y-1426819D01*
X5591454Y-1430375D01*
X5592419Y-1434744D01*
X5592419Y-3238754D01*
X5591657Y-3242614D01*
X5589473Y-3245916D01*
X5386781Y-3448608D01*
X5383479Y-3450793D01*
X5379618Y-3451555D01*
X5375706Y-3450793D01*
X5372404Y-3448608D01*
X5370220Y-3445306D01*
X5369458Y-3441395D01*
X5369458Y-1295349D01*
X5368594Y-1286865D01*
X5366308Y-1279245D01*
X5362498Y-1272184D01*
X5357114Y-1265580D01*
X5191861Y-1100277D01*
X5189524Y-1096772D01*
X5188864Y-1092657D01*
X5189931Y-1088593D01*
X5197602Y-1073200D01*
X5204002Y-1056284D01*
X5208625Y-1038758D01*
X5211419Y-1020876D01*
X5212334Y-1002792D01*
X5211419Y-984707D01*
X5208625Y-966774D01*
X5204002Y-949299D01*
X5197602Y-932332D01*
X5189524Y-916127D01*
X5179822Y-900836D01*
X5168544Y-886663D01*
X5155946Y-873709D01*
X5142026Y-862076D01*
X5126990Y-851966D01*
X5110988Y-843483D01*
X5094224Y-836625D01*
X5076850Y-831596D01*
X5059019Y-828344D01*
X5040985Y-826922D01*
X5022850Y-827379D01*
X5004917Y-829716D01*
X4987290Y-833882D01*
X4970170Y-839825D01*
X4953762Y-847496D01*
X4938268Y-856843D01*
X4923790Y-867714D01*
X4910480Y-880008D01*
X4898542Y-893622D01*
X4888026Y-908354D01*
X4879086Y-924153D01*
X4871872Y-940714D01*
X4866335Y-957986D01*
X4862626Y-975715D01*
X4860798Y-993698D01*
X4860798Y-1011834D01*
X4862626Y-1029817D01*
X4866335Y-1047546D01*
X4871872Y-1064818D01*
X4879086Y-1081430D01*
X4888026Y-1097178D01*
X4898542Y-1111910D01*
X4910480Y-1125524D01*
X4923790Y-1137818D01*
X4938268Y-1148689D01*
X4953762Y-1158036D01*
X4970170Y-1165707D01*
X4987290Y-1171651D01*
X5004917Y-1175816D01*
X5022850Y-1178153D01*
X5040985Y-1178610D01*
X5059019Y-1177188D01*
X5076850Y-1173988D01*
X5094224Y-1168908D01*
X5110988Y-1162100D01*
X5121910Y-1156258D01*
X5126024Y-1155090D01*
X5130292Y-1155750D01*
X5133898Y-1158036D01*
X5284673Y-1308811D01*
X5286857Y-1312113D01*
X5287619Y-1316024D01*
X5287619Y-3457448D01*
X5286857Y-3461359D01*
X5284673Y-3464610D01*
X4700473Y-4048861D01*
X4695037Y-4055414D01*
X4690160Y-4065117D01*
X4685842Y-4069842D01*
X4680204Y-4077919D01*
X4676038Y-4086809D01*
X4673498Y-4096308D01*
X4672634Y-4106062D01*
X4673498Y-4115866D01*
X4676038Y-4125366D01*
X4680204Y-4134256D01*
X4685690Y-4142130D01*
X4687417Y-4146194D01*
X4687214Y-4150563D01*
X4685182Y-4154474D01*
X4681677Y-4157167D01*
X4677410Y-4158132D01*
X4558233Y-4158132D01*
X4554575Y-4157421D01*
X4551375Y-4155440D01*
X4549140Y-4152442D01*
X4545482Y-4138269D01*
X4541367Y-4129379D01*
X4535271Y-4120692D01*
X4533900Y-4117949D01*
X4533442Y-4114901D01*
X4533442Y-3268726D01*
X4534204Y-3264865D01*
X4536389Y-3261563D01*
X4938979Y-2859024D01*
X4942738Y-2856636D01*
X4947158Y-2856077D01*
X4951374Y-2857500D01*
X4953762Y-2858922D01*
X4970170Y-2866593D01*
X4987290Y-2872536D01*
X5004917Y-2876702D01*
X5022850Y-2879039D01*
X5040985Y-2879496D01*
X5059019Y-2878124D01*
X5076850Y-2874873D01*
X5094224Y-2869793D01*
X5110988Y-2862986D01*
X5126990Y-2854452D01*
X5142026Y-2844342D01*
X5155946Y-2832760D01*
X5168544Y-2819806D01*
X5179822Y-2805582D01*
X5189524Y-2790291D01*
X5197602Y-2774086D01*
X5204002Y-2757170D01*
X5208625Y-2739644D01*
X5211419Y-2721762D01*
X5212334Y-2703677D01*
X5211419Y-2685592D01*
X5208625Y-2667711D01*
X5204002Y-2650185D01*
X5197602Y-2633218D01*
X5189524Y-2617012D01*
X5179822Y-2601772D01*
X5168544Y-2587548D01*
X5155946Y-2574594D01*
X5142026Y-2562961D01*
X5126990Y-2552852D01*
X5110988Y-2544368D01*
X5094224Y-2537561D01*
X5076850Y-2532481D01*
X5059019Y-2529230D01*
X5040985Y-2527858D01*
X5022850Y-2528316D01*
X5004917Y-2530652D01*
X4987290Y-2534767D01*
X4970170Y-2540762D01*
X4953762Y-2548432D01*
X4938268Y-2557729D01*
X4923790Y-2568600D01*
X4910480Y-2580894D01*
X4898542Y-2594508D01*
X4888026Y-2609291D01*
X4879086Y-2625039D01*
X4871872Y-2641650D01*
X4866335Y-2658872D01*
X4862626Y-2676601D01*
X4860798Y-2694635D01*
X4860798Y-2712720D01*
X4862626Y-2730754D01*
X4866335Y-2748483D01*
X4871872Y-2765704D01*
X4879086Y-2782316D01*
X4882845Y-2788920D01*
X4884115Y-2793085D01*
X4883505Y-2797403D01*
X4881168Y-2801112D01*
X4463948Y-3218332D01*
X4458563Y-3224885D01*
X4454753Y-3231946D01*
X4452467Y-3239617D01*
X4451604Y-3248101D01*
X4451604Y-4114901D01*
X4451146Y-4117949D01*
X4449775Y-4120692D01*
X4443730Y-4129379D01*
X4439564Y-4138269D01*
X4437024Y-4147769D01*
X4436160Y-4157573D01*
X4437024Y-4167378D01*
X4439564Y-4176826D01*
X4443730Y-4185767D01*
X4449368Y-4193794D01*
X4456277Y-4200753D01*
X4464354Y-4206392D01*
X4468672Y-4208424D01*
X4471873Y-4210710D01*
X4473905Y-4214012D01*
X4474565Y-4217873D01*
X4473702Y-4221683D01*
X4471517Y-4224883D01*
X4468215Y-4227017D01*
X4464405Y-4227779D01*
X3820515Y-4227779D01*
X3812032Y-4228642D01*
X3804361Y-4230928D01*
X3797300Y-4234738D01*
X3790746Y-4240123D01*
X3735933Y-4294936D01*
X3730498Y-4301540D01*
X3726738Y-4308602D01*
X3724401Y-4316222D01*
X3723589Y-4324705D01*
X3723589Y-4536389D01*
X3724401Y-4544872D01*
X3726738Y-4552543D01*
X3730498Y-4559604D01*
X3735933Y-4566158D01*
X3967683Y-4797907D01*
X3969867Y-4801209D01*
X3970629Y-4805121D01*
X3969867Y-4808982D01*
X3967683Y-4812284D01*
X3964381Y-4814468D01*
X3960469Y-4815281D01*
X3796334Y-4815281D01*
X3789984Y-4815992D01*
X3784549Y-4817872D01*
X3779621Y-4820970D01*
X3775557Y-4825034D01*
X3772458Y-4829962D01*
X3770528Y-4835398D01*
X3769817Y-4841748D01*
X3769817Y-5010607D01*
X3770528Y-5016906D01*
X3772458Y-5022392D01*
X3775557Y-5027269D01*
X3779621Y-5031384D01*
X3784549Y-5034432D01*
X3789984Y-5036362D01*
X3796334Y-5037074D01*
X3829659Y-5037074D01*
X3833571Y-5037836D01*
X3836873Y-5040071D01*
X3839057Y-5043373D01*
X3839819Y-5047234D01*
X3839819Y-5432450D01*
X3839362Y-5435498D01*
X3837990Y-5438241D01*
X3831945Y-5446928D01*
X3827779Y-5455818D01*
X3825240Y-5465318D01*
X3824376Y-5475122D01*
X3825240Y-5484926D01*
X3827779Y-5494375D01*
X3831945Y-5503316D01*
X3837584Y-5511342D01*
X3844493Y-5518302D01*
X3852570Y-5523941D01*
X3861460Y-5528106D01*
X3870960Y-5530646D01*
X3880764Y-5531510D01*
X3890518Y-5530646D01*
X3900017Y-5528106D01*
X3908907Y-5523941D01*
X3916984Y-5518302D01*
X3923944Y-5511342D01*
X3929583Y-5503316D01*
X3933698Y-5494375D01*
X3936237Y-5484926D01*
X3937101Y-5475122D01*
X3936237Y-5465318D01*
X3933698Y-5455818D01*
X3929583Y-5446928D01*
X3923487Y-5438241D01*
X3922115Y-5435498D01*
X3921658Y-5432450D01*
X3921658Y-5047234D01*
X3922420Y-5043373D01*
X3924604Y-5040071D01*
X3927906Y-5037836D01*
X3931818Y-5037074D01*
X3965194Y-5037074D01*
X3971493Y-5036362D01*
X3976979Y-5034432D01*
X3981856Y-5031384D01*
X3985971Y-5027269D01*
X3989019Y-5022392D01*
X3990949Y-5016906D01*
X3991660Y-5010607D01*
X3991660Y-4846421D01*
X3992422Y-4842560D01*
X3994607Y-4839258D01*
X3997909Y-4837074D01*
X4001820Y-4836261D01*
X4005681Y-4837074D01*
X4008983Y-4839258D01*
X4706264Y-5536488D01*
X4708499Y-5539892D01*
X4709210Y-5543905D01*
X4708296Y-5547868D01*
X4705908Y-5551170D01*
X4702403Y-5553252D01*
X4698949Y-5554472D01*
X4694021Y-5557570D01*
X4689957Y-5561634D01*
X4686858Y-5566562D01*
X4684928Y-5571998D01*
X4684217Y-5578348D01*
X4684217Y-5747207D01*
X4684928Y-5753506D01*
X4686858Y-5758992D01*
X4689957Y-5763869D01*
X4694021Y-5767984D01*
X4698949Y-5771032D01*
X4704384Y-5772962D01*
G37*
G36*
X1040434Y-5608574D02*
G01*
X1209294Y-5608574D01*
X1215593Y-5607862D01*
X1221079Y-5605932D01*
X1225956Y-5602884D01*
X1230071Y-5598769D01*
X1233119Y-5593892D01*
X1235049Y-5588406D01*
X1235760Y-5582107D01*
X1235760Y-5548172D01*
X1236421Y-5544515D01*
X1238402Y-5541365D01*
X1241348Y-5539079D01*
X1244904Y-5538063D01*
X1248054Y-5537758D01*
X1255725Y-5535422D01*
X1262786Y-5531662D01*
X1268984Y-5526582D01*
X1274064Y-5520385D01*
X1277823Y-5513324D01*
X1280160Y-5505653D01*
X1280972Y-5497169D01*
X1280972Y-5471871D01*
X1281785Y-5468010D01*
X1283970Y-5464708D01*
X2043988Y-4704689D01*
X2046884Y-4702657D01*
X2050288Y-4701743D01*
X2054758Y-4701336D01*
X2064257Y-4698796D01*
X2073148Y-4694631D01*
X2081225Y-4688992D01*
X2088184Y-4682083D01*
X2093823Y-4674006D01*
X2097938Y-4665116D01*
X2100478Y-4655616D01*
X2101342Y-4645812D01*
X2100478Y-4636058D01*
X2097938Y-4626559D01*
X2094890Y-4619955D01*
X2093925Y-4616043D01*
X2094585Y-4612081D01*
X2096719Y-4608626D01*
X2100021Y-4606340D01*
X2103932Y-4605477D01*
X2107895Y-4606239D01*
X2111248Y-4608474D01*
X2195474Y-4692700D01*
X2197862Y-4696409D01*
X2198420Y-4700778D01*
X2198116Y-4704232D01*
X2198979Y-4714036D01*
X2201519Y-4723536D01*
X2205685Y-4732426D01*
X2211324Y-4740503D01*
X2218232Y-4747412D01*
X2226310Y-4753051D01*
X2235200Y-4757216D01*
X2244699Y-4759756D01*
X2254504Y-4760620D01*
X2264257Y-4759756D01*
X2273757Y-4757216D01*
X2282647Y-4753051D01*
X2290724Y-4747412D01*
X2297684Y-4740503D01*
X2303322Y-4732426D01*
X2307437Y-4723536D01*
X2309977Y-4714036D01*
X2310841Y-4704232D01*
X2309977Y-4694478D01*
X2307437Y-4684979D01*
X2303322Y-4676089D01*
X2297684Y-4668012D01*
X2290724Y-4661052D01*
X2282647Y-4655413D01*
X2273757Y-4651298D01*
X2268524Y-4649520D01*
X2266391Y-4647895D01*
X2173224Y-4554728D01*
X2170836Y-4551019D01*
X2170277Y-4546650D01*
X2171598Y-4542434D01*
X2174595Y-4539234D01*
X2179828Y-4535525D01*
X2186787Y-4528566D01*
X2192426Y-4520539D01*
X2196592Y-4511598D01*
X2199132Y-4502150D01*
X2199995Y-4492345D01*
X2199132Y-4482541D01*
X2196592Y-4473041D01*
X2192426Y-4464151D01*
X2186330Y-4455464D01*
X2185009Y-4452721D01*
X2184501Y-4449673D01*
X2184501Y-4198264D01*
X2183688Y-4189780D01*
X2181352Y-4182160D01*
X2179878Y-4179366D01*
X2178710Y-4175455D01*
X2177948Y-4166819D01*
X2175408Y-4157319D01*
X2171293Y-4148429D01*
X2165197Y-4139742D01*
X2163826Y-4136999D01*
X2163368Y-4133951D01*
X2163368Y-1353159D01*
X2162505Y-1344676D01*
X2160219Y-1337056D01*
X2156409Y-1329994D01*
X2151024Y-1323390D01*
X1927961Y-1100328D01*
X1925624Y-1096772D01*
X1924964Y-1092657D01*
X1926031Y-1088593D01*
X1933702Y-1073200D01*
X1940102Y-1056284D01*
X1944725Y-1038758D01*
X1947519Y-1020876D01*
X1948434Y-1002792D01*
X1947519Y-984707D01*
X1944725Y-966774D01*
X1940102Y-949299D01*
X1933702Y-932332D01*
X1925624Y-916127D01*
X1915922Y-900836D01*
X1904644Y-886663D01*
X1892046Y-873709D01*
X1878126Y-862076D01*
X1863089Y-851966D01*
X1847088Y-843483D01*
X1830324Y-836625D01*
X1812950Y-831596D01*
X1795119Y-828344D01*
X1777085Y-826922D01*
X1758950Y-827379D01*
X1741017Y-829716D01*
X1723389Y-833882D01*
X1706270Y-839825D01*
X1689862Y-847496D01*
X1674368Y-856843D01*
X1659889Y-867714D01*
X1646580Y-880008D01*
X1634642Y-893622D01*
X1624126Y-908354D01*
X1615186Y-924153D01*
X1607972Y-940714D01*
X1602435Y-957986D01*
X1598726Y-975715D01*
X1596898Y-993698D01*
X1596898Y-1011834D01*
X1598726Y-1029817D01*
X1602435Y-1047546D01*
X1607972Y-1064818D01*
X1615186Y-1081430D01*
X1624126Y-1097178D01*
X1634642Y-1111910D01*
X1646580Y-1125524D01*
X1659889Y-1137818D01*
X1674368Y-1148689D01*
X1689862Y-1158036D01*
X1706270Y-1165707D01*
X1723389Y-1171651D01*
X1741017Y-1175816D01*
X1758950Y-1178153D01*
X1777085Y-1178610D01*
X1795119Y-1177188D01*
X1812950Y-1173988D01*
X1830324Y-1168908D01*
X1847088Y-1162100D01*
X1858010Y-1156258D01*
X1862124Y-1155090D01*
X1866392Y-1155750D01*
X1869998Y-1158036D01*
X2078583Y-1366621D01*
X2080768Y-1369923D01*
X2081530Y-1373835D01*
X2081530Y-4133951D01*
X2081072Y-4136999D01*
X2079701Y-4139742D01*
X2073656Y-4148429D01*
X2069490Y-4157319D01*
X2067458Y-4164787D01*
X2065629Y-4168495D01*
X2062429Y-4171137D01*
X2058416Y-4172305D01*
X2054301Y-4171746D01*
X2050745Y-4169613D01*
X2048357Y-4166260D01*
X2047493Y-4162196D01*
X2047493Y-2087321D01*
X2046681Y-2078888D01*
X2044344Y-2071217D01*
X2040585Y-2064156D01*
X2035149Y-2057552D01*
X1331010Y-1353413D01*
X1328724Y-1349908D01*
X1328064Y-1345742D01*
X1329131Y-1341678D01*
X1336802Y-1326286D01*
X1343202Y-1309370D01*
X1347825Y-1291844D01*
X1350619Y-1273962D01*
X1351534Y-1255877D01*
X1350619Y-1237792D01*
X1347825Y-1219911D01*
X1343202Y-1202385D01*
X1336802Y-1185418D01*
X1328724Y-1169212D01*
X1319022Y-1153972D01*
X1307744Y-1139748D01*
X1295146Y-1126794D01*
X1281226Y-1115161D01*
X1266190Y-1105052D01*
X1250188Y-1096568D01*
X1233424Y-1089761D01*
X1216050Y-1084681D01*
X1198219Y-1081430D01*
X1180185Y-1080058D01*
X1162050Y-1080516D01*
X1144117Y-1082852D01*
X1126490Y-1086967D01*
X1109370Y-1092962D01*
X1092962Y-1100632D01*
X1077468Y-1109929D01*
X1062990Y-1120800D01*
X1049680Y-1133094D01*
X1037742Y-1146708D01*
X1027226Y-1161491D01*
X1018286Y-1177239D01*
X1011072Y-1193850D01*
X1005535Y-1211072D01*
X1001826Y-1228801D01*
X999998Y-1246835D01*
X999998Y-1264920D01*
X1001826Y-1282954D01*
X1005535Y-1300683D01*
X1011072Y-1317904D01*
X1018286Y-1334516D01*
X1027226Y-1350264D01*
X1037742Y-1365046D01*
X1049680Y-1378661D01*
X1062990Y-1390954D01*
X1077468Y-1401826D01*
X1092962Y-1411122D01*
X1109370Y-1418793D01*
X1126490Y-1424736D01*
X1144117Y-1428902D01*
X1162050Y-1431239D01*
X1180185Y-1431696D01*
X1198219Y-1430324D01*
X1216050Y-1427073D01*
X1233424Y-1421993D01*
X1250188Y-1415186D01*
X1261110Y-1409395D01*
X1265224Y-1408176D01*
X1269492Y-1408836D01*
X1273098Y-1411173D01*
X1962708Y-2100783D01*
X1964943Y-2104085D01*
X1965706Y-2107996D01*
X1965706Y-2671114D01*
X1964791Y-2675331D01*
X1962200Y-2678785D01*
X1958441Y-2680868D01*
X1954174Y-2681173D01*
X1950110Y-2679700D01*
X1947062Y-2676702D01*
X1945487Y-2672689D01*
X1944725Y-2667711D01*
X1940102Y-2650185D01*
X1933702Y-2633218D01*
X1925624Y-2617012D01*
X1915922Y-2601772D01*
X1904644Y-2587548D01*
X1892046Y-2574594D01*
X1878126Y-2562961D01*
X1863089Y-2552852D01*
X1847088Y-2544368D01*
X1830324Y-2537561D01*
X1812950Y-2532481D01*
X1795119Y-2529230D01*
X1777085Y-2527858D01*
X1758950Y-2528316D01*
X1741017Y-2530652D01*
X1723389Y-2534767D01*
X1706270Y-2540762D01*
X1689862Y-2548432D01*
X1674368Y-2557729D01*
X1659889Y-2568600D01*
X1646580Y-2580894D01*
X1634642Y-2594508D01*
X1624126Y-2609291D01*
X1615186Y-2625039D01*
X1607972Y-2641650D01*
X1602435Y-2658872D01*
X1598726Y-2676601D01*
X1596898Y-2694635D01*
X1596898Y-2712720D01*
X1598726Y-2730754D01*
X1602435Y-2748483D01*
X1607972Y-2765704D01*
X1615186Y-2782316D01*
X1624126Y-2798064D01*
X1634642Y-2812846D01*
X1646580Y-2826461D01*
X1659889Y-2838754D01*
X1674368Y-2849626D01*
X1689862Y-2858922D01*
X1706270Y-2866593D01*
X1723796Y-2872638D01*
X1727860Y-2874619D01*
X1730654Y-2878175D01*
X1731619Y-2882544D01*
X1731619Y-4211421D01*
X1732483Y-4219854D01*
X1734820Y-4227525D01*
X1738579Y-4234586D01*
X1743964Y-4241190D01*
X2082342Y-4579569D01*
X2084578Y-4582922D01*
X2085339Y-4586884D01*
X2084476Y-4590796D01*
X2082139Y-4594098D01*
X2078736Y-4596231D01*
X2074773Y-4596892D01*
X2070862Y-4595926D01*
X2064257Y-4592878D01*
X2054758Y-4590338D01*
X2045004Y-4589475D01*
X2035200Y-4590338D01*
X2025700Y-4592878D01*
X2016810Y-4596993D01*
X2008733Y-4602632D01*
X2001824Y-4609592D01*
X1996186Y-4617669D01*
X1992020Y-4626559D01*
X1989480Y-4636058D01*
X1989074Y-4640529D01*
X1988159Y-4643932D01*
X1986127Y-4646828D01*
X1240434Y-5392572D01*
X1237132Y-5394756D01*
X1233220Y-5395518D01*
X1229360Y-5394756D01*
X1221079Y-5389372D01*
X1215593Y-5387492D01*
X1209294Y-5386781D01*
X1040434Y-5386781D01*
X1034084Y-5387492D01*
X1028649Y-5389372D01*
X1023721Y-5392470D01*
X1019657Y-5396534D01*
X1016558Y-5401462D01*
X1014628Y-5406898D01*
X1013917Y-5413248D01*
X1013917Y-5582107D01*
X1014628Y-5588406D01*
X1016558Y-5593892D01*
X1019657Y-5598769D01*
X1023721Y-5602884D01*
X1028649Y-5605932D01*
X1034084Y-5607862D01*
G37*
G36*
X1624634Y-5557774D02*
G01*
X1793493Y-5557774D01*
X1799793Y-5557062D01*
X1805279Y-5555132D01*
X1810156Y-5552084D01*
X1814271Y-5547969D01*
X1817319Y-5543092D01*
X1819249Y-5537606D01*
X1819960Y-5531307D01*
X1819960Y-5362448D01*
X1819249Y-5356098D01*
X1817319Y-5350662D01*
X1814271Y-5345734D01*
X1810156Y-5341670D01*
X1805279Y-5338572D01*
X1799793Y-5336692D01*
X1793493Y-5335981D01*
X1624634Y-5335981D01*
X1618284Y-5336692D01*
X1612849Y-5338572D01*
X1607921Y-5341670D01*
X1603857Y-5345734D01*
X1600758Y-5350662D01*
X1598828Y-5356098D01*
X1598117Y-5362448D01*
X1598117Y-5531307D01*
X1598828Y-5537606D01*
X1600758Y-5543092D01*
X1603857Y-5547969D01*
X1607921Y-5552084D01*
X1612849Y-5555132D01*
X1618284Y-5557062D01*
G37*
G36*
X1954834Y-5176774D02*
G01*
X2123694Y-5176774D01*
X2129993Y-5176062D01*
X2135479Y-5174132D01*
X2140356Y-5171084D01*
X2144471Y-5166969D01*
X2147519Y-5162092D01*
X2149449Y-5156606D01*
X2150160Y-5150307D01*
X2150160Y-4981448D01*
X2149449Y-4975098D01*
X2147519Y-4969662D01*
X2144471Y-4964734D01*
X2140356Y-4960670D01*
X2135479Y-4957572D01*
X2129993Y-4955692D01*
X2123694Y-4954981D01*
X1954834Y-4954981D01*
X1948484Y-4955692D01*
X1943049Y-4957572D01*
X1938121Y-4960670D01*
X1934057Y-4964734D01*
X1930958Y-4969662D01*
X1929028Y-4975098D01*
X1928317Y-4981448D01*
X1928317Y-5150307D01*
X1929028Y-5156606D01*
X1930958Y-5162092D01*
X1934057Y-5166969D01*
X1938121Y-5171084D01*
X1943049Y-5174132D01*
X1948484Y-5176062D01*
G37*
G36*
X1040434Y-5125974D02*
G01*
X1209294Y-5125974D01*
X1215593Y-5125262D01*
X1221079Y-5123332D01*
X1225956Y-5120284D01*
X1230071Y-5116169D01*
X1233119Y-5111292D01*
X1235049Y-5105806D01*
X1235760Y-5099507D01*
X1235760Y-4930648D01*
X1235049Y-4924298D01*
X1233119Y-4918862D01*
X1230071Y-4913934D01*
X1225956Y-4909870D01*
X1221079Y-4906772D01*
X1215593Y-4904892D01*
X1209294Y-4904181D01*
X1040434Y-4904181D01*
X1034084Y-4904892D01*
X1028649Y-4906772D01*
X1023721Y-4909870D01*
X1019657Y-4913934D01*
X1016558Y-4918862D01*
X1014628Y-4924298D01*
X1013917Y-4930648D01*
X1013917Y-5099507D01*
X1014628Y-5105806D01*
X1016558Y-5111292D01*
X1019657Y-5116169D01*
X1023721Y-5120284D01*
X1028649Y-5123332D01*
X1034084Y-5125262D01*
G37*
G36*
X3237534Y-5087874D02*
G01*
X3406394Y-5087874D01*
X3412693Y-5087162D01*
X3418179Y-5085232D01*
X3423056Y-5082184D01*
X3427171Y-5078069D01*
X3430219Y-5073192D01*
X3432149Y-5067706D01*
X3432860Y-5061407D01*
X3432860Y-4892548D01*
X3432149Y-4886198D01*
X3430219Y-4880762D01*
X3427171Y-4875834D01*
X3423056Y-4871770D01*
X3418179Y-4868672D01*
X3412693Y-4866792D01*
X3406394Y-4866081D01*
X3237534Y-4866081D01*
X3231184Y-4866792D01*
X3225749Y-4868672D01*
X3220821Y-4871770D01*
X3216757Y-4875834D01*
X3213658Y-4880762D01*
X3211728Y-4886198D01*
X3211017Y-4892548D01*
X3211017Y-5061407D01*
X3211728Y-5067706D01*
X3213658Y-5073192D01*
X3216757Y-5078069D01*
X3220821Y-5082184D01*
X3225749Y-5085232D01*
X3231184Y-5087162D01*
G37*
G36*
X6018834Y-5075174D02*
G01*
X6187694Y-5075174D01*
X6193993Y-5074462D01*
X6199479Y-5072532D01*
X6204356Y-5069484D01*
X6208471Y-5065369D01*
X6211519Y-5060492D01*
X6213449Y-5055006D01*
X6214160Y-5048707D01*
X6214160Y-4879848D01*
X6213449Y-4873498D01*
X6211519Y-4868062D01*
X6208471Y-4863134D01*
X6204356Y-4859070D01*
X6199479Y-4855972D01*
X6193993Y-4854092D01*
X6187694Y-4853381D01*
X6018834Y-4853381D01*
X6012484Y-4854092D01*
X6007049Y-4855972D01*
X6002121Y-4859070D01*
X5998057Y-4863134D01*
X5994958Y-4868062D01*
X5993028Y-4873498D01*
X5992317Y-4879848D01*
X5992317Y-5048707D01*
X5993028Y-5055006D01*
X5994958Y-5060492D01*
X5998057Y-5065369D01*
X6002121Y-5069484D01*
X6007049Y-5072532D01*
X6012484Y-5074462D01*
G37*
G36*
X2496820Y-4726686D02*
G01*
X2506624Y-4725822D01*
X2516124Y-4723282D01*
X2525014Y-4719116D01*
X2533040Y-4713478D01*
X2540000Y-4706518D01*
X2545638Y-4698492D01*
X2549804Y-4689551D01*
X2552344Y-4680102D01*
X2553208Y-4670298D01*
X2552344Y-4660493D01*
X2550414Y-4653381D01*
X2550210Y-4648962D01*
X2551938Y-4644898D01*
X2555138Y-4641951D01*
X2559354Y-4640630D01*
X2561336Y-4640427D01*
X2570835Y-4637887D01*
X2579725Y-4633722D01*
X2587752Y-4628083D01*
X2594711Y-4621174D01*
X2600350Y-4613097D01*
X2604516Y-4604207D01*
X2607056Y-4594707D01*
X2607462Y-4590237D01*
X2608376Y-4586833D01*
X2610358Y-4583938D01*
X2706878Y-4487468D01*
X2710129Y-4485233D01*
X2714040Y-4484471D01*
X3226257Y-4484471D01*
X3230168Y-4485233D01*
X3233470Y-4487468D01*
X3235655Y-4490770D01*
X3236417Y-4494631D01*
X3236417Y-4528007D01*
X3237128Y-4534306D01*
X3239058Y-4539792D01*
X3242157Y-4544669D01*
X3246221Y-4548784D01*
X3251149Y-4551832D01*
X3256584Y-4553762D01*
X3262934Y-4554474D01*
X3431794Y-4554474D01*
X3438093Y-4553762D01*
X3443579Y-4551832D01*
X3448456Y-4548784D01*
X3452571Y-4544669D01*
X3455619Y-4539792D01*
X3457549Y-4534306D01*
X3458260Y-4528007D01*
X3458260Y-4359148D01*
X3457549Y-4352798D01*
X3455619Y-4347362D01*
X3452571Y-4342434D01*
X3448456Y-4338370D01*
X3443579Y-4335272D01*
X3438093Y-4333392D01*
X3431794Y-4332681D01*
X3262934Y-4332681D01*
X3256584Y-4333392D01*
X3251149Y-4335272D01*
X3246221Y-4338370D01*
X3242157Y-4342434D01*
X3239058Y-4347362D01*
X3237128Y-4352798D01*
X3236417Y-4359148D01*
X3236417Y-4392523D01*
X3235655Y-4396384D01*
X3233470Y-4399686D01*
X3230168Y-4401870D01*
X3226257Y-4402683D01*
X2693365Y-4402683D01*
X2684932Y-4403496D01*
X2677261Y-4405833D01*
X2670200Y-4409592D01*
X2663596Y-4414977D01*
X2552496Y-4526076D01*
X2549652Y-4528108D01*
X2546197Y-4529023D01*
X2541727Y-4529429D01*
X2532278Y-4531969D01*
X2523337Y-4536084D01*
X2515311Y-4541723D01*
X2508351Y-4548682D01*
X2502712Y-4556760D01*
X2498547Y-4565650D01*
X2496007Y-4575149D01*
X2494737Y-4589526D01*
X2492654Y-4593082D01*
X2489403Y-4595520D01*
X2485390Y-4596485D01*
X2481326Y-4595774D01*
X2477922Y-4593539D01*
X2428697Y-4544314D01*
X2426716Y-4541418D01*
X2425801Y-4538014D01*
X2425395Y-4533544D01*
X2422855Y-4524044D01*
X2418689Y-4515154D01*
X2413050Y-4507128D01*
X2406091Y-4500168D01*
X2398064Y-4494530D01*
X2389174Y-4490364D01*
X2379675Y-4487824D01*
X2369870Y-4486960D01*
X2360066Y-4487824D01*
X2350617Y-4490364D01*
X2341676Y-4494530D01*
X2333650Y-4500168D01*
X2326690Y-4507128D01*
X2321052Y-4515154D01*
X2316886Y-4524044D01*
X2314346Y-4533544D01*
X2313482Y-4543348D01*
X2314346Y-4553153D01*
X2316886Y-4562602D01*
X2321052Y-4571542D01*
X2326690Y-4579569D01*
X2333650Y-4586528D01*
X2341676Y-4592167D01*
X2350617Y-4596333D01*
X2360066Y-4598873D01*
X2364587Y-4599228D01*
X2367991Y-4600143D01*
X2370886Y-4602175D01*
X2437993Y-4669282D01*
X2440025Y-4672177D01*
X2440940Y-4675581D01*
X2441295Y-4680102D01*
X2443835Y-4689551D01*
X2448001Y-4698492D01*
X2453640Y-4706518D01*
X2460599Y-4713478D01*
X2468626Y-4719116D01*
X2477566Y-4723282D01*
X2487015Y-4725822D01*
G37*
G36*
X5662879Y-4644390D02*
G01*
X5672683Y-4643526D01*
X5682183Y-4640986D01*
X5691073Y-4636820D01*
X5699099Y-4631182D01*
X5706059Y-4624222D01*
X5711698Y-4616196D01*
X5715863Y-4607255D01*
X5718403Y-4597806D01*
X5719267Y-4588002D01*
X5718403Y-4578197D01*
X5715863Y-4568698D01*
X5711698Y-4559808D01*
X5705652Y-4551172D01*
X5704281Y-4548378D01*
X5703773Y-4545330D01*
X5703773Y-3993134D01*
X5704586Y-3989273D01*
X5706770Y-3985971D01*
X5710072Y-3983736D01*
X5713933Y-3982974D01*
X5743194Y-3982974D01*
X5749493Y-3982262D01*
X5754979Y-3980332D01*
X5759856Y-3977284D01*
X5763971Y-3973169D01*
X5767019Y-3968292D01*
X5768949Y-3962806D01*
X5769660Y-3956507D01*
X5769660Y-3787648D01*
X5768949Y-3781298D01*
X5767019Y-3775862D01*
X5763971Y-3770934D01*
X5759856Y-3766870D01*
X5754979Y-3763772D01*
X5749493Y-3761892D01*
X5743194Y-3761181D01*
X5574334Y-3761181D01*
X5567984Y-3761892D01*
X5562549Y-3763772D01*
X5557621Y-3766870D01*
X5553557Y-3770934D01*
X5550458Y-3775862D01*
X5548528Y-3781298D01*
X5547817Y-3787648D01*
X5547817Y-3956507D01*
X5548528Y-3962806D01*
X5550458Y-3968292D01*
X5553557Y-3973169D01*
X5557621Y-3977284D01*
X5562549Y-3980332D01*
X5567984Y-3982262D01*
X5574334Y-3982974D01*
X5608269Y-3982974D01*
X5611926Y-3983685D01*
X5615076Y-3985615D01*
X5617311Y-3988562D01*
X5618378Y-3992168D01*
X5618683Y-3995216D01*
X5621528Y-4004259D01*
X5621985Y-4007307D01*
X5621985Y-4545330D01*
X5621528Y-4548378D01*
X5620156Y-4551121D01*
X5614060Y-4559808D01*
X5609894Y-4568698D01*
X5607354Y-4578197D01*
X5606491Y-4588002D01*
X5607354Y-4597806D01*
X5609894Y-4607255D01*
X5614060Y-4616196D01*
X5619699Y-4624222D01*
X5626658Y-4631182D01*
X5634685Y-4636820D01*
X5643626Y-4640986D01*
X5653074Y-4643526D01*
G37*
G36*
X5872886Y-4567021D02*
G01*
X5882640Y-4566158D01*
X5892139Y-4563618D01*
X5901029Y-4559452D01*
X5909106Y-4553813D01*
X5916066Y-4546854D01*
X5921705Y-4538827D01*
X5925820Y-4529886D01*
X5928360Y-4520438D01*
X5928766Y-4515967D01*
X5929680Y-4512513D01*
X5931712Y-4509668D01*
X6182614Y-4258716D01*
X6187998Y-4252163D01*
X6191808Y-4245102D01*
X6194094Y-4237431D01*
X6194958Y-4228947D01*
X6194958Y-4082034D01*
X6195720Y-4078173D01*
X6197904Y-4074871D01*
X6201206Y-4072636D01*
X6205118Y-4071874D01*
X6238494Y-4071874D01*
X6244793Y-4071162D01*
X6250279Y-4069232D01*
X6255156Y-4066184D01*
X6259271Y-4062069D01*
X6262319Y-4057192D01*
X6264249Y-4051706D01*
X6264960Y-4045407D01*
X6264960Y-3876548D01*
X6264249Y-3870198D01*
X6262319Y-3864762D01*
X6259271Y-3859834D01*
X6255156Y-3855770D01*
X6250279Y-3852672D01*
X6244793Y-3850792D01*
X6238494Y-3850081D01*
X6069634Y-3850081D01*
X6063284Y-3850792D01*
X6057849Y-3852672D01*
X6052921Y-3855770D01*
X6048857Y-3859834D01*
X6045758Y-3864762D01*
X6043828Y-3870198D01*
X6043117Y-3876548D01*
X6043117Y-4045407D01*
X6043828Y-4051706D01*
X6045758Y-4057192D01*
X6048857Y-4062069D01*
X6052921Y-4066184D01*
X6057849Y-4069232D01*
X6063284Y-4071162D01*
X6069634Y-4071874D01*
X6102959Y-4071874D01*
X6106871Y-4072636D01*
X6110173Y-4074871D01*
X6112357Y-4078173D01*
X6113119Y-4082034D01*
X6113119Y-4208322D01*
X6112357Y-4212183D01*
X6110173Y-4215485D01*
X5873851Y-4451807D01*
X5870956Y-4453788D01*
X5867552Y-4454702D01*
X5863082Y-4455109D01*
X5853582Y-4457649D01*
X5844692Y-4461814D01*
X5836615Y-4467453D01*
X5829706Y-4474413D01*
X5824067Y-4482439D01*
X5819902Y-4491329D01*
X5817362Y-4500829D01*
X5816498Y-4510633D01*
X5817362Y-4520438D01*
X5819902Y-4529886D01*
X5824067Y-4538827D01*
X5829706Y-4546854D01*
X5836615Y-4553813D01*
X5844692Y-4559452D01*
X5853582Y-4563618D01*
X5863082Y-4566158D01*
G37*
G36*
X2372360Y-4400092D02*
G01*
X2382164Y-4399229D01*
X2391664Y-4396689D01*
X2400554Y-4392523D01*
X2408580Y-4386884D01*
X2415540Y-4379925D01*
X2421178Y-4371898D01*
X2425344Y-4362958D01*
X2427884Y-4353509D01*
X2428290Y-4349038D01*
X2429205Y-4345584D01*
X2431186Y-4342739D01*
X2461107Y-4312818D01*
X2466492Y-4306214D01*
X2470302Y-4299153D01*
X2472588Y-4291482D01*
X2473452Y-4283049D01*
X2473452Y-4259427D01*
X2474214Y-4255566D01*
X2476398Y-4252264D01*
X2479700Y-4250029D01*
X2483612Y-4249267D01*
X2594203Y-4249267D01*
X2597251Y-4249724D01*
X2600045Y-4251096D01*
X2608732Y-4257192D01*
X2617622Y-4261358D01*
X2627122Y-4263898D01*
X2636926Y-4264761D01*
X2646680Y-4263898D01*
X2656179Y-4261358D01*
X2665069Y-4257192D01*
X2673146Y-4251553D01*
X2680106Y-4244594D01*
X2685745Y-4236567D01*
X2689860Y-4227626D01*
X2692400Y-4218178D01*
X2693263Y-4208373D01*
X2692400Y-4198569D01*
X2689860Y-4189069D01*
X2685745Y-4180179D01*
X2680106Y-4172153D01*
X2673146Y-4165193D01*
X2665069Y-4159554D01*
X2656179Y-4155389D01*
X2646680Y-4152849D01*
X2636926Y-4151985D01*
X2627122Y-4152849D01*
X2617622Y-4155389D01*
X2608732Y-4159554D01*
X2600045Y-4165600D01*
X2597251Y-4166971D01*
X2594203Y-4167479D01*
X2483612Y-4167479D01*
X2479700Y-4166666D01*
X2476398Y-4164482D01*
X2474214Y-4161180D01*
X2473452Y-4157319D01*
X2473452Y-1402638D01*
X2474417Y-1398320D01*
X2477109Y-1394815D01*
X2488946Y-1384960D01*
X2501544Y-1372006D01*
X2512822Y-1357782D01*
X2522524Y-1342491D01*
X2530602Y-1326286D01*
X2537002Y-1309370D01*
X2541625Y-1291844D01*
X2544419Y-1273962D01*
X2545334Y-1255877D01*
X2544419Y-1237792D01*
X2541625Y-1219911D01*
X2537002Y-1202385D01*
X2530602Y-1185418D01*
X2522524Y-1169212D01*
X2512822Y-1153972D01*
X2501544Y-1139748D01*
X2488946Y-1126794D01*
X2475026Y-1115161D01*
X2459990Y-1105052D01*
X2443988Y-1096568D01*
X2427224Y-1089761D01*
X2409850Y-1084681D01*
X2392019Y-1081430D01*
X2373985Y-1080058D01*
X2355850Y-1080516D01*
X2337917Y-1082852D01*
X2320290Y-1086967D01*
X2303170Y-1092962D01*
X2286762Y-1100632D01*
X2271268Y-1109929D01*
X2256790Y-1120800D01*
X2243480Y-1133094D01*
X2231542Y-1146708D01*
X2221026Y-1161491D01*
X2212086Y-1177239D01*
X2204872Y-1193850D01*
X2199335Y-1211072D01*
X2195626Y-1228801D01*
X2193798Y-1246835D01*
X2193798Y-1264920D01*
X2195626Y-1282954D01*
X2199335Y-1300683D01*
X2204872Y-1317904D01*
X2212086Y-1334516D01*
X2221026Y-1350264D01*
X2231542Y-1365046D01*
X2243480Y-1378661D01*
X2256790Y-1390954D01*
X2271268Y-1401826D01*
X2286762Y-1411122D01*
X2303170Y-1418793D01*
X2320290Y-1424736D01*
X2337917Y-1428902D01*
X2355850Y-1431239D01*
X2373985Y-1431696D01*
X2380691Y-1431188D01*
X2384806Y-1431747D01*
X2388362Y-1433880D01*
X2390800Y-1437233D01*
X2391613Y-1441297D01*
X2391613Y-4262374D01*
X2390851Y-4266285D01*
X2388666Y-4269536D01*
X2373376Y-4284878D01*
X2370480Y-4286859D01*
X2367076Y-4287774D01*
X2362555Y-4288180D01*
X2353106Y-4290720D01*
X2344166Y-4294886D01*
X2336139Y-4300524D01*
X2329180Y-4307484D01*
X2323541Y-4315510D01*
X2319375Y-4324400D01*
X2316835Y-4333900D01*
X2315972Y-4343704D01*
X2316835Y-4353509D01*
X2319375Y-4362958D01*
X2323541Y-4371898D01*
X2329180Y-4379925D01*
X2336139Y-4386884D01*
X2344166Y-4392523D01*
X2353106Y-4396689D01*
X2362555Y-4399229D01*
G37*
G36*
X1510334Y-4160774D02*
G01*
X1679193Y-4160774D01*
X1685493Y-4160062D01*
X1690979Y-4158132D01*
X1695856Y-4155084D01*
X1699971Y-4150969D01*
X1703019Y-4146092D01*
X1704949Y-4140606D01*
X1705660Y-4134307D01*
X1705660Y-3965448D01*
X1704949Y-3959098D01*
X1703019Y-3953662D01*
X1699971Y-3948734D01*
X1695856Y-3944670D01*
X1690979Y-3941572D01*
X1685493Y-3939692D01*
X1679193Y-3938981D01*
X1510334Y-3938981D01*
X1503984Y-3939692D01*
X1498549Y-3941572D01*
X1493621Y-3944670D01*
X1489557Y-3948734D01*
X1486458Y-3953662D01*
X1484528Y-3959098D01*
X1483817Y-3965448D01*
X1483817Y-4134307D01*
X1484528Y-4140606D01*
X1486458Y-4146092D01*
X1489557Y-4150969D01*
X1493621Y-4155084D01*
X1498549Y-4158132D01*
X1503984Y-4160062D01*
G37*
G36*
X1027734Y-4109974D02*
G01*
X1196594Y-4109974D01*
X1202893Y-4109262D01*
X1208379Y-4107332D01*
X1213256Y-4104284D01*
X1217371Y-4100169D01*
X1220419Y-4095292D01*
X1222349Y-4089806D01*
X1223060Y-4083507D01*
X1223060Y-3914648D01*
X1222349Y-3908298D01*
X1220419Y-3902862D01*
X1217371Y-3897934D01*
X1213256Y-3893870D01*
X1208379Y-3890772D01*
X1202893Y-3888892D01*
X1196594Y-3888181D01*
X1027734Y-3888181D01*
X1021384Y-3888892D01*
X1015949Y-3890772D01*
X1011021Y-3893870D01*
X1006957Y-3897934D01*
X1003858Y-3902862D01*
X1001928Y-3908298D01*
X1001217Y-3914648D01*
X1001217Y-4083507D01*
X1001928Y-4089806D01*
X1003858Y-4095292D01*
X1006957Y-4100169D01*
X1011021Y-4104284D01*
X1015949Y-4107332D01*
X1021384Y-4109262D01*
G37*
G36*
X3618534Y-3843274D02*
G01*
X3787394Y-3843274D01*
X3793693Y-3842562D01*
X3799179Y-3840632D01*
X3804056Y-3837584D01*
X3808171Y-3833469D01*
X3811219Y-3828592D01*
X3813149Y-3823106D01*
X3813860Y-3816807D01*
X3813860Y-3647948D01*
X3813149Y-3641598D01*
X3811219Y-3636162D01*
X3808171Y-3631234D01*
X3804056Y-3627170D01*
X3799179Y-3624072D01*
X3793693Y-3622192D01*
X3787394Y-3621481D01*
X3618534Y-3621481D01*
X3612184Y-3622192D01*
X3606749Y-3624072D01*
X3601821Y-3627170D01*
X3597757Y-3631234D01*
X3594658Y-3636162D01*
X3592728Y-3641598D01*
X3592017Y-3647948D01*
X3592017Y-3816807D01*
X3592728Y-3823106D01*
X3594658Y-3828592D01*
X3597757Y-3833469D01*
X3601821Y-3837584D01*
X3606749Y-3840632D01*
X3612184Y-3842562D01*
G37*
G36*
X4444085Y-1431696D02*
G01*
X4462119Y-1430324D01*
X4479950Y-1427073D01*
X4497324Y-1421993D01*
X4514088Y-1415186D01*
X4530090Y-1406652D01*
X4545126Y-1396542D01*
X4559046Y-1384960D01*
X4571644Y-1372006D01*
X4582922Y-1357782D01*
X4592624Y-1342491D01*
X4600702Y-1326286D01*
X4607102Y-1309370D01*
X4611725Y-1291844D01*
X4614519Y-1273962D01*
X4615434Y-1255877D01*
X4614519Y-1237792D01*
X4611725Y-1219911D01*
X4607102Y-1202385D01*
X4600702Y-1185418D01*
X4592624Y-1169212D01*
X4582922Y-1153972D01*
X4571644Y-1139748D01*
X4559046Y-1126794D01*
X4545126Y-1115161D01*
X4530090Y-1105052D01*
X4514088Y-1096568D01*
X4497324Y-1089761D01*
X4479950Y-1084681D01*
X4462119Y-1081430D01*
X4444085Y-1080058D01*
X4425950Y-1080516D01*
X4408017Y-1082852D01*
X4390390Y-1086967D01*
X4373270Y-1092962D01*
X4356862Y-1100632D01*
X4341368Y-1109929D01*
X4326890Y-1120800D01*
X4313580Y-1133094D01*
X4301642Y-1146708D01*
X4291126Y-1161491D01*
X4282186Y-1177239D01*
X4274972Y-1193850D01*
X4269435Y-1211072D01*
X4265726Y-1228801D01*
X4263898Y-1246835D01*
X4263898Y-1264920D01*
X4265726Y-1282954D01*
X4269435Y-1300683D01*
X4274972Y-1317904D01*
X4282186Y-1334516D01*
X4291126Y-1350264D01*
X4301642Y-1365046D01*
X4313580Y-1378661D01*
X4326890Y-1390954D01*
X4341368Y-1401826D01*
X4356862Y-1411122D01*
X4373270Y-1418793D01*
X4390390Y-1424736D01*
X4408017Y-1428902D01*
X4425950Y-1431239D01*
G37*

%LPD*%
D10*
X5036444Y-1002758D02*
G01*
X5328544Y-1294858D01*
X5328544Y-3478601D01*
X4729027Y-4078119D01*
X4729027Y-4106080D01*
X1175644Y-1255872D02*
G01*
X2006600Y-2086836D01*
X2006600Y-4330692D01*
X5658744Y-3872072D02*
G01*
X5658744Y-3987284D01*
X5658744Y-3987284D02*
G01*
X5662886Y-3991427D01*
X5662886Y-4587996D01*
X6154044Y-3960972D02*
G01*
X6154044Y-4229453D01*
X5872871Y-4510625D01*
X1124844Y-5497672D02*
G01*
X1240086Y-5497672D01*
X1240086Y-5497672D02*
G01*
X1240086Y-5450735D01*
X2044987Y-4645830D01*
X6103244Y-5472272D02*
G01*
X5988027Y-5472272D01*
X5988027Y-5472272D02*
G01*
X5111529Y-4595766D01*
X5111529Y-4320788D01*
X5083385Y-4292648D01*
X3880744Y-4926172D02*
G01*
X3880744Y-5475119D01*
X1772544Y-1002758D02*
G01*
X2122451Y-1352671D01*
X2122451Y-4176618D01*
X2122451Y-4176618D02*
G01*
X2143610Y-4197776D01*
X2143610Y-4492337D01*
X5452033Y-4421725D02*
G01*
X5452033Y-4541718D01*
X5332054Y-4541669D02*
G01*
X5332054Y-4421675D01*
X1832533Y-4485200D02*
G01*
X1832533Y-4605192D01*
X1712554Y-4485152D02*
G01*
X1712554Y-4605144D01*
X2257983Y-4768794D02*
G01*
X2843436Y-4768794D01*
X3079750Y-4532472D01*
X2257983Y-5797671D02*
G01*
X2257983Y-4768794D01*
X1832559Y-4485175D02*
G01*
X1974367Y-4485175D01*
X2140384Y-4651194D01*
X2140384Y-4676259D01*
X2232919Y-4768794D01*
X2257983Y-4768794D01*
X3347344Y-4443572D02*
G01*
X2692885Y-4443572D01*
X2551534Y-4584920D01*
X3880744Y-4546084D02*
G01*
X4214045Y-4879385D01*
X4618050Y-4879385D01*
X5050645Y-4446798D01*
X3880744Y-4430872D02*
G01*
X3880744Y-4546084D01*
X4795144Y-5547530D02*
G01*
X4775126Y-5547530D01*
X3764485Y-4536894D01*
X3764485Y-4324217D01*
X3820010Y-4268693D01*
X4804892Y-4268693D01*
X4795144Y-5662772D02*
G01*
X4795144Y-5547530D01*
X1772544Y-2703672D02*
G01*
X1772544Y-4211896D01*
X2254486Y-4693838D01*
X2254486Y-4704250D01*
X4894661Y-3998589D02*
G01*
X5633344Y-3259904D01*
X5633344Y-1255872D01*
X5036444Y-2703672D02*
G01*
X4492525Y-3247590D01*
X4492525Y-4157568D01*
X4492525Y-4157568D02*
G01*
X4533976Y-4199023D01*
X4835550Y-4199023D01*
X4867175Y-4230641D01*
X4867175Y-4303158D01*
X4368403Y-4801938D01*
X4254078Y-4801938D01*
X5337820Y-3704231D02*
G01*
X5337820Y-4228254D01*
X5268528Y-4297547D01*
X5268528Y-4664295D01*
X5285209Y-4680983D01*
X2496827Y-4670292D02*
G01*
X2369878Y-4543343D01*
X2432535Y-4208368D02*
G01*
X2636900Y-4208368D01*
X2369444Y-1255872D02*
G01*
X2432535Y-1318963D01*
X2432535Y-4208368D01*
X2432535Y-4208368D02*
G01*
X2432535Y-4283527D01*
X2372370Y-4343702D01*
D11*
G01*
X1594744Y-4049872D03*
G01*
X5658744Y-3872072D03*
G01*
X1112144Y-3999072D03*
G01*
X6154044Y-3960972D03*
G01*
X1124844Y-5015072D03*
G01*
X6103244Y-4964272D03*
G01*
X3347344Y-4443572D03*
G01*
X1124844Y-5497672D03*
G01*
X3880744Y-4430872D03*
G01*
X6103244Y-5472272D03*
G01*
X3702944Y-3732372D03*
G01*
X2039244Y-5065872D03*
G01*
X5163444Y-4100672D03*
G01*
X3321944Y-4976972D03*
G01*
X3880744Y-4926172D03*
G01*
X1709044Y-5446872D03*
G01*
X4795144Y-5662772D03*
D12*
G01*
X1772544Y-2703672D03*
G01*
X1175644Y-1255872D03*
G01*
X1772544Y-1002761D03*
G01*
X2369444Y-1255872D03*
G01*
X5036444Y-2703672D03*
G01*
X4439544Y-1255872D03*
G01*
X5036444Y-1002761D03*
G01*
X5633344Y-1255872D03*
D13*
G01*
X1832536Y-4605192D03*
G01*
X1712546Y-4485152D03*
G01*
X1832561Y-4485177D03*
G01*
X1712521Y-4605167D03*
G01*
X5332046Y-4421677D03*
G01*
X5452036Y-4541718D03*
G01*
X5332021Y-4541692D03*
G01*
X5452061Y-4421703D03*
D14*
G01*
X2372362Y-4343699D03*
G01*
X2636903Y-4208368D03*
G01*
X2369873Y-4543343D03*
G01*
X2496822Y-4670292D03*
G01*
X5285209Y-4680986D03*
G01*
X5337812Y-3704229D03*
G01*
X4254070Y-4801941D03*
G01*
X4492525Y-4157568D03*
G01*
X4894658Y-3998589D03*
G01*
X2254481Y-4704252D03*
G01*
X4804895Y-4268693D03*
G01*
X5050640Y-4446798D03*
G01*
X2551534Y-4584923D03*
G01*
X3079752Y-4532472D03*
G01*
X2257986Y-5797671D03*
G01*
X2143610Y-4492340D03*
G01*
X2122451Y-4176618D03*
G01*
X4729025Y-4106082D03*
G01*
X3880741Y-5475117D03*
G01*
X5083380Y-4292645D03*
G01*
X2044981Y-4645832D03*
G01*
X5872863Y-4510628D03*
G01*
X5662881Y-4587996D03*
G01*
X2006602Y-4330694D03*
M02*
