G04 Layer: TopSilkscreenLayer*
G04 EasyEDA v6.5.29, 2023-07-10 19:36:55*
G04 1e7b4ab6233f4b76a91dc94f4c831b37,398929e9e95146ce9e037ed163e1f376,10*
G04 Gerber Generator version 0.2*
G04 Scale: 100 percent, Rotated: No, Reflected: No *
G04 Dimensions in millimeters *
G04 leading zeros omitted , absolute positions ,4 integer and 5 decimal *
%FSLAX45Y45*%
%MOMM*%

%ADD10C,0.1524*%
%ADD11C,0.2032*%
%ADD12C,0.2540*%
%ADD13C,0.2000*%
%ADD14C,0.1000*%
%ADD15C,0.3000*%
%ADD16C,0.0156*%

%LPD*%
D10*
X1596522Y-4887564D02*
G01*
X1591188Y-4877150D01*
X1580774Y-4866736D01*
X1570614Y-4861656D01*
X1549786Y-4861656D01*
X1539372Y-4866736D01*
X1528958Y-4877150D01*
X1523624Y-4887564D01*
X1518544Y-4903312D01*
X1518544Y-4929220D01*
X1523624Y-4944714D01*
X1528958Y-4955128D01*
X1539372Y-4965542D01*
X1549786Y-4970622D01*
X1570614Y-4970622D01*
X1580774Y-4965542D01*
X1591188Y-4955128D01*
X1596522Y-4944714D01*
X1630812Y-4882484D02*
G01*
X1641226Y-4877150D01*
X1656720Y-4861656D01*
X1656720Y-4970622D01*
X5812922Y-4849464D02*
G01*
X5807588Y-4839050D01*
X5797174Y-4828636D01*
X5787014Y-4823556D01*
X5766186Y-4823556D01*
X5755772Y-4828636D01*
X5745358Y-4839050D01*
X5740024Y-4849464D01*
X5734944Y-4865212D01*
X5734944Y-4891120D01*
X5740024Y-4906614D01*
X5745358Y-4917028D01*
X5755772Y-4927442D01*
X5766186Y-4932522D01*
X5787014Y-4932522D01*
X5797174Y-4927442D01*
X5807588Y-4917028D01*
X5812922Y-4906614D01*
X5899028Y-4823556D02*
G01*
X5847212Y-4896200D01*
X5925190Y-4896200D01*
X5899028Y-4823556D02*
G01*
X5899028Y-4932522D01*
X2358522Y-5700364D02*
G01*
X2353188Y-5689950D01*
X2342774Y-5679536D01*
X2332614Y-5674456D01*
X2311786Y-5674456D01*
X2301372Y-5679536D01*
X2290958Y-5689950D01*
X2285624Y-5700364D01*
X2280544Y-5716112D01*
X2280544Y-5742020D01*
X2285624Y-5757514D01*
X2290958Y-5767928D01*
X2301372Y-5778342D01*
X2311786Y-5783422D01*
X2332614Y-5783422D01*
X2342774Y-5778342D01*
X2353188Y-5767928D01*
X2358522Y-5757514D01*
X2397892Y-5700364D02*
G01*
X2397892Y-5695284D01*
X2403226Y-5684870D01*
X2408306Y-5679536D01*
X2418720Y-5674456D01*
X2439548Y-5674456D01*
X2449962Y-5679536D01*
X2455042Y-5684870D01*
X2460376Y-5695284D01*
X2460376Y-5705698D01*
X2455042Y-5716112D01*
X2444628Y-5731606D01*
X2392812Y-5783422D01*
X2465456Y-5783422D01*
X1952122Y-5700364D02*
G01*
X1946788Y-5689950D01*
X1936374Y-5679536D01*
X1926214Y-5674456D01*
X1905386Y-5674456D01*
X1894972Y-5679536D01*
X1884558Y-5689950D01*
X1879224Y-5700364D01*
X1874144Y-5716112D01*
X1874144Y-5742020D01*
X1879224Y-5757514D01*
X1884558Y-5767928D01*
X1894972Y-5778342D01*
X1905386Y-5783422D01*
X1926214Y-5783422D01*
X1936374Y-5778342D01*
X1946788Y-5767928D01*
X1952122Y-5757514D01*
X1996826Y-5674456D02*
G01*
X2053976Y-5674456D01*
X2022734Y-5716112D01*
X2038228Y-5716112D01*
X2048642Y-5721192D01*
X2053976Y-5726272D01*
X2059056Y-5742020D01*
X2059056Y-5752434D01*
X2053976Y-5767928D01*
X2043562Y-5778342D01*
X2027814Y-5783422D01*
X2012320Y-5783422D01*
X1996826Y-5778342D01*
X1991492Y-5773262D01*
X1986412Y-5762848D01*
X5673222Y-5357464D02*
G01*
X5667888Y-5347050D01*
X5657474Y-5336636D01*
X5647314Y-5331556D01*
X5626486Y-5331556D01*
X5616072Y-5336636D01*
X5605658Y-5347050D01*
X5600324Y-5357464D01*
X5595244Y-5373212D01*
X5595244Y-5399120D01*
X5600324Y-5414614D01*
X5605658Y-5425028D01*
X5616072Y-5435442D01*
X5626486Y-5440522D01*
X5647314Y-5440522D01*
X5657474Y-5435442D01*
X5667888Y-5425028D01*
X5673222Y-5414614D01*
X5769742Y-5331556D02*
G01*
X5717926Y-5331556D01*
X5712592Y-5378292D01*
X5717926Y-5373212D01*
X5733420Y-5367878D01*
X5748914Y-5367878D01*
X5764662Y-5373212D01*
X5775076Y-5383372D01*
X5780156Y-5399120D01*
X5780156Y-5409534D01*
X5775076Y-5425028D01*
X5764662Y-5435442D01*
X5748914Y-5440522D01*
X5733420Y-5440522D01*
X5717926Y-5435442D01*
X5712592Y-5430362D01*
X5707512Y-5419948D01*
X5304922Y-5344764D02*
G01*
X5299588Y-5334350D01*
X5289174Y-5323936D01*
X5279014Y-5318856D01*
X5258186Y-5318856D01*
X5247772Y-5323936D01*
X5237358Y-5334350D01*
X5232024Y-5344764D01*
X5226944Y-5360512D01*
X5226944Y-5386420D01*
X5232024Y-5401914D01*
X5237358Y-5412328D01*
X5247772Y-5422742D01*
X5258186Y-5427822D01*
X5279014Y-5427822D01*
X5289174Y-5422742D01*
X5299588Y-5412328D01*
X5304922Y-5401914D01*
X5401442Y-5334350D02*
G01*
X5396362Y-5323936D01*
X5380614Y-5318856D01*
X5370454Y-5318856D01*
X5354706Y-5323936D01*
X5344292Y-5339684D01*
X5339212Y-5365592D01*
X5339212Y-5391500D01*
X5344292Y-5412328D01*
X5354706Y-5422742D01*
X5370454Y-5427822D01*
X5375534Y-5427822D01*
X5391028Y-5422742D01*
X5401442Y-5412328D01*
X5406776Y-5396834D01*
X5406776Y-5391500D01*
X5401442Y-5376006D01*
X5391028Y-5365592D01*
X5375534Y-5360512D01*
X5370454Y-5360512D01*
X5354706Y-5365592D01*
X5344292Y-5376006D01*
X5339212Y-5391500D01*
X1532514Y-3744056D02*
G01*
X1532514Y-3827114D01*
X1527180Y-3842862D01*
X1522100Y-3847942D01*
X1511686Y-3853022D01*
X1501272Y-3853022D01*
X1490858Y-3847942D01*
X1485524Y-3842862D01*
X1480444Y-3827114D01*
X1480444Y-3816700D01*
X1566804Y-3889598D02*
G01*
X1660276Y-3889598D01*
X1694566Y-3744056D02*
G01*
X1694566Y-3853022D01*
X1694566Y-3744056D02*
G01*
X1735968Y-3853022D01*
X1777624Y-3744056D02*
G01*
X1735968Y-3853022D01*
X1777624Y-3744056D02*
G01*
X1777624Y-3853022D01*
X1811914Y-3744056D02*
G01*
X1811914Y-3853022D01*
X1811914Y-3744056D02*
G01*
X1879478Y-3744056D01*
X1811914Y-3795872D02*
G01*
X1853570Y-3795872D01*
X1811914Y-3853022D02*
G01*
X1879478Y-3853022D01*
X1913768Y-3744056D02*
G01*
X1913768Y-3853022D01*
X1913768Y-3744056D02*
G01*
X1986412Y-3853022D01*
X1986412Y-3744056D02*
G01*
X1986412Y-3853022D01*
X2020702Y-3744056D02*
G01*
X2020702Y-3853022D01*
X2020702Y-3744056D02*
G01*
X2067438Y-3744056D01*
X2083186Y-3749136D01*
X2088266Y-3754470D01*
X2093600Y-3764884D01*
X2093600Y-3775298D01*
X2088266Y-3785712D01*
X2083186Y-3790792D01*
X2067438Y-3795872D01*
X2020702Y-3795872D02*
G01*
X2067438Y-3795872D01*
X2083186Y-3801206D01*
X2088266Y-3806286D01*
X2093600Y-3816700D01*
X2093600Y-3832448D01*
X2088266Y-3842862D01*
X2083186Y-3847942D01*
X2067438Y-3853022D01*
X2020702Y-3853022D01*
X5469514Y-3515456D02*
G01*
X5469514Y-3598514D01*
X5464180Y-3614262D01*
X5459100Y-3619342D01*
X5448686Y-3624422D01*
X5438272Y-3624422D01*
X5427858Y-3619342D01*
X5422524Y-3614262D01*
X5417444Y-3598514D01*
X5417444Y-3588100D01*
X5503804Y-3660998D02*
G01*
X5597276Y-3660998D01*
X5631566Y-3515456D02*
G01*
X5631566Y-3624422D01*
X5631566Y-3515456D02*
G01*
X5672968Y-3624422D01*
X5714624Y-3515456D02*
G01*
X5672968Y-3624422D01*
X5714624Y-3515456D02*
G01*
X5714624Y-3624422D01*
X5748914Y-3515456D02*
G01*
X5748914Y-3624422D01*
X5748914Y-3515456D02*
G01*
X5816478Y-3515456D01*
X5748914Y-3567272D02*
G01*
X5790570Y-3567272D01*
X5748914Y-3624422D02*
G01*
X5816478Y-3624422D01*
X5850768Y-3515456D02*
G01*
X5850768Y-3624422D01*
X5850768Y-3515456D02*
G01*
X5923412Y-3624422D01*
X5923412Y-3515456D02*
G01*
X5923412Y-3624422D01*
X5957702Y-3515456D02*
G01*
X5957702Y-3624422D01*
X5957702Y-3515456D02*
G01*
X6004438Y-3515456D01*
X6020186Y-3520536D01*
X6025266Y-3525870D01*
X6030600Y-3536284D01*
X6030600Y-3546698D01*
X6025266Y-3557112D01*
X6020186Y-3562192D01*
X6004438Y-3567272D01*
X5957702Y-3567272D02*
G01*
X6004438Y-3567272D01*
X6020186Y-3572606D01*
X6025266Y-3577686D01*
X6030600Y-3588100D01*
X6030600Y-3603848D01*
X6025266Y-3614262D01*
X6020186Y-3619342D01*
X6004438Y-3624422D01*
X5957702Y-3624422D01*
X6064890Y-3536284D02*
G01*
X6075304Y-3530950D01*
X6090798Y-3515456D01*
X6090798Y-3624422D01*
X1083188Y-3734150D02*
G01*
X1072774Y-3723736D01*
X1057280Y-3718656D01*
X1036452Y-3718656D01*
X1020958Y-3723736D01*
X1010544Y-3734150D01*
X1010544Y-3744564D01*
X1015624Y-3754978D01*
X1020958Y-3760312D01*
X1031372Y-3765392D01*
X1062614Y-3775806D01*
X1072774Y-3780886D01*
X1078108Y-3786220D01*
X1083188Y-3796634D01*
X1083188Y-3812128D01*
X1072774Y-3822542D01*
X1057280Y-3827622D01*
X1036452Y-3827622D01*
X1020958Y-3822542D01*
X1010544Y-3812128D01*
X1195456Y-3744564D02*
G01*
X1190376Y-3734150D01*
X1179962Y-3723736D01*
X1169548Y-3718656D01*
X1148720Y-3718656D01*
X1138306Y-3723736D01*
X1127892Y-3734150D01*
X1122812Y-3744564D01*
X1117478Y-3760312D01*
X1117478Y-3786220D01*
X1122812Y-3801714D01*
X1127892Y-3812128D01*
X1138306Y-3822542D01*
X1148720Y-3827622D01*
X1169548Y-3827622D01*
X1179962Y-3822542D01*
X1190376Y-3812128D01*
X1195456Y-3801714D01*
X1229746Y-3718656D02*
G01*
X1229746Y-3827622D01*
X1229746Y-3827622D02*
G01*
X1292230Y-3827622D01*
X6086988Y-3696050D02*
G01*
X6076574Y-3685636D01*
X6061080Y-3680556D01*
X6040252Y-3680556D01*
X6024758Y-3685636D01*
X6014344Y-3696050D01*
X6014344Y-3706464D01*
X6019424Y-3716878D01*
X6024758Y-3722212D01*
X6035172Y-3727292D01*
X6066414Y-3737706D01*
X6076574Y-3742786D01*
X6081908Y-3748120D01*
X6086988Y-3758534D01*
X6086988Y-3774028D01*
X6076574Y-3784442D01*
X6061080Y-3789522D01*
X6040252Y-3789522D01*
X6024758Y-3784442D01*
X6014344Y-3774028D01*
X6199256Y-3706464D02*
G01*
X6194176Y-3696050D01*
X6183762Y-3685636D01*
X6173348Y-3680556D01*
X6152520Y-3680556D01*
X6142106Y-3685636D01*
X6131692Y-3696050D01*
X6126612Y-3706464D01*
X6121278Y-3722212D01*
X6121278Y-3748120D01*
X6126612Y-3763614D01*
X6131692Y-3774028D01*
X6142106Y-3784442D01*
X6152520Y-3789522D01*
X6173348Y-3789522D01*
X6183762Y-3784442D01*
X6194176Y-3774028D01*
X6199256Y-3763614D01*
X6233546Y-3680556D02*
G01*
X6233546Y-3789522D01*
X6233546Y-3789522D02*
G01*
X6296030Y-3789522D01*
X6330320Y-3701384D02*
G01*
X6340734Y-3696050D01*
X6356228Y-3680556D01*
X6356228Y-3789522D01*
X1197488Y-4773010D02*
G01*
X1187074Y-4762596D01*
X1171580Y-4757516D01*
X1150752Y-4757516D01*
X1135258Y-4762596D01*
X1124844Y-4773010D01*
X1124844Y-4783424D01*
X1129924Y-4793838D01*
X1135258Y-4799172D01*
X1145672Y-4804252D01*
X1176914Y-4814666D01*
X1187074Y-4819746D01*
X1192408Y-4825080D01*
X1197488Y-4835494D01*
X1197488Y-4850988D01*
X1187074Y-4861402D01*
X1171580Y-4866482D01*
X1150752Y-4866482D01*
X1135258Y-4861402D01*
X1124844Y-4850988D01*
X1231778Y-4757516D02*
G01*
X1231778Y-4866482D01*
X1231778Y-4757516D02*
G01*
X1268354Y-4757516D01*
X1283848Y-4762596D01*
X1294262Y-4773010D01*
X1299342Y-4783424D01*
X1304676Y-4799172D01*
X1304676Y-4825080D01*
X1299342Y-4840574D01*
X1294262Y-4850988D01*
X1283848Y-4861402D01*
X1268354Y-4866482D01*
X1231778Y-4866482D01*
X1380368Y-4757516D02*
G01*
X1338966Y-4866482D01*
X1380368Y-4757516D02*
G01*
X1422024Y-4866482D01*
X1354460Y-4830160D02*
G01*
X1406530Y-4830160D01*
X6023488Y-4737450D02*
G01*
X6013074Y-4727036D01*
X5997580Y-4721956D01*
X5976752Y-4721956D01*
X5961258Y-4727036D01*
X5950844Y-4737450D01*
X5950844Y-4747864D01*
X5955924Y-4758278D01*
X5961258Y-4763612D01*
X5971672Y-4768692D01*
X6002914Y-4779106D01*
X6013074Y-4784186D01*
X6018408Y-4789520D01*
X6023488Y-4799934D01*
X6023488Y-4815428D01*
X6013074Y-4825842D01*
X5997580Y-4830922D01*
X5976752Y-4830922D01*
X5961258Y-4825842D01*
X5950844Y-4815428D01*
X6057778Y-4721956D02*
G01*
X6057778Y-4830922D01*
X6057778Y-4721956D02*
G01*
X6094354Y-4721956D01*
X6109848Y-4727036D01*
X6120262Y-4737450D01*
X6125342Y-4747864D01*
X6130676Y-4763612D01*
X6130676Y-4789520D01*
X6125342Y-4805014D01*
X6120262Y-4815428D01*
X6109848Y-4825842D01*
X6094354Y-4830922D01*
X6057778Y-4830922D01*
X6206368Y-4721956D02*
G01*
X6164966Y-4830922D01*
X6206368Y-4721956D02*
G01*
X6248024Y-4830922D01*
X6180460Y-4794600D02*
G01*
X6232530Y-4794600D01*
X6282314Y-4742784D02*
G01*
X6292728Y-4737450D01*
X6308222Y-4721956D01*
X6308222Y-4830922D01*
X3142366Y-4137756D02*
G01*
X3142366Y-4246722D01*
X3106044Y-4137756D02*
G01*
X3178688Y-4137756D01*
X3212978Y-4137756D02*
G01*
X3212978Y-4246722D01*
X3212978Y-4137756D02*
G01*
X3259714Y-4137756D01*
X3275462Y-4142836D01*
X3280542Y-4148170D01*
X3285876Y-4158584D01*
X3285876Y-4174078D01*
X3280542Y-4184492D01*
X3275462Y-4189572D01*
X3259714Y-4194906D01*
X3212978Y-4194906D01*
X3320166Y-4283298D02*
G01*
X3413638Y-4283298D01*
X3525906Y-4163664D02*
G01*
X3520572Y-4153250D01*
X3510158Y-4142836D01*
X3499744Y-4137756D01*
X3479170Y-4137756D01*
X3468756Y-4142836D01*
X3458342Y-4153250D01*
X3453008Y-4163664D01*
X3447928Y-4179412D01*
X3447928Y-4205320D01*
X3453008Y-4220814D01*
X3458342Y-4231228D01*
X3468756Y-4241642D01*
X3479170Y-4246722D01*
X3499744Y-4246722D01*
X3510158Y-4241642D01*
X3520572Y-4231228D01*
X3525906Y-4220814D01*
X3560196Y-4158584D02*
G01*
X3570610Y-4153250D01*
X3586104Y-4137756D01*
X3586104Y-4246722D01*
X919866Y-5204556D02*
G01*
X919866Y-5313522D01*
X883544Y-5204556D02*
G01*
X956188Y-5204556D01*
X990478Y-5204556D02*
G01*
X990478Y-5313522D01*
X990478Y-5204556D02*
G01*
X1037214Y-5204556D01*
X1052962Y-5209636D01*
X1058042Y-5214970D01*
X1063376Y-5225384D01*
X1063376Y-5240878D01*
X1058042Y-5251292D01*
X1052962Y-5256372D01*
X1037214Y-5261706D01*
X990478Y-5261706D01*
X1097666Y-5350098D02*
G01*
X1191138Y-5350098D01*
X1303406Y-5230464D02*
G01*
X1298072Y-5220050D01*
X1287658Y-5209636D01*
X1277244Y-5204556D01*
X1256670Y-5204556D01*
X1246256Y-5209636D01*
X1235842Y-5220050D01*
X1230508Y-5230464D01*
X1225428Y-5246212D01*
X1225428Y-5272120D01*
X1230508Y-5287614D01*
X1235842Y-5298028D01*
X1246256Y-5308442D01*
X1256670Y-5313522D01*
X1277244Y-5313522D01*
X1287658Y-5308442D01*
X1298072Y-5298028D01*
X1303406Y-5287614D01*
X1342776Y-5230464D02*
G01*
X1342776Y-5225384D01*
X1348110Y-5214970D01*
X1353190Y-5209636D01*
X1363604Y-5204556D01*
X1384432Y-5204556D01*
X1394846Y-5209636D01*
X1399926Y-5214970D01*
X1405260Y-5225384D01*
X1405260Y-5235798D01*
X1399926Y-5246212D01*
X1389512Y-5261706D01*
X1337696Y-5313522D01*
X1410340Y-5313522D01*
X3688466Y-4163156D02*
G01*
X3688466Y-4272122D01*
X3652144Y-4163156D02*
G01*
X3724788Y-4163156D01*
X3759078Y-4163156D02*
G01*
X3759078Y-4272122D01*
X3759078Y-4163156D02*
G01*
X3805814Y-4163156D01*
X3821562Y-4168236D01*
X3826642Y-4173570D01*
X3831976Y-4183984D01*
X3831976Y-4199478D01*
X3826642Y-4209892D01*
X3821562Y-4214972D01*
X3805814Y-4220306D01*
X3759078Y-4220306D01*
X3866266Y-4308698D02*
G01*
X3959738Y-4308698D01*
X4072006Y-4189064D02*
G01*
X4066672Y-4178650D01*
X4056258Y-4168236D01*
X4045844Y-4163156D01*
X4025270Y-4163156D01*
X4014856Y-4168236D01*
X4004442Y-4178650D01*
X3999108Y-4189064D01*
X3994028Y-4204812D01*
X3994028Y-4230720D01*
X3999108Y-4246214D01*
X4004442Y-4256628D01*
X4014856Y-4267042D01*
X4025270Y-4272122D01*
X4045844Y-4272122D01*
X4056258Y-4267042D01*
X4066672Y-4256628D01*
X4072006Y-4246214D01*
X4116710Y-4163156D02*
G01*
X4173860Y-4163156D01*
X4142618Y-4204812D01*
X4158112Y-4204812D01*
X4168526Y-4209892D01*
X4173860Y-4214972D01*
X4178940Y-4230720D01*
X4178940Y-4241134D01*
X4173860Y-4256628D01*
X4163446Y-4267042D01*
X4147698Y-4272122D01*
X4132204Y-4272122D01*
X4116710Y-4267042D01*
X4111376Y-4261962D01*
X4106296Y-4251548D01*
X5910966Y-5204556D02*
G01*
X5910966Y-5313522D01*
X5874644Y-5204556D02*
G01*
X5947288Y-5204556D01*
X5981578Y-5204556D02*
G01*
X5981578Y-5313522D01*
X5981578Y-5204556D02*
G01*
X6028314Y-5204556D01*
X6044062Y-5209636D01*
X6049142Y-5214970D01*
X6054476Y-5225384D01*
X6054476Y-5240878D01*
X6049142Y-5251292D01*
X6044062Y-5256372D01*
X6028314Y-5261706D01*
X5981578Y-5261706D01*
X6088766Y-5350098D02*
G01*
X6182238Y-5350098D01*
X6294506Y-5230464D02*
G01*
X6289172Y-5220050D01*
X6278758Y-5209636D01*
X6268344Y-5204556D01*
X6247770Y-5204556D01*
X6237356Y-5209636D01*
X6226942Y-5220050D01*
X6221608Y-5230464D01*
X6216528Y-5246212D01*
X6216528Y-5272120D01*
X6221608Y-5287614D01*
X6226942Y-5298028D01*
X6237356Y-5308442D01*
X6247770Y-5313522D01*
X6268344Y-5313522D01*
X6278758Y-5308442D01*
X6289172Y-5298028D01*
X6294506Y-5287614D01*
X6380612Y-5204556D02*
G01*
X6328796Y-5277200D01*
X6406774Y-5277200D01*
X6380612Y-5204556D02*
G01*
X6380612Y-5313522D01*
X3702944Y-3474816D02*
G01*
X3744600Y-3583782D01*
X3786002Y-3474816D02*
G01*
X3744600Y-3583782D01*
X3820292Y-3474816D02*
G01*
X3820292Y-3583782D01*
X3820292Y-3474816D02*
G01*
X3856614Y-3474816D01*
X3872362Y-3479896D01*
X3882776Y-3490310D01*
X3887856Y-3500724D01*
X3893190Y-3516472D01*
X3893190Y-3542380D01*
X3887856Y-3557874D01*
X3882776Y-3568288D01*
X3872362Y-3578702D01*
X3856614Y-3583782D01*
X3820292Y-3583782D01*
X3927480Y-3474816D02*
G01*
X3927480Y-3583782D01*
X3927480Y-3474816D02*
G01*
X3963802Y-3474816D01*
X3979296Y-3479896D01*
X3989710Y-3490310D01*
X3995044Y-3500724D01*
X4000124Y-3516472D01*
X4000124Y-3542380D01*
X3995044Y-3557874D01*
X3989710Y-3568288D01*
X3979296Y-3578702D01*
X3963802Y-3583782D01*
X3927480Y-3583782D01*
X4034414Y-3495644D02*
G01*
X4044828Y-3490310D01*
X4060322Y-3474816D01*
X4060322Y-3583782D01*
X1810644Y-4823556D02*
G01*
X1852300Y-4932522D01*
X1893702Y-4823556D02*
G01*
X1852300Y-4932522D01*
X1959234Y-4823556D02*
G01*
X1948820Y-4828636D01*
X1938406Y-4839050D01*
X1933326Y-4849464D01*
X1927992Y-4865212D01*
X1927992Y-4891120D01*
X1933326Y-4906614D01*
X1938406Y-4917028D01*
X1948820Y-4927442D01*
X1959234Y-4932522D01*
X1980062Y-4932522D01*
X1990476Y-4927442D01*
X2000890Y-4917028D01*
X2005970Y-4906614D01*
X2011304Y-4891120D01*
X2011304Y-4865212D01*
X2005970Y-4849464D01*
X2000890Y-4839050D01*
X1990476Y-4828636D01*
X1980062Y-4823556D01*
X1959234Y-4823556D01*
X2045594Y-4823556D02*
G01*
X2045594Y-4901534D01*
X2050674Y-4917028D01*
X2061088Y-4927442D01*
X2076582Y-4932522D01*
X2086996Y-4932522D01*
X2102744Y-4927442D01*
X2112904Y-4917028D01*
X2118238Y-4901534D01*
X2118238Y-4823556D01*
X2188850Y-4823556D02*
G01*
X2188850Y-4932522D01*
X2152528Y-4823556D02*
G01*
X2225172Y-4823556D01*
X4934844Y-3832956D02*
G01*
X4976500Y-3941922D01*
X5017902Y-3832956D02*
G01*
X4976500Y-3941922D01*
X5083434Y-3832956D02*
G01*
X5073020Y-3838036D01*
X5062606Y-3848450D01*
X5057526Y-3858864D01*
X5052192Y-3874612D01*
X5052192Y-3900520D01*
X5057526Y-3916014D01*
X5062606Y-3926428D01*
X5073020Y-3936842D01*
X5083434Y-3941922D01*
X5104262Y-3941922D01*
X5114676Y-3936842D01*
X5125090Y-3926428D01*
X5130170Y-3916014D01*
X5135504Y-3900520D01*
X5135504Y-3874612D01*
X5130170Y-3858864D01*
X5125090Y-3848450D01*
X5114676Y-3838036D01*
X5104262Y-3832956D01*
X5083434Y-3832956D01*
X5169794Y-3832956D02*
G01*
X5169794Y-3910934D01*
X5174874Y-3926428D01*
X5185288Y-3936842D01*
X5200782Y-3941922D01*
X5211196Y-3941922D01*
X5226944Y-3936842D01*
X5237104Y-3926428D01*
X5242438Y-3910934D01*
X5242438Y-3832956D01*
X5313050Y-3832956D02*
G01*
X5313050Y-3941922D01*
X5276728Y-3832956D02*
G01*
X5349372Y-3832956D01*
X5383662Y-3853784D02*
G01*
X5394076Y-3848450D01*
X5409824Y-3832956D01*
X5409824Y-3941922D01*
X3106044Y-4671156D02*
G01*
X3147700Y-4780122D01*
X3189102Y-4671156D02*
G01*
X3147700Y-4780122D01*
X3254634Y-4671156D02*
G01*
X3244220Y-4676236D01*
X3233806Y-4686650D01*
X3228726Y-4697064D01*
X3223392Y-4712812D01*
X3223392Y-4738720D01*
X3228726Y-4754214D01*
X3233806Y-4764628D01*
X3244220Y-4775042D01*
X3254634Y-4780122D01*
X3275462Y-4780122D01*
X3285876Y-4775042D01*
X3296290Y-4764628D01*
X3301370Y-4754214D01*
X3306704Y-4738720D01*
X3306704Y-4712812D01*
X3301370Y-4697064D01*
X3296290Y-4686650D01*
X3285876Y-4676236D01*
X3275462Y-4671156D01*
X3254634Y-4671156D01*
X3340994Y-4671156D02*
G01*
X3340994Y-4749134D01*
X3346074Y-4764628D01*
X3356488Y-4775042D01*
X3371982Y-4780122D01*
X3382396Y-4780122D01*
X3398144Y-4775042D01*
X3408304Y-4764628D01*
X3413638Y-4749134D01*
X3413638Y-4671156D01*
X3484250Y-4671156D02*
G01*
X3484250Y-4780122D01*
X3447928Y-4671156D02*
G01*
X3520572Y-4671156D01*
X3554862Y-4816698D02*
G01*
X3648334Y-4816698D01*
X3724280Y-4671156D02*
G01*
X3682624Y-4780122D01*
X3724280Y-4671156D02*
G01*
X3765936Y-4780122D01*
X3698372Y-4743800D02*
G01*
X3750188Y-4743800D01*
X3800226Y-4671156D02*
G01*
X3800226Y-4780122D01*
X3800226Y-4671156D02*
G01*
X3867790Y-4671156D01*
X3800226Y-4722972D02*
G01*
X3841628Y-4722972D01*
X3800226Y-4780122D02*
G01*
X3867790Y-4780122D01*
X3588644Y-5115656D02*
G01*
X3630300Y-5224622D01*
X3671702Y-5115656D02*
G01*
X3630300Y-5224622D01*
X3737234Y-5115656D02*
G01*
X3726820Y-5120736D01*
X3716406Y-5131150D01*
X3711326Y-5141564D01*
X3705992Y-5157312D01*
X3705992Y-5183220D01*
X3711326Y-5198714D01*
X3716406Y-5209128D01*
X3726820Y-5219542D01*
X3737234Y-5224622D01*
X3758062Y-5224622D01*
X3768476Y-5219542D01*
X3778890Y-5209128D01*
X3783970Y-5198714D01*
X3789304Y-5183220D01*
X3789304Y-5157312D01*
X3783970Y-5141564D01*
X3778890Y-5131150D01*
X3768476Y-5120736D01*
X3758062Y-5115656D01*
X3737234Y-5115656D01*
X3823594Y-5115656D02*
G01*
X3823594Y-5193634D01*
X3828674Y-5209128D01*
X3839088Y-5219542D01*
X3854582Y-5224622D01*
X3864996Y-5224622D01*
X3880744Y-5219542D01*
X3890904Y-5209128D01*
X3896238Y-5193634D01*
X3896238Y-5115656D01*
X3966850Y-5115656D02*
G01*
X3966850Y-5224622D01*
X3930528Y-5115656D02*
G01*
X4003172Y-5115656D01*
X4037462Y-5261198D02*
G01*
X4130934Y-5261198D01*
X4206880Y-5115656D02*
G01*
X4165224Y-5224622D01*
X4206880Y-5115656D02*
G01*
X4248536Y-5224622D01*
X4180972Y-5188300D02*
G01*
X4232788Y-5188300D01*
X4282826Y-5115656D02*
G01*
X4282826Y-5224622D01*
X4282826Y-5115656D02*
G01*
X4350390Y-5115656D01*
X4282826Y-5167472D02*
G01*
X4324228Y-5167472D01*
X4282826Y-5224622D02*
G01*
X4350390Y-5224622D01*
X4384680Y-5136484D02*
G01*
X4395094Y-5131150D01*
X4410588Y-5115656D01*
X4410588Y-5224622D01*
X1709044Y-5189316D02*
G01*
X1750700Y-5298282D01*
X1792102Y-5189316D02*
G01*
X1750700Y-5298282D01*
X1826392Y-5189316D02*
G01*
X1826392Y-5298282D01*
X1826392Y-5189316D02*
G01*
X1873128Y-5189316D01*
X1888876Y-5194396D01*
X1893956Y-5199730D01*
X1899290Y-5210144D01*
X1899290Y-5220558D01*
X1893956Y-5230972D01*
X1888876Y-5236052D01*
X1873128Y-5241132D01*
X1826392Y-5241132D01*
X1862714Y-5241132D02*
G01*
X1899290Y-5298282D01*
X1933580Y-5189316D02*
G01*
X1933580Y-5298282D01*
X1933580Y-5189316D02*
G01*
X2001144Y-5189316D01*
X1933580Y-5241132D02*
G01*
X1974982Y-5241132D01*
X1933580Y-5298282D02*
G01*
X2001144Y-5298282D01*
X2035434Y-5189316D02*
G01*
X2035434Y-5298282D01*
X2035434Y-5189316D02*
G01*
X2102744Y-5189316D01*
X2035434Y-5241132D02*
G01*
X2076836Y-5241132D01*
X4591944Y-5395056D02*
G01*
X4633600Y-5504022D01*
X4675002Y-5395056D02*
G01*
X4633600Y-5504022D01*
X4709292Y-5395056D02*
G01*
X4709292Y-5504022D01*
X4709292Y-5395056D02*
G01*
X4756028Y-5395056D01*
X4771776Y-5400136D01*
X4776856Y-5405470D01*
X4782190Y-5415884D01*
X4782190Y-5426298D01*
X4776856Y-5436712D01*
X4771776Y-5441792D01*
X4756028Y-5446872D01*
X4709292Y-5446872D01*
X4745614Y-5446872D02*
G01*
X4782190Y-5504022D01*
X4816480Y-5395056D02*
G01*
X4816480Y-5504022D01*
X4816480Y-5395056D02*
G01*
X4884044Y-5395056D01*
X4816480Y-5446872D02*
G01*
X4857882Y-5446872D01*
X4816480Y-5504022D02*
G01*
X4884044Y-5504022D01*
X4918334Y-5395056D02*
G01*
X4918334Y-5504022D01*
X4918334Y-5395056D02*
G01*
X4985644Y-5395056D01*
X4918334Y-5446872D02*
G01*
X4959736Y-5446872D01*
X5019934Y-5415884D02*
G01*
X5030348Y-5410550D01*
X5046096Y-5395056D01*
X5046096Y-5504022D01*
X1137544Y-4201256D02*
G01*
X1137544Y-4310222D01*
X1137544Y-4201256D02*
G01*
X1184280Y-4201256D01*
X1199774Y-4206336D01*
X1205108Y-4211670D01*
X1210188Y-4222084D01*
X1210188Y-4232498D01*
X1205108Y-4242912D01*
X1199774Y-4247992D01*
X1184280Y-4253072D01*
X1137544Y-4253072D01*
X1173866Y-4253072D02*
G01*
X1210188Y-4310222D01*
X1244478Y-4222084D02*
G01*
X1254892Y-4216750D01*
X1270640Y-4201256D01*
X1270640Y-4310222D01*
X1124844Y-4455256D02*
G01*
X1124844Y-4564222D01*
X1124844Y-4455256D02*
G01*
X1171580Y-4455256D01*
X1187074Y-4460336D01*
X1192408Y-4465670D01*
X1197488Y-4476084D01*
X1197488Y-4486498D01*
X1192408Y-4496912D01*
X1187074Y-4501992D01*
X1171580Y-4507072D01*
X1124844Y-4507072D01*
X1161166Y-4507072D02*
G01*
X1197488Y-4564222D01*
X1237112Y-4481164D02*
G01*
X1237112Y-4476084D01*
X1242192Y-4465670D01*
X1247526Y-4460336D01*
X1257940Y-4455256D01*
X1278514Y-4455256D01*
X1288928Y-4460336D01*
X1294262Y-4465670D01*
X1299342Y-4476084D01*
X1299342Y-4486498D01*
X1294262Y-4496912D01*
X1283848Y-4512406D01*
X1231778Y-4564222D01*
X1304676Y-4564222D01*
X2407544Y-3490056D02*
G01*
X2407544Y-3599022D01*
X2407544Y-3490056D02*
G01*
X2454280Y-3490056D01*
X2469774Y-3495136D01*
X2475108Y-3500470D01*
X2480188Y-3510884D01*
X2480188Y-3521298D01*
X2475108Y-3531712D01*
X2469774Y-3536792D01*
X2454280Y-3541872D01*
X2407544Y-3541872D01*
X2443866Y-3541872D02*
G01*
X2480188Y-3599022D01*
X2524892Y-3490056D02*
G01*
X2582042Y-3490056D01*
X2551054Y-3531712D01*
X2566548Y-3531712D01*
X2576962Y-3536792D01*
X2582042Y-3541872D01*
X2587376Y-3557620D01*
X2587376Y-3568034D01*
X2582042Y-3583528D01*
X2571628Y-3593942D01*
X2556134Y-3599022D01*
X2540640Y-3599022D01*
X2524892Y-3593942D01*
X2519812Y-3588862D01*
X2514478Y-3578448D01*
X2775844Y-3502756D02*
G01*
X2775844Y-3611722D01*
X2775844Y-3502756D02*
G01*
X2822580Y-3502756D01*
X2838074Y-3507836D01*
X2843408Y-3513170D01*
X2848488Y-3523584D01*
X2848488Y-3533998D01*
X2843408Y-3544412D01*
X2838074Y-3549492D01*
X2822580Y-3554572D01*
X2775844Y-3554572D01*
X2812166Y-3554572D02*
G01*
X2848488Y-3611722D01*
X2934848Y-3502756D02*
G01*
X2882778Y-3575400D01*
X2960756Y-3575400D01*
X2934848Y-3502756D02*
G01*
X2934848Y-3611722D01*
X2674244Y-4963256D02*
G01*
X2674244Y-5072222D01*
X2674244Y-4963256D02*
G01*
X2720980Y-4963256D01*
X2736474Y-4968336D01*
X2741808Y-4973670D01*
X2746888Y-4984084D01*
X2746888Y-4994498D01*
X2741808Y-5004912D01*
X2736474Y-5009992D01*
X2720980Y-5015072D01*
X2674244Y-5015072D01*
X2710566Y-5015072D02*
G01*
X2746888Y-5072222D01*
X2843662Y-4963256D02*
G01*
X2791592Y-4963256D01*
X2786512Y-5009992D01*
X2791592Y-5004912D01*
X2807340Y-4999578D01*
X2822834Y-4999578D01*
X2838328Y-5004912D01*
X2848742Y-5015072D01*
X2854076Y-5030820D01*
X2854076Y-5041234D01*
X2848742Y-5056728D01*
X2838328Y-5067142D01*
X2822834Y-5072222D01*
X2807340Y-5072222D01*
X2791592Y-5067142D01*
X2786512Y-5062062D01*
X2781178Y-5051648D01*
X4795144Y-5026756D02*
G01*
X4795144Y-5135722D01*
X4795144Y-5026756D02*
G01*
X4841880Y-5026756D01*
X4857374Y-5031836D01*
X4862708Y-5037170D01*
X4867788Y-5047584D01*
X4867788Y-5057998D01*
X4862708Y-5068412D01*
X4857374Y-5073492D01*
X4841880Y-5078572D01*
X4795144Y-5078572D01*
X4831466Y-5078572D02*
G01*
X4867788Y-5135722D01*
X4928240Y-5026756D02*
G01*
X4912492Y-5031836D01*
X4907412Y-5042250D01*
X4907412Y-5052664D01*
X4912492Y-5063078D01*
X4922906Y-5068412D01*
X4943734Y-5073492D01*
X4959228Y-5078572D01*
X4969642Y-5088986D01*
X4974976Y-5099400D01*
X4974976Y-5115148D01*
X4969642Y-5125562D01*
X4964562Y-5130642D01*
X4948814Y-5135722D01*
X4928240Y-5135722D01*
X4912492Y-5130642D01*
X4907412Y-5125562D01*
X4902078Y-5115148D01*
X4902078Y-5099400D01*
X4907412Y-5088986D01*
X4917826Y-5078572D01*
X4933320Y-5073492D01*
X4954148Y-5068412D01*
X4964562Y-5063078D01*
X4969642Y-5052664D01*
X4969642Y-5042250D01*
X4964562Y-5031836D01*
X4948814Y-5026756D01*
X4928240Y-5026756D01*
X6019800Y-4405884D02*
G01*
X6019800Y-4514850D01*
X6019800Y-4405884D02*
G01*
X6066536Y-4405884D01*
X6082029Y-4410963D01*
X6087363Y-4416297D01*
X6092443Y-4426712D01*
X6092443Y-4437126D01*
X6087363Y-4447539D01*
X6082029Y-4452620D01*
X6066536Y-4457700D01*
X6019800Y-4457700D01*
X6056122Y-4457700D02*
G01*
X6092443Y-4514850D01*
X6194297Y-4442205D02*
G01*
X6189218Y-4457700D01*
X6178804Y-4468113D01*
X6163309Y-4473447D01*
X6157975Y-4473447D01*
X6142481Y-4468113D01*
X6132068Y-4457700D01*
X6126734Y-4442205D01*
X6126734Y-4437126D01*
X6132068Y-4421378D01*
X6142481Y-4410963D01*
X6157975Y-4405884D01*
X6163309Y-4405884D01*
X6178804Y-4410963D01*
X6189218Y-4421378D01*
X6194297Y-4442205D01*
X6194297Y-4468113D01*
X6189218Y-4494276D01*
X6178804Y-4509770D01*
X6163309Y-4514850D01*
X6152895Y-4514850D01*
X6137147Y-4509770D01*
X6132068Y-4499355D01*
X5988944Y-4150456D02*
G01*
X5988944Y-4259422D01*
X5988944Y-4150456D02*
G01*
X6035680Y-4150456D01*
X6051174Y-4155536D01*
X6056508Y-4160870D01*
X6061588Y-4171284D01*
X6061588Y-4181698D01*
X6056508Y-4192112D01*
X6051174Y-4197192D01*
X6035680Y-4202272D01*
X5988944Y-4202272D01*
X6025266Y-4202272D02*
G01*
X6061588Y-4259422D01*
X6095878Y-4171284D02*
G01*
X6106292Y-4165950D01*
X6122040Y-4150456D01*
X6122040Y-4259422D01*
X6187318Y-4150456D02*
G01*
X6171824Y-4155536D01*
X6161410Y-4171284D01*
X6156330Y-4197192D01*
X6156330Y-4212686D01*
X6161410Y-4238848D01*
X6171824Y-4254342D01*
X6187318Y-4259422D01*
X6197732Y-4259422D01*
X6213480Y-4254342D01*
X6223894Y-4238848D01*
X6228974Y-4212686D01*
X6228974Y-4197192D01*
X6223894Y-4171284D01*
X6213480Y-4155536D01*
X6197732Y-4150456D01*
X6187318Y-4150456D01*
X4617344Y-3490056D02*
G01*
X4617344Y-3599022D01*
X4617344Y-3490056D02*
G01*
X4664080Y-3490056D01*
X4679574Y-3495136D01*
X4684908Y-3500470D01*
X4689988Y-3510884D01*
X4689988Y-3521298D01*
X4684908Y-3531712D01*
X4679574Y-3536792D01*
X4664080Y-3541872D01*
X4617344Y-3541872D01*
X4653666Y-3541872D02*
G01*
X4689988Y-3599022D01*
X4724278Y-3510884D02*
G01*
X4734692Y-3505550D01*
X4750440Y-3490056D01*
X4750440Y-3599022D01*
X4784730Y-3510884D02*
G01*
X4795144Y-3505550D01*
X4810638Y-3490056D01*
X4810638Y-3599022D01*
X4223644Y-3490056D02*
G01*
X4223644Y-3599022D01*
X4223644Y-3490056D02*
G01*
X4270380Y-3490056D01*
X4285874Y-3495136D01*
X4291208Y-3500470D01*
X4296288Y-3510884D01*
X4296288Y-3521298D01*
X4291208Y-3531712D01*
X4285874Y-3536792D01*
X4270380Y-3541872D01*
X4223644Y-3541872D01*
X4259966Y-3541872D02*
G01*
X4296288Y-3599022D01*
X4330578Y-3510884D02*
G01*
X4340992Y-3505550D01*
X4356740Y-3490056D01*
X4356740Y-3599022D01*
X4396110Y-3515964D02*
G01*
X4396110Y-3510884D01*
X4401444Y-3500470D01*
X4406524Y-3495136D01*
X4416938Y-3490056D01*
X4437766Y-3490056D01*
X4448180Y-3495136D01*
X4453260Y-3500470D01*
X4458594Y-3510884D01*
X4458594Y-3521298D01*
X4453260Y-3531712D01*
X4442846Y-3547206D01*
X4391030Y-3599022D01*
X4463674Y-3599022D01*
X2483744Y-4569556D02*
G01*
X2483744Y-4678522D01*
X2483744Y-4569556D02*
G01*
X2530480Y-4569556D01*
X2545974Y-4574636D01*
X2551308Y-4579970D01*
X2556388Y-4590384D01*
X2556388Y-4600798D01*
X2551308Y-4611212D01*
X2545974Y-4616292D01*
X2530480Y-4621372D01*
X2483744Y-4621372D01*
X2520066Y-4621372D02*
G01*
X2556388Y-4678522D01*
X2653162Y-4585050D02*
G01*
X2647828Y-4574636D01*
X2632334Y-4569556D01*
X2621920Y-4569556D01*
X2606426Y-4574636D01*
X2596012Y-4590384D01*
X2590678Y-4616292D01*
X2590678Y-4642200D01*
X2596012Y-4663028D01*
X2606426Y-4673442D01*
X2621920Y-4678522D01*
X2627254Y-4678522D01*
X2642748Y-4673442D01*
X2653162Y-4663028D01*
X2658242Y-4647534D01*
X2658242Y-4642200D01*
X2653162Y-4626706D01*
X2642748Y-4616292D01*
X2627254Y-4611212D01*
X2621920Y-4611212D01*
X2606426Y-4616292D01*
X2596012Y-4626706D01*
X2590678Y-4642200D01*
X4325244Y-4683856D02*
G01*
X4325244Y-4792822D01*
X4325244Y-4683856D02*
G01*
X4371980Y-4683856D01*
X4387474Y-4688936D01*
X4392808Y-4694270D01*
X4397888Y-4704684D01*
X4397888Y-4715098D01*
X4392808Y-4725512D01*
X4387474Y-4730592D01*
X4371980Y-4735672D01*
X4325244Y-4735672D01*
X4361566Y-4735672D02*
G01*
X4397888Y-4792822D01*
X4505076Y-4683856D02*
G01*
X4453006Y-4792822D01*
X4432178Y-4683856D02*
G01*
X4505076Y-4683856D01*
X1790687Y-4189984D02*
G01*
X1790687Y-4267962D01*
X1795767Y-4283455D01*
X1806181Y-4293870D01*
X1821929Y-4298950D01*
X1832343Y-4298950D01*
X1847837Y-4293870D01*
X1858251Y-4283455D01*
X1863331Y-4267962D01*
X1863331Y-4189984D01*
X1897621Y-4210812D02*
G01*
X1908035Y-4205478D01*
X1923783Y-4189984D01*
X1923783Y-4298950D01*
X5626112Y-4126484D02*
G01*
X5626112Y-4204462D01*
X5631192Y-4219955D01*
X5641606Y-4230370D01*
X5657354Y-4235450D01*
X5667768Y-4235450D01*
X5683262Y-4230370D01*
X5693676Y-4219955D01*
X5698756Y-4204462D01*
X5698756Y-4126484D01*
X5795530Y-4126484D02*
G01*
X5743460Y-4126484D01*
X5738380Y-4173220D01*
X5743460Y-4168139D01*
X5759208Y-4162805D01*
X5774702Y-4162805D01*
X5790196Y-4168139D01*
X5800610Y-4178300D01*
X5805944Y-4194047D01*
X5805944Y-4204462D01*
X5800610Y-4219955D01*
X5790196Y-4230370D01*
X5774702Y-4235450D01*
X5759208Y-4235450D01*
X5743460Y-4230370D01*
X5738380Y-4225289D01*
X5733046Y-4214876D01*
X1772544Y-111856D02*
G01*
X1772544Y-189834D01*
X1777624Y-205328D01*
X1788038Y-215742D01*
X1803786Y-220822D01*
X1814200Y-220822D01*
X1829694Y-215742D01*
X1840108Y-205328D01*
X1845188Y-189834D01*
X1845188Y-111856D01*
X1884812Y-137764D02*
G01*
X1884812Y-132684D01*
X1889892Y-122270D01*
X1895226Y-116936D01*
X1905640Y-111856D01*
X1926214Y-111856D01*
X1936628Y-116936D01*
X1941962Y-122270D01*
X1947042Y-132684D01*
X1947042Y-143098D01*
X1941962Y-153512D01*
X1931548Y-169006D01*
X1879478Y-220822D01*
X1952376Y-220822D01*
D11*
X1655958Y-2930494D02*
G01*
X1582044Y-3124296D01*
X1655958Y-2930494D02*
G01*
X1729872Y-3124296D01*
X1609730Y-3059780D02*
G01*
X1702186Y-3059780D01*
X1790832Y-2930494D02*
G01*
X1790832Y-3124296D01*
X1790832Y-2930494D02*
G01*
X1910974Y-2930494D01*
X1790832Y-3022696D02*
G01*
X1864746Y-3022696D01*
X1790832Y-3124296D02*
G01*
X1910974Y-3124296D01*
X1607444Y-593694D02*
G01*
X1653672Y-787496D01*
X1699900Y-593694D02*
G01*
X1653672Y-787496D01*
X1699900Y-593694D02*
G01*
X1745874Y-787496D01*
X1792102Y-593694D02*
G01*
X1745874Y-787496D01*
X1853062Y-593694D02*
G01*
X1853062Y-787496D01*
X1853062Y-593694D02*
G01*
X1973204Y-593694D01*
X1853062Y-685896D02*
G01*
X1926976Y-685896D01*
X1853062Y-787496D02*
G01*
X1973204Y-787496D01*
X2534544Y-911194D02*
G01*
X2534544Y-1104996D01*
X2534544Y-911194D02*
G01*
X2617602Y-911194D01*
X2645288Y-920338D01*
X2654686Y-929482D01*
X2663830Y-948024D01*
X2663830Y-966566D01*
X2654686Y-985108D01*
X2645288Y-994252D01*
X2617602Y-1003396D01*
X2534544Y-1003396D01*
X2599314Y-1003396D02*
G01*
X2663830Y-1104996D01*
X2724790Y-911194D02*
G01*
X2724790Y-1104996D01*
X2724790Y-911194D02*
G01*
X2844932Y-911194D01*
X2724790Y-1003396D02*
G01*
X2798704Y-1003396D01*
X2724790Y-1104996D02*
G01*
X2844932Y-1104996D01*
X1009274Y-906622D02*
G01*
X1000130Y-888080D01*
X981588Y-869538D01*
X963300Y-860394D01*
X926216Y-860394D01*
X907674Y-869538D01*
X889386Y-888080D01*
X879988Y-906622D01*
X870844Y-934308D01*
X870844Y-980282D01*
X879988Y-1008222D01*
X889386Y-1026510D01*
X907674Y-1045052D01*
X926216Y-1054196D01*
X963300Y-1054196D01*
X981588Y-1045052D01*
X1000130Y-1026510D01*
X1009274Y-1008222D01*
X1070234Y-860394D02*
G01*
X1070234Y-1054196D01*
X1070234Y-860394D02*
G01*
X1190376Y-860394D01*
X1070234Y-952596D02*
G01*
X1144148Y-952596D01*
X1070234Y-1054196D02*
G01*
X1190376Y-1054196D01*
D10*
X5036444Y-111856D02*
G01*
X5036444Y-189834D01*
X5041524Y-205328D01*
X5051938Y-215742D01*
X5067686Y-220822D01*
X5078100Y-220822D01*
X5093594Y-215742D01*
X5104008Y-205328D01*
X5109088Y-189834D01*
X5109088Y-111856D01*
X5205862Y-127350D02*
G01*
X5200528Y-116936D01*
X5185034Y-111856D01*
X5174620Y-111856D01*
X5159126Y-116936D01*
X5148712Y-132684D01*
X5143378Y-158592D01*
X5143378Y-184500D01*
X5148712Y-205328D01*
X5159126Y-215742D01*
X5174620Y-220822D01*
X5179954Y-220822D01*
X5195448Y-215742D01*
X5205862Y-205328D01*
X5210942Y-189834D01*
X5210942Y-184500D01*
X5205862Y-169006D01*
X5195448Y-158592D01*
X5179954Y-153512D01*
X5174620Y-153512D01*
X5159126Y-158592D01*
X5148712Y-169006D01*
X5143378Y-184500D01*
D11*
X4919858Y-2930494D02*
G01*
X4845944Y-3124296D01*
X4919858Y-2930494D02*
G01*
X4993772Y-3124296D01*
X4873630Y-3059780D02*
G01*
X4966086Y-3059780D01*
X5054732Y-2930494D02*
G01*
X5054732Y-3124296D01*
X5054732Y-2930494D02*
G01*
X5174874Y-2930494D01*
X5054732Y-3022696D02*
G01*
X5128646Y-3022696D01*
X5054732Y-3124296D02*
G01*
X5174874Y-3124296D01*
X4871344Y-593694D02*
G01*
X4917572Y-787496D01*
X4963800Y-593694D02*
G01*
X4917572Y-787496D01*
X4963800Y-593694D02*
G01*
X5009774Y-787496D01*
X5056002Y-593694D02*
G01*
X5009774Y-787496D01*
X5116962Y-593694D02*
G01*
X5116962Y-787496D01*
X5116962Y-593694D02*
G01*
X5237104Y-593694D01*
X5116962Y-685896D02*
G01*
X5190876Y-685896D01*
X5116962Y-787496D02*
G01*
X5237104Y-787496D01*
X5798444Y-911194D02*
G01*
X5798444Y-1104996D01*
X5798444Y-911194D02*
G01*
X5881502Y-911194D01*
X5909188Y-920338D01*
X5918586Y-929482D01*
X5927730Y-948024D01*
X5927730Y-966566D01*
X5918586Y-985108D01*
X5909188Y-994252D01*
X5881502Y-1003396D01*
X5798444Y-1003396D01*
X5863214Y-1003396D02*
G01*
X5927730Y-1104996D01*
X5988690Y-911194D02*
G01*
X5988690Y-1104996D01*
X5988690Y-911194D02*
G01*
X6108832Y-911194D01*
X5988690Y-1003396D02*
G01*
X6062604Y-1003396D01*
X5988690Y-1104996D02*
G01*
X6108832Y-1104996D01*
X4273174Y-906622D02*
G01*
X4264030Y-888080D01*
X4245488Y-869538D01*
X4227200Y-860394D01*
X4190116Y-860394D01*
X4171574Y-869538D01*
X4153286Y-888080D01*
X4143888Y-906622D01*
X4134744Y-934308D01*
X4134744Y-980282D01*
X4143888Y-1008222D01*
X4153286Y-1026510D01*
X4171574Y-1045052D01*
X4190116Y-1054196D01*
X4227200Y-1054196D01*
X4245488Y-1045052D01*
X4264030Y-1026510D01*
X4273174Y-1008222D01*
X4334134Y-860394D02*
G01*
X4334134Y-1054196D01*
X4334134Y-860394D02*
G01*
X4454276Y-860394D01*
X4334134Y-952596D02*
G01*
X4408048Y-952596D01*
X4334134Y-1054196D02*
G01*
X4454276Y-1054196D01*
D10*
X2845655Y-4220281D02*
G01*
X2845655Y-4298259D01*
X2850735Y-4313753D01*
X2861149Y-4324167D01*
X2876897Y-4329247D01*
X2887311Y-4329247D01*
X2902805Y-4324167D01*
X2913219Y-4313753D01*
X2918299Y-4298259D01*
X2918299Y-4220281D01*
X2963003Y-4220281D02*
G01*
X3020153Y-4220281D01*
X2989165Y-4261937D01*
X3004659Y-4261937D01*
X3015073Y-4267017D01*
X3020153Y-4272097D01*
X3025487Y-4287845D01*
X3025487Y-4298259D01*
X3020153Y-4313753D01*
X3009739Y-4324167D01*
X2994245Y-4329247D01*
X2978751Y-4329247D01*
X2963003Y-4324167D01*
X2957923Y-4319087D01*
X2952589Y-4308673D01*
X4814155Y-4474281D02*
G01*
X4814155Y-4552259D01*
X4819235Y-4567753D01*
X4829649Y-4578167D01*
X4845397Y-4583247D01*
X4855811Y-4583247D01*
X4871305Y-4578167D01*
X4881719Y-4567753D01*
X4886799Y-4552259D01*
X4886799Y-4474281D01*
X4993987Y-4474281D02*
G01*
X4941917Y-4583247D01*
X4921089Y-4474281D02*
G01*
X4993987Y-4474281D01*
X2217044Y-5204556D02*
G01*
X2217044Y-5282534D01*
X2222124Y-5298028D01*
X2232538Y-5308442D01*
X2248286Y-5313522D01*
X2258700Y-5313522D01*
X2274194Y-5308442D01*
X2284608Y-5298028D01*
X2289688Y-5282534D01*
X2289688Y-5204556D01*
X2376048Y-5204556D02*
G01*
X2323978Y-5277200D01*
X2401956Y-5277200D01*
X2376048Y-5204556D02*
G01*
X2376048Y-5313522D01*
X5379344Y-4721956D02*
G01*
X5379344Y-4799934D01*
X5384424Y-4815428D01*
X5394838Y-4825842D01*
X5410586Y-4830922D01*
X5421000Y-4830922D01*
X5436494Y-4825842D01*
X5446908Y-4815428D01*
X5451988Y-4799934D01*
X5451988Y-4721956D01*
X5512440Y-4721956D02*
G01*
X5496692Y-4727036D01*
X5491612Y-4737450D01*
X5491612Y-4747864D01*
X5496692Y-4758278D01*
X5507106Y-4763612D01*
X5527934Y-4768692D01*
X5543428Y-4773772D01*
X5553842Y-4784186D01*
X5559176Y-4794600D01*
X5559176Y-4810348D01*
X5553842Y-4820762D01*
X5548762Y-4825842D01*
X5533014Y-4830922D01*
X5512440Y-4830922D01*
X5496692Y-4825842D01*
X5491612Y-4820762D01*
X5486278Y-4810348D01*
X5486278Y-4794600D01*
X5491612Y-4784186D01*
X5502026Y-4773772D01*
X5517520Y-4768692D01*
X5538348Y-4763612D01*
X5548762Y-4758278D01*
X5553842Y-4747864D01*
X5553842Y-4737450D01*
X5548762Y-4727036D01*
X5533014Y-4721956D01*
X5512440Y-4721956D01*
X2713360Y-4182714D02*
G01*
X2708280Y-4172300D01*
X2697866Y-4161886D01*
X2687452Y-4156552D01*
X2671704Y-4151472D01*
X2645796Y-4151472D01*
X2630302Y-4156552D01*
X2619888Y-4161886D01*
X2609474Y-4172300D01*
X2604394Y-4182714D01*
X2604394Y-4203542D01*
X2609474Y-4213702D01*
X2619888Y-4224116D01*
X2630302Y-4229450D01*
X2645796Y-4234530D01*
X2671704Y-4234530D01*
X2687452Y-4229450D01*
X2697866Y-4224116D01*
X2708280Y-4213702D01*
X2713360Y-4203542D01*
X2713360Y-4182714D01*
X2624968Y-4198208D02*
G01*
X2593980Y-4229450D01*
X2692532Y-4268820D02*
G01*
X2697866Y-4279234D01*
X2713360Y-4294982D01*
X2604394Y-4294982D01*
X2845186Y-3794856D02*
G01*
X2834772Y-3799936D01*
X2824358Y-3810350D01*
X2819024Y-3820764D01*
X2813944Y-3836512D01*
X2813944Y-3862420D01*
X2819024Y-3877914D01*
X2824358Y-3888328D01*
X2834772Y-3898742D01*
X2845186Y-3903822D01*
X2866014Y-3903822D01*
X2876174Y-3898742D01*
X2886588Y-3888328D01*
X2891922Y-3877914D01*
X2897002Y-3862420D01*
X2897002Y-3836512D01*
X2891922Y-3820764D01*
X2886588Y-3810350D01*
X2876174Y-3799936D01*
X2866014Y-3794856D01*
X2845186Y-3794856D01*
X2860680Y-3883248D02*
G01*
X2891922Y-3914236D01*
X2936626Y-3820764D02*
G01*
X2936626Y-3815684D01*
X2941706Y-3805270D01*
X2947040Y-3799936D01*
X2957454Y-3794856D01*
X2978028Y-3794856D01*
X2988442Y-3799936D01*
X2993776Y-3805270D01*
X2998856Y-3815684D01*
X2998856Y-3826098D01*
X2993776Y-3836512D01*
X2983362Y-3852006D01*
X2931292Y-3903822D01*
X3004190Y-3903822D01*
X4724786Y-3756756D02*
G01*
X4714372Y-3761836D01*
X4703958Y-3772250D01*
X4698624Y-3782664D01*
X4693544Y-3798412D01*
X4693544Y-3824320D01*
X4698624Y-3839814D01*
X4703958Y-3850228D01*
X4714372Y-3860642D01*
X4724786Y-3865722D01*
X4745614Y-3865722D01*
X4755774Y-3860642D01*
X4766188Y-3850228D01*
X4771522Y-3839814D01*
X4776602Y-3824320D01*
X4776602Y-3798412D01*
X4771522Y-3782664D01*
X4766188Y-3772250D01*
X4755774Y-3761836D01*
X4745614Y-3756756D01*
X4724786Y-3756756D01*
X4740280Y-3845148D02*
G01*
X4771522Y-3876136D01*
X4821306Y-3756756D02*
G01*
X4878456Y-3756756D01*
X4847214Y-3798412D01*
X4862962Y-3798412D01*
X4873376Y-3803492D01*
X4878456Y-3808572D01*
X4883790Y-3824320D01*
X4883790Y-3834734D01*
X4878456Y-3850228D01*
X4868042Y-3860642D01*
X4852548Y-3865722D01*
X4837054Y-3865722D01*
X4821306Y-3860642D01*
X4816226Y-3855562D01*
X4810892Y-3845148D01*
X4267586Y-3769456D02*
G01*
X4257172Y-3774536D01*
X4246758Y-3784950D01*
X4241424Y-3795364D01*
X4236344Y-3811112D01*
X4236344Y-3837020D01*
X4241424Y-3852514D01*
X4246758Y-3862928D01*
X4257172Y-3873342D01*
X4267586Y-3878422D01*
X4288414Y-3878422D01*
X4298574Y-3873342D01*
X4308988Y-3862928D01*
X4314322Y-3852514D01*
X4319402Y-3837020D01*
X4319402Y-3811112D01*
X4314322Y-3795364D01*
X4308988Y-3784950D01*
X4298574Y-3774536D01*
X4288414Y-3769456D01*
X4267586Y-3769456D01*
X4283080Y-3857848D02*
G01*
X4314322Y-3888836D01*
X4405762Y-3769456D02*
G01*
X4353692Y-3842100D01*
X4431670Y-3842100D01*
X4405762Y-3769456D02*
G01*
X4405762Y-3878422D01*
X1620174Y-5003312D02*
G01*
X1541165Y-5003312D01*
X1541165Y-5103032D02*
G01*
X1620174Y-5103032D01*
X1635414Y-5087792D02*
G01*
X1635414Y-5018552D01*
X1416913Y-5003312D02*
G01*
X1495922Y-5003312D01*
X1495922Y-5103032D02*
G01*
X1416913Y-5103032D01*
X1401673Y-5087792D02*
G01*
X1401673Y-5018552D01*
X5836574Y-4965212D02*
G01*
X5757565Y-4965212D01*
X5757565Y-5064932D02*
G01*
X5836574Y-5064932D01*
X5851814Y-5049692D02*
G01*
X5851814Y-4980452D01*
X5633313Y-4965212D02*
G01*
X5712322Y-4965212D01*
X5712322Y-5064932D02*
G01*
X5633313Y-5064932D01*
X5618073Y-5049692D02*
G01*
X5618073Y-4980452D01*
D12*
X2444945Y-5851395D02*
G01*
X2444945Y-5931397D01*
X2333970Y-5820410D02*
G01*
X2413967Y-5820410D01*
X2333970Y-5962375D02*
G01*
X2413967Y-5962375D01*
X2276381Y-5819828D02*
G01*
X2196381Y-5819828D01*
X2165398Y-5850811D02*
G01*
X2165398Y-5930808D01*
X2276381Y-5961788D02*
G01*
X2196381Y-5961788D01*
X2038545Y-5851395D02*
G01*
X2038545Y-5931397D01*
X1927570Y-5820410D02*
G01*
X2007567Y-5820410D01*
X1927570Y-5962375D02*
G01*
X2007567Y-5962375D01*
X1869981Y-5819828D02*
G01*
X1789981Y-5819828D01*
X1758998Y-5850811D02*
G01*
X1758998Y-5930808D01*
X1869981Y-5961788D02*
G01*
X1789981Y-5961788D01*
X5759645Y-5508495D02*
G01*
X5759645Y-5588497D01*
X5648670Y-5477510D02*
G01*
X5728667Y-5477510D01*
X5648670Y-5619475D02*
G01*
X5728667Y-5619475D01*
X5591081Y-5476928D02*
G01*
X5511081Y-5476928D01*
X5480098Y-5507911D02*
G01*
X5480098Y-5587908D01*
X5591081Y-5618888D02*
G01*
X5511081Y-5618888D01*
X5391345Y-5495795D02*
G01*
X5391345Y-5575797D01*
X5280370Y-5464810D02*
G01*
X5360367Y-5464810D01*
X5280370Y-5606775D02*
G01*
X5360367Y-5606775D01*
X5222781Y-5464228D02*
G01*
X5142781Y-5464228D01*
X5111798Y-5495211D02*
G01*
X5111798Y-5575208D01*
X5222781Y-5606188D02*
G01*
X5142781Y-5606188D01*
X1721744Y-3922872D02*
G01*
X1721744Y-4176872D01*
X1467744Y-4176872D01*
X1467744Y-3922872D01*
X1721744Y-3922872D01*
X5785744Y-3745072D02*
G01*
X5785744Y-3999072D01*
X5531744Y-3999072D01*
X5531744Y-3745072D01*
X5785744Y-3745072D01*
X1239144Y-3872072D02*
G01*
X1239144Y-4126072D01*
X985144Y-4126072D01*
X985144Y-3872072D01*
X1239144Y-3872072D01*
X6281044Y-3833972D02*
G01*
X6281044Y-4087972D01*
X6027044Y-4087972D01*
X6027044Y-3833972D01*
X6281044Y-3833972D01*
X1251844Y-4888072D02*
G01*
X1251844Y-5142072D01*
X997844Y-5142072D01*
X997844Y-4888072D01*
X1251844Y-4888072D01*
X6230244Y-4837272D02*
G01*
X6230244Y-5091272D01*
X5976244Y-5091272D01*
X5976244Y-4837272D01*
X6230244Y-4837272D01*
X3474344Y-4316572D02*
G01*
X3474344Y-4570572D01*
X3220344Y-4570572D01*
X3220344Y-4316572D01*
X3474344Y-4316572D01*
X1251844Y-5370672D02*
G01*
X1251844Y-5624672D01*
X997844Y-5624672D01*
X997844Y-5370672D01*
X1251844Y-5370672D01*
X4007744Y-4303872D02*
G01*
X4007744Y-4557872D01*
X3753744Y-4557872D01*
X3753744Y-4303872D01*
X4007744Y-4303872D01*
X6230244Y-5345272D02*
G01*
X6230244Y-5599272D01*
X5976244Y-5599272D01*
X5976244Y-5345272D01*
X6230244Y-5345272D01*
X3829944Y-3605372D02*
G01*
X3829944Y-3859372D01*
X3575944Y-3859372D01*
X3575944Y-3605372D01*
X3829944Y-3605372D01*
X2166244Y-4938872D02*
G01*
X2166244Y-5192872D01*
X1912244Y-5192872D01*
X1912244Y-4938872D01*
X2166244Y-4938872D01*
X5290444Y-3973672D02*
G01*
X5290444Y-4227672D01*
X5036444Y-4227672D01*
X5036444Y-3973672D01*
X5290444Y-3973672D01*
X3448944Y-4849972D02*
G01*
X3448944Y-5103972D01*
X3194944Y-5103972D01*
X3194944Y-4849972D01*
X3448944Y-4849972D01*
X4007744Y-4799172D02*
G01*
X4007744Y-5053172D01*
X3753744Y-5053172D01*
X3753744Y-4799172D01*
X4007744Y-4799172D01*
X1836044Y-5319872D02*
G01*
X1836044Y-5573872D01*
X1582044Y-5573872D01*
X1582044Y-5319872D01*
X1836044Y-5319872D01*
X4922144Y-5535772D02*
G01*
X4922144Y-5789772D01*
X4668144Y-5789772D01*
X4668144Y-5535772D01*
X4922144Y-5535772D01*
D10*
X1180165Y-4484232D02*
G01*
X1276052Y-4484232D01*
X1276052Y-4352112D01*
X1180165Y-4352112D01*
X1094922Y-4484232D02*
G01*
X999035Y-4484232D01*
X999035Y-4352112D01*
X1094922Y-4352112D01*
X1167465Y-4738232D02*
G01*
X1263352Y-4738232D01*
X1263352Y-4606112D01*
X1167465Y-4606112D01*
X1082222Y-4738232D02*
G01*
X986335Y-4738232D01*
X986335Y-4606112D01*
X1082222Y-4606112D01*
X2450165Y-3773032D02*
G01*
X2546052Y-3773032D01*
X2546052Y-3640912D01*
X2450165Y-3640912D01*
X2364922Y-3773032D02*
G01*
X2269035Y-3773032D01*
X2269035Y-3640912D01*
X2364922Y-3640912D01*
X2818465Y-3785732D02*
G01*
X2914352Y-3785732D01*
X2914352Y-3653612D01*
X2818465Y-3653612D01*
X2733222Y-3785732D02*
G01*
X2637335Y-3785732D01*
X2637335Y-3653612D01*
X2733222Y-3653612D01*
X2716865Y-5246232D02*
G01*
X2812752Y-5246232D01*
X2812752Y-5114112D01*
X2716865Y-5114112D01*
X2631622Y-5246232D02*
G01*
X2535735Y-5246232D01*
X2535735Y-5114112D01*
X2631622Y-5114112D01*
X4837765Y-5309732D02*
G01*
X4933652Y-5309732D01*
X4933652Y-5177612D01*
X4837765Y-5177612D01*
X4752522Y-5309732D02*
G01*
X4656635Y-5309732D01*
X4656635Y-5177612D01*
X4752522Y-5177612D01*
X6158565Y-4687432D02*
G01*
X6254452Y-4687432D01*
X6254452Y-4555312D01*
X6158565Y-4555312D01*
X6073322Y-4687432D02*
G01*
X5977435Y-4687432D01*
X5977435Y-4555312D01*
X6073322Y-4555312D01*
X6145865Y-4408032D02*
G01*
X6241752Y-4408032D01*
X6241752Y-4275912D01*
X6145865Y-4275912D01*
X6060622Y-4408032D02*
G01*
X5964735Y-4408032D01*
X5964735Y-4275912D01*
X6060622Y-4275912D01*
X4689022Y-3628212D02*
G01*
X4593135Y-3628212D01*
X4593135Y-3760332D01*
X4689022Y-3760332D01*
X4774265Y-3628212D02*
G01*
X4870152Y-3628212D01*
X4870152Y-3760332D01*
X4774265Y-3760332D01*
X4320722Y-3628212D02*
G01*
X4224835Y-3628212D01*
X4224835Y-3760332D01*
X4320722Y-3760332D01*
X4405965Y-3628212D02*
G01*
X4501852Y-3628212D01*
X4501852Y-3760332D01*
X4405965Y-3760332D01*
X2578864Y-4945181D02*
G01*
X2714856Y-4945181D01*
X2714856Y-4729363D01*
X2578864Y-4729363D01*
X2388623Y-4945181D02*
G01*
X2252632Y-4945181D01*
X2252632Y-4729363D01*
X2388623Y-4729363D01*
X4458464Y-5072181D02*
G01*
X4594456Y-5072181D01*
X4594456Y-4856363D01*
X4458464Y-4856363D01*
X4268223Y-5072181D02*
G01*
X4132232Y-5072181D01*
X4132232Y-4856363D01*
X4268223Y-4856363D01*
X1564924Y-4337540D02*
G01*
X1980163Y-4337540D01*
X1980163Y-4752779D02*
G01*
X1564924Y-4752779D01*
X5599663Y-4689304D02*
G01*
X5184424Y-4689304D01*
X5184424Y-4274065D02*
G01*
X5599663Y-4274065D01*
D12*
X2762039Y-4687478D02*
G01*
X2942041Y-4687478D01*
X2762039Y-4572480D02*
G01*
X2762039Y-4492477D01*
X2762039Y-4377476D02*
G01*
X2942041Y-4377476D01*
X4730539Y-4941478D02*
G01*
X4910541Y-4941478D01*
X4730539Y-4826480D02*
G01*
X4730539Y-4746477D01*
X4730539Y-4631476D02*
G01*
X4910541Y-4631476D01*
D10*
X2089823Y-5608193D02*
G01*
X2089823Y-5437952D01*
X2395065Y-5608193D02*
G01*
X2395065Y-5437952D01*
X2290084Y-5437952D02*
G01*
X2194803Y-5437952D01*
X5252123Y-5125593D02*
G01*
X5252123Y-4955352D01*
X5557365Y-5125593D02*
G01*
X5557365Y-4955352D01*
X5452384Y-4955352D02*
G01*
X5357103Y-4955352D01*
X2547465Y-4237342D02*
G01*
X2547465Y-4065602D01*
X2444302Y-4065602D01*
X2242223Y-4237342D02*
G01*
X2242223Y-4065602D01*
X2345385Y-4065602D01*
X2440383Y-4237342D02*
G01*
X2349304Y-4237342D01*
X2899813Y-3960751D02*
G01*
X2728074Y-3960751D01*
X2728074Y-4063913D01*
X2899813Y-4265993D02*
G01*
X2728074Y-4265993D01*
X2728074Y-4162831D01*
X2899813Y-4067832D02*
G01*
X2899813Y-4158912D01*
X4671174Y-4227893D02*
G01*
X4842913Y-4227893D01*
X4842913Y-4124731D01*
X4671174Y-3922651D02*
G01*
X4842913Y-3922651D01*
X4842913Y-4025813D01*
X4671174Y-4120812D02*
G01*
X4671174Y-4029732D01*
X4264774Y-4215193D02*
G01*
X4436513Y-4215193D01*
X4436513Y-4112031D01*
X4264774Y-3909951D02*
G01*
X4436513Y-3909951D01*
X4436513Y-4013113D01*
X4264774Y-4108112D02*
G01*
X4264774Y-4017032D01*
G75*
G01*
X1620175Y-5103033D02*
G03*
X1635415Y-5087793I0J15240D01*
G75*
G01*
X1635415Y-5018552D02*
G03*
X1620175Y-5003312I-15240J0D01*
G75*
G01*
X1416914Y-5103033D02*
G02*
X1401674Y-5087793I0J15240D01*
G75*
G01*
X1401674Y-5018552D02*
G02*
X1416914Y-5003312I15240J0D01*
G75*
G01*
X5836575Y-5064933D02*
G03*
X5851815Y-5049693I0J15240D01*
G75*
G01*
X5851815Y-4980452D02*
G03*
X5836575Y-4965212I-15240J0D01*
G75*
G01*
X5633314Y-5064933D02*
G02*
X5618074Y-5049693I0J15240D01*
G75*
G01*
X5618074Y-4980452D02*
G02*
X5633314Y-4965212I15240J0D01*
D12*
G75*
G01*
X2165393Y-5850811D02*
G02*
X2196376Y-5819828I30983J0D01*
G75*
G01*
X2196376Y-5961794D02*
G02*
X2165393Y-5930809I0J30983D01*
G75*
G01*
X2413963Y-5820410D02*
G02*
X2444946Y-5851395I0J-30983D01*
G75*
G01*
X2444946Y-5931393D02*
G02*
X2413963Y-5962376I-30983J0D01*
G75*
G01*
X1758993Y-5850811D02*
G02*
X1789976Y-5819828I30983J0D01*
G75*
G01*
X1789976Y-5961794D02*
G02*
X1758993Y-5930809I0J30983D01*
G75*
G01*
X2007563Y-5820410D02*
G02*
X2038546Y-5851395I0J-30983D01*
G75*
G01*
X2038546Y-5931393D02*
G02*
X2007563Y-5962376I-30983J0D01*
G75*
G01*
X5480093Y-5507911D02*
G02*
X5511076Y-5476928I30983J0D01*
G75*
G01*
X5511076Y-5618894D02*
G02*
X5480093Y-5587909I0J30983D01*
G75*
G01*
X5728663Y-5477510D02*
G02*
X5759646Y-5508495I0J-30983D01*
G75*
G01*
X5759646Y-5588493D02*
G02*
X5728663Y-5619476I-30983J0D01*
G75*
G01*
X5111793Y-5495211D02*
G02*
X5142776Y-5464228I30983J0D01*
G75*
G01*
X5142776Y-5606194D02*
G02*
X5111793Y-5575209I0J30983D01*
G75*
G01*
X5360363Y-5464810D02*
G02*
X5391346Y-5495795I0J-30983D01*
G75*
G01*
X5391346Y-5575793D02*
G02*
X5360363Y-5606776I-30983J0D01*
D13*
G75*
G01
X1528549Y-4395186D02*
G03X1528549Y-4395186I-10008J0D01*
G75*
G01
X5656049Y-4631685D02*
G03X5656049Y-4631685I-10008J0D01*
D14*
G75*
G01
X3372538Y-1852773D02*
G03X3372538Y-1852773I-1599997J0D01*
G75*
G01
X6636438Y-1852773D02*
G03X6636438Y-1852773I-1599997J0D01*
D12*
G75*
G01
X3017142Y-4697573D02*
G03X3017142Y-4697573I-12700J0D01*
G75*
G01
X4985642Y-4951573D02*
G03X4985642Y-4951573I-12700J0D01*
D15*
G75*
G01
X2092353Y-5637373D02*
G03X2092353Y-5637373I-15011J0D01*
G75*
G01
X5254653Y-5154773D02*
G03X5254653Y-5154773I-15011J0D01*
M02*
